<svg width="300" height="344" viewBox="0 0 300 344" fill="none" xmlns="http://www.w3.org/2000/svg">
<g clip-path="url(#clip0_19_12855)">
<path d="M131.897 19.8527V39.7323L129.776 41.0217L127.629 42.3381L127.552 45.6693L127.474 49.0004L129.233 50.8272L130.966 52.654H134.224H137.483L139.216 54.4808L140.948 56.3075V61.6535V67.0264L138.698 69.3636C136.5 71.6739 136.448 71.7276 136.448 73.044C136.422 74.1992 136.293 74.5484 135.621 75.2469C133.5 77.4229 130.345 75.9722 130.345 72.7754C130.345 71.8888 130.5 71.5127 131.224 70.7605C131.948 70.0083 132.285 69.8471 133.241 69.8471C133.862 69.8471 134.612 70.0083 134.897 70.2232C135.388 70.5725 135.543 70.465 137.405 68.5845L139.397 66.5428V61.6804V56.7911L138.026 55.3941L136.655 53.9972H133.422H130.216L128.069 51.7675L125.922 49.5377L126 45.5349L126.078 41.5322L128.224 40.2158L130.345 38.8995V19.584V0.268581H128.871C128.043 0.268581 127.112 0.349174 126.802 0.429767L126.207 0.590953V18.3751V36.1593L124.785 37.61L123.362 39.0606V44.729V50.3705L127.19 54.3464L131.043 58.3492L131.922 57.7851C133.267 56.9254 134.56 57.0329 135.647 58.0806C138.388 60.7133 135.466 65.0384 132.155 63.2654C131.172 62.7281 130.603 61.8684 130.603 60.8476C130.603 60.1491 129.983 59.3969 126.336 55.6091L122.069 51.1764V44.729V38.2547L123.362 36.9384L124.655 35.622V18.0796C124.655 0.967053 124.655 0.537224 124.164 0.537224C122.767 0.537224 122.845 -0.403026 122.845 16.0917V31.3237L121.81 32.3714L120.776 33.4191V42.4455V51.4451L124.009 54.8031L127.241 58.1612V69.2293V80.2705L129.517 81.6406C131.535 82.8495 131.897 82.9569 132.621 82.7689C134.793 82.0973 136.991 84.3539 136.448 86.6373C135.983 88.5447 133.759 89.6193 132.052 88.7865C130.759 88.1417 130.241 87.0403 130.422 85.321L130.552 83.9509L128.25 82.6077L125.948 81.2645V70.1158V58.9671L122.586 55.4747L119.224 51.9824V42.4455V32.8819L120.388 31.6998L121.552 30.5178V15.635V0.779003L120.078 0.940189C119.25 1.02078 118.319 1.1551 118.009 1.2357L117.414 1.34315V26.2732C117.414 39.974 117.336 51.4451 117.259 51.7675C117.052 52.5465 118.888 54.5613 121.422 56.3613C124.578 58.6179 125.224 60.579 123.517 62.54C122.716 63.4534 122.509 63.534 121.293 63.534C120.078 63.534 119.871 63.4534 119.069 62.54C118.422 61.7878 118.19 61.2774 118.19 60.579C118.19 59.4238 118.733 58.2149 119.535 57.6239C120.129 57.1941 120.129 57.1941 119.612 56.8985C119.328 56.7374 118.345 55.8508 117.466 54.8837L115.81 53.1644L115.991 45.1857C116.095 40.8068 116.095 29.1477 115.991 19.3154C115.81 2.98188 115.759 1.42375 115.371 1.50434C115.138 1.55807 114.414 1.66553 113.741 1.74612L112.5 1.9073V14.1574V26.4076L113.793 28.7447L115.086 31.0819V46.9319V62.755L118.681 66.3548C120.647 68.3427 122.664 70.3038 123.129 70.7068C123.931 71.3515 124.009 71.5396 124.009 72.8828C124.009 74.0917 123.879 74.4947 123.388 75.0588C121.371 77.2886 117.931 75.9185 117.931 72.8828C117.931 71.862 118.06 71.5396 118.862 70.7068L119.767 69.7665L116.664 66.516L113.535 63.2654V47.2811V31.3237L112.241 28.9597L110.948 26.5956V14.3455V2.12222L109.733 2.2834C109.035 2.39086 108.078 2.55205 107.586 2.6595L106.681 2.84755L106.603 16.5752L106.552 30.3029L107.612 30.1686C109.474 29.8999 111.207 31.4043 111.207 33.3117C111.207 34.2788 110.483 35.5951 109.681 36.0787C108.31 36.9115 106.164 36.4548 105.491 35.1385C105.259 34.7086 105.207 30.3566 105.233 18.8855C105.285 3.43857 105.285 3.22366 104.767 3.22366C103.862 3.22366 94.4224 5.26534 92.8707 5.80263C92.6121 5.88322 92.8449 6.31305 93.6983 7.19957L94.9138 8.48906V17.999V27.5359L103.836 36.804L112.759 46.0722V55.3404V64.6086L113.922 66.6234L115.086 68.6382V73.447V78.2288L117.155 80.4585L119.25 82.6614L120.802 82.6346C122.302 82.6077 122.405 82.6614 123.259 83.6017C124.345 84.8374 124.448 86.2075 123.543 87.6044C121.991 90.0222 118.371 89.1626 118.009 86.2881C117.879 85.3747 117.491 84.8374 115.06 82.3122L112.241 79.384V74.4947V69.5785L110.948 67.2144L109.655 64.8504V55.8508V46.8782L100.862 37.7443L92.069 28.6104V19.2079V9.83228L90.6207 8.30101L89.1724 6.79661L87.3362 7.33389C86.3018 7.6294 85.4224 7.92491 85.3707 7.97864C85.2931 8.03237 86.1466 8.99948 87.2328 10.1546L89.2242 12.2232V21.3571V30.4641L98.1466 39.7591L107.069 49.0273V58.1612V67.2682L109.267 69.6054C111.362 71.8351 111.466 71.9694 111.466 73.1515C111.466 75.3543 109.552 76.9393 107.612 76.3483C105.595 75.7036 104.69 73.4738 105.724 71.647L106.241 70.7068L105.233 69.686L104.224 68.6651V59.3701V50.1019L95.3018 40.8337L86.3793 31.5655V22.566V13.5664L84.2069 11.3098L82.0345 9.08007L79.5518 9.93973C78.1811 10.3964 76.9914 10.9068 76.9138 11.068C76.8104 11.2292 78.6724 13.3515 81.0518 15.823L85.3449 20.2825V26.4613V32.6401L89.3535 36.804L93.3621 40.968V42.6336V44.326H94.2156C95.3535 44.326 96.2069 44.8365 96.9052 45.911C98.3276 48.1139 96.8018 50.7735 94.138 50.7735C93.2328 50.7735 92.8966 50.6123 92.1466 49.8332C91.2931 48.9467 91.2414 48.8393 91.4224 47.496C91.5 46.717 91.6293 45.0514 91.7069 43.7888L91.8362 41.5053L87.8018 37.3413L83.7931 33.1774V26.9448V20.6855L79.4224 16.1454L75.0776 11.5785L74.25 11.9008C73.8104 12.062 73.4483 12.2769 73.4483 12.3575C73.4483 12.4381 75.4914 14.6141 77.9742 17.1931L82.5 21.8943V27.5359V33.1774L86.3793 37.207L90.2587 41.2367V46.2065V51.1764L91.7845 52.0361C93.2328 52.8689 93.4914 52.9226 95.8707 52.9226H98.4052L100.655 55.2598L102.931 57.6239V73.3395V89.0283L104.405 90.5864L105.879 92.1445H128.922H151.94L153.931 90.0491L155.922 87.9805L155.638 86.906C155.405 85.9926 155.431 85.6434 155.819 84.8106C156.983 82.2585 160.474 82.4196 161.535 85.0792C162.517 87.4701 160.06 90.1566 157.759 89.2432C157.164 89.0014 156.905 89.1894 154.759 91.3655L152.405 93.7564H128.897H105.362L103.5 91.7953L101.638 89.8611V74.1454V58.4029L99.75 56.4687L97.888 54.5345H95.4311L92.9742 54.5076L90.9052 53.245L88.8362 51.9555L88.7587 46.8513L88.7069 41.7471L84.9569 37.8786L81.2069 33.9833V28.2075V22.4316L76.6035 17.6498C73.1638 14.0768 71.8966 12.9217 71.5604 13.056C71.3276 13.1366 71.1207 13.244 71.1207 13.2978C71.1207 13.3246 72.9828 15.2857 75.2587 17.6498L79.3966 21.9481V28.6373V35.3265L83.1207 39.195L86.8707 43.0903V46.8513L86.8449 50.6392L90.4914 54.2927L94.1121 57.9194L95.6638 57.8119C97.1638 57.7045 97.2673 57.7313 98.1466 58.6447C98.8966 59.4238 99.0518 59.773 99.0518 60.6864C99.0518 62.2177 98.4828 63.2385 97.3449 63.8027C96.1293 64.3937 94.8104 64.1519 93.8535 63.1579C92.9742 62.2177 92.6897 61.1968 93.0259 60.0417L93.3104 59.1551L89.3276 55.2061L85.3449 51.257V47.3349V43.3858L81.5949 39.4905L77.8449 35.5951V29.0134V22.4316L73.7587 18.1871C69.75 14.0231 69.6466 13.9425 68.9224 14.238L68.1724 14.5335L72.6207 19.1542L77.069 23.7749V30.2223V36.6697L80.819 40.565L84.569 44.4604V48.3557V52.251L87.6724 55.4747L90.7759 58.6985V69.1755V79.6257L92.4828 81.4257L94.1897 83.1987L95.1207 82.8763C96.3104 82.4465 97.4224 82.7689 98.3535 83.8166C99.6466 85.2941 99.1552 87.9 97.3966 88.7596C96.3104 89.2969 95.9224 89.2969 94.7845 88.8133C93.4914 88.2492 92.7931 86.9328 92.9742 85.4284L93.1035 84.2195L91.1638 82.2047L89.2242 80.2168V69.7397V59.2626L86.1207 56.012L83.0173 52.7346V48.7318V44.729L79.2673 40.8337L75.5173 36.9384V30.6253V24.3121L71.1724 19.7989L66.8276 15.2857L65.4569 15.8767L64.1121 16.4678L68.25 20.7929L72.4138 25.1181V32.1028V39.0875L76.2931 43.1172L80.1724 47.1468V53.5136C80.1724 57.0329 80.2759 59.9073 80.3793 59.9073C80.4828 59.9073 80.7931 59.5312 81.0518 59.0746C82.0345 57.3552 84.4655 57.0866 85.888 58.5373C87.8793 60.6327 86.4828 63.937 83.5862 63.937C82.4224 63.937 81.4138 63.2385 80.819 62.0296C80.5087 61.4386 80.2242 61.2506 79.6552 61.2506H78.8793V54.5882V47.9527L74.8707 43.7888L70.8621 39.6248V32.6401V25.6554L66.8793 21.5182C63.2069 17.7035 62.8449 17.408 62.1724 17.5692C61.5 17.7572 61.6035 17.8916 65.8966 22.4048L70.3449 27.0254V35.5146V44.0037L71.1983 44.1649C73.2931 44.5678 74.3535 47.308 73.138 49.1616C71.4311 51.7675 67.5 50.6123 67.5 47.496C67.5 46.4752 68.1724 44.8633 68.5862 44.8633C68.6897 44.8633 68.7931 40.968 68.7931 36.1862V27.5359L64.5776 23.157C62.2759 20.766 60.2069 18.805 60 18.805C59.7931 18.805 59.3535 19.0199 59.0173 19.2885L58.4483 19.7452L61.5518 22.9689L64.6552 26.1926V37.4756V48.7855L66.4138 50.5854L68.1724 52.3853H73.2673H78.3621V59.2895V66.2205L80.1983 68.1278L82.0087 70.0352L82.9914 69.7665C85.0604 69.1755 87.1811 71.2978 86.7673 73.5276C86.2242 76.6169 82.2414 77.1542 80.8449 74.3066C80.4052 73.4201 80.3793 73.0977 80.638 72.1575L80.9224 71.056L79.0087 69.0412L77.069 67.0264L77.0173 60.4446L76.9397 53.8629L72.1552 53.7823L67.3707 53.7286L65.25 51.4988L63.1035 49.2959V37.8786V26.4613L60.1293 23.3719C57.2328 20.3899 57.1552 20.3094 56.5086 20.6855L55.8362 21.0616L58.8362 24.1778L61.8104 27.2672V38.6845V50.1019L66.4655 54.7494L71.1207 59.4238V70.9486V82.4734L72 82.8495C73.6293 83.5479 74.3276 85.4822 73.5776 87.1209C72.1552 90.264 67.6552 89.1894 67.7069 85.7239C67.7328 84.4882 68.25 83.5211 69.1811 83.0107L69.8276 82.6614V71.4859V60.3103L65.0431 55.3404L60.2587 50.3705V39.0875V27.8045L57.4138 24.8494L54.5949 21.9212L53.6638 22.4316C53.1724 22.7271 52.7587 23.0227 52.7587 23.1032C52.7587 23.1838 53.9224 24.4465 55.3449 25.924L57.9311 28.6104V40.1621V51.7137L60.7759 54.6688L63.6207 57.6239V73.635V89.673L65.9483 91.0431L68.2759 92.4132H72.75H77.1983L79.2414 90.2909L81.2845 88.1686L80.8707 87.2283C80.3276 86.0732 80.3276 85.6702 80.7931 84.4882C81.2328 83.4136 82.5518 82.4734 83.6638 82.4734C84.7759 82.4734 86.0949 83.4136 86.5345 84.4882C87 85.6702 87 86.0732 86.4828 87.2015C85.9655 88.3029 84.8535 88.9745 83.5604 88.9745C82.7328 88.9477 82.3707 89.2163 80.2759 91.3655L77.9224 93.8101L72.75 93.7564L67.5518 93.7295L64.9397 92.1982L62.3535 90.667L62.3276 74.5484V58.4298L59.4828 55.4747L56.638 52.5197V40.968V29.4164L53.9483 26.6225C52.1638 24.7688 51.2069 23.9629 51.0776 24.1778C50.9483 24.3927 51.75 25.3867 53.25 26.9717L55.6035 29.4164V41.1023V52.7883L57.9311 55.2061C59.2242 56.5224 60.2587 57.7582 60.2587 57.9463C60.2587 58.1343 60.4914 58.6716 60.7759 59.1551C62.069 61.358 60.5949 64.2056 58.1897 64.2056C56.5862 64.2056 55.0862 62.6475 55.0862 60.9819C55.0862 59.3969 56.3793 57.7582 57.6724 57.7582C57.9569 57.7582 58.1897 57.7045 58.1897 57.6507C58.1897 57.5702 57.3104 56.6299 56.25 55.5553L54.3104 53.5942V41.7739V29.9536L51.9828 27.5359C49.4483 24.93 49.5776 24.9569 47.8449 26.327L47.1983 26.8374L49.6035 29.3358L51.9828 31.8341V49.1616V66.4891L54 68.5845L56.0173 70.6799L57.0259 70.2232C59.0431 69.3636 61.0087 70.6799 61.2414 73.044C61.3449 74.3066 61.2931 74.4678 60.4655 75.3275C58.9138 76.9393 57.4655 76.9393 55.9397 75.3543C55.138 74.5215 55.0604 74.2798 55.1121 73.2052C55.1897 71.9963 55.1638 71.9694 52.8104 69.4979L50.4311 67.0264V49.6989V32.3714L48.2328 30.088C46.138 27.912 46.0345 27.8582 45.3621 28.1806L44.6638 28.503L45.5949 29.4969L46.5518 30.5178V37.3413V44.1649L47.3535 45.0245C49.5259 47.3617 47.8966 50.8003 44.7673 50.4242C43.1638 50.2362 42.1552 49.081 42.1552 47.4692C42.1811 46.8513 42.3104 46.0722 42.5173 45.723C42.9052 44.9708 44.1724 44.0574 44.819 44.0574C45.2328 44.0574 45.2587 43.5738 45.2587 37.6637V31.27L44.4052 30.4103L43.5259 29.5238L41.6897 31.0282L39.8276 32.5326V41.3172V50.1019L43.7328 54.1315C45.8793 56.3613 47.7931 58.4835 48 58.8865C49.1121 61.0625 47.6121 63.6684 45.2587 63.6684C42.0776 63.6684 40.9397 59.1014 43.7587 57.597L44.5604 57.1672L41.5604 54.0509L38.5345 50.9078L38.4828 42.365L38.4052 33.7952L36.1552 35.8638L33.8793 37.9323V41.1292C33.8793 44.0843 33.9052 44.2992 34.4224 44.4604C35.1466 44.7021 35.9483 46.1528 35.9483 47.2274C35.9483 50.5586 31.7845 51.7406 30.1552 48.893C29.2759 47.308 29.9483 45.0245 31.5259 44.326L32.3276 44.0037V41.8008L32.3018 39.6248L29.8707 42.2306L27.4138 44.8365V48.0065V51.2033L28.2673 52.063L29.1207 52.9226H33.1293H37.138L38.4828 55.3136L39.8276 57.7313V61.9759V66.2205L41.7931 68.2621C43.7069 70.277 43.7845 70.3038 44.8449 70.1964C46.888 69.9546 48.3621 71.3247 48.3621 73.5007C48.3621 74.8976 46.7587 76.5632 45.4138 76.5632C43.4483 76.5632 42.1552 75.22 42.1552 73.1246C42.1552 72.5604 42.2845 71.9694 42.4655 71.7814C42.7242 71.5127 42.3104 70.9486 40.5259 69.0949L38.2759 66.7577V62.3251V57.9194L37.2414 56.0926L36.1811 54.2658H32.25H28.2931L27.0776 52.9764L25.8621 51.6869V49.3228C25.8621 46.9588 25.8621 46.9319 25.3449 47.4154C24.8793 47.8721 24.8276 48.2482 24.8276 52.0898V56.3075L26.4569 57.9731C27.75 59.3163 28.2414 59.6387 28.9138 59.6387C29.5604 59.6387 29.819 59.4775 30.1035 58.8596C30.6724 57.7582 31.6035 57.2209 33 57.2209C34.0087 57.2209 34.319 57.3552 35.069 58.1343C35.7931 58.8865 35.9483 59.2626 35.9483 60.176C35.9483 61.5998 35.3018 62.7281 34.1897 63.2922C33.0259 63.8564 31.6811 63.6415 30.7759 62.7281C30.2328 62.1908 29.8449 62.0565 28.6811 62.0565H27.2845L25.0086 59.6924L22.7586 57.3552V54.1315L22.7328 50.9078L21.9828 51.8481L21.2069 52.7614V56.5493V60.3103L26.0949 65.3877L30.9828 70.4382L31.9138 70.1158C34.7587 69.1487 37.2155 72.8022 35.3018 75.1663C33.4397 77.4766 30.1552 76.5364 29.819 73.5544C29.6897 72.4798 29.3793 72.0769 24.4138 66.8921L19.1638 61.3849L19.0862 58.6985L19.0086 56.012L17.25 58.8328L15.5173 61.6535V63.937V66.2473L17.3276 68.101C18.9311 69.7665 19.2414 69.9546 20.2242 70.0083C22.4742 70.1426 23.7673 72.8828 22.5776 74.9782C22.138 75.7573 20.8449 76.5632 20.069 76.5632C17.9224 76.5632 16.138 73.7962 17.0949 71.9426C17.3276 71.4859 17.1207 71.1366 15.2586 69.1487C13.7069 67.5099 13.1638 66.7577 13.2931 66.4354C13.4224 66.0324 13.3707 66.0593 13.0345 66.4891C12.5949 67.0533 9.56899 73.447 9.56899 73.8231C9.56899 73.9305 10.9397 75.4349 12.6207 77.1811L15.6724 80.3511L20.8449 80.2168C23.6638 80.1362 26.6121 80.0287 27.3621 80.0018C28.6293 79.9213 28.8104 80.0018 29.5087 80.8078C30.1293 81.5331 30.2587 81.9092 30.2587 83.0375C30.2587 84.1658 30.1293 84.5151 29.5087 85.1598C29.0949 85.5896 28.4742 86.0195 28.0862 86.1269C27.1035 86.3687 25.7586 86.0463 25.2155 85.4284C24.7759 84.918 24.4138 84.8912 19.2673 84.8912H13.8104L10.7328 81.6674C9.05175 79.8944 7.6552 78.4706 7.62934 78.4974C7.13796 79.2496 3.62071 91.0162 3.62071 91.9296C3.62071 92.3863 3.93106 92.4132 8.87072 92.4132H14.0949L16.2673 94.6698L18.4397 96.9264L19.4483 96.3891C20.7155 95.6906 21.9311 95.9055 22.9914 96.9801C25.4742 99.5591 22.7328 103.777 19.5776 102.219C18.4138 101.654 17.7931 100.661 17.7414 99.3442C17.7155 98.4039 17.5086 98.0815 15.4914 96.013L13.2414 93.7564L8.25003 93.8101L3.23278 93.8907L2.9483 94.8309C2.66382 95.7175 1.52589 102.192 1.16382 104.771L1.00865 105.98L3.33623 103.589L5.63796 101.225L5.50865 99.6665C5.4052 98.4845 5.48278 97.9741 5.81899 97.4099C6.80175 95.8787 8.63796 95.4757 10.1121 96.5234C13.0345 98.5651 11.5345 102.648 7.9914 102.299L6.77589 102.165L3.75003 105.308L0.750025 108.424L0.491404 111.191C0.336232 112.723 0.284508 114.039 0.387956 114.12C0.491404 114.227 2.04313 112.696 3.85347 110.735L7.13796 107.189H9.77589H12.4138V114.496V121.803L11.5086 122.77C10.6811 123.656 10.6035 123.844 10.8621 124.489C11.25 125.591 11.1724 126.585 10.6293 127.444C9.95692 128.519 9.1552 128.922 7.78451 128.949C6.85347 128.949 6.51727 128.787 5.79313 128.035C5.04313 127.256 4.91382 126.934 4.91382 125.886C4.91382 123.63 6.36209 122.313 8.48278 122.609C9.49141 122.743 9.6983 122.689 10.3707 121.991L11.1207 121.212V115.006V108.8H9.41382H7.68106L4.00865 112.481C1.16382 115.355 0.284508 116.403 0.129335 117.128C-0.129285 118.31 0.155197 132.844 0.43968 133.381C0.620715 133.704 0.956922 133.489 2.06899 132.307L3.46554 130.829H8.53451H13.5776L15.8535 128.465C17.5345 126.692 18.1035 125.94 18.1035 125.403C18.1035 124.435 19.2414 123.119 20.4052 122.743C22.2414 122.179 24.3104 123.818 24.3104 125.859C24.3104 127.041 23.4052 128.384 22.2931 128.868C21.4138 129.244 21.2328 129.244 20.1724 128.868L19.0086 128.438L16.6811 130.829L14.3535 133.247H9.28451H4.2414L3.41382 134.133L2.58623 135.02V142.837C2.58623 149.634 2.66382 151.004 3.10347 153.288C3.9052 157.29 3.77589 157.102 4.93968 155.92C6.07761 154.765 6.18106 154.201 5.43106 153.207C4.42244 151.891 4.96554 149.5 6.46554 148.694C7.4483 148.183 9.05175 148.183 9.77589 148.721C10.5517 149.285 11.1207 150.494 11.1207 151.622C11.1207 152.724 9.93106 154.309 8.92244 154.577C8.53451 154.685 8.27589 154.953 8.27589 155.222C8.27589 155.491 7.42244 156.592 6.36209 157.667C5.30175 158.768 4.47416 159.789 4.52589 159.95C4.57761 160.111 4.81037 160.944 5.04313 161.831C5.45692 163.335 5.48278 163.389 5.84485 162.825C6.77589 161.454 8.61209 161.105 10.0345 161.992C11.8966 163.174 12 165.726 10.2931 167.23C9.56899 167.875 9.28451 167.956 8.09485 167.848C7.34485 167.768 6.72416 167.794 6.72416 167.875C6.72416 167.956 6.85347 168.493 7.00865 169.03L7.26727 170.051H9.12934H11.0173L12.2328 168.762L13.4483 167.472V156.458V145.443L11.6121 143.509L9.77589 141.575L8.56037 141.736C6.33623 142.032 4.91382 140.796 4.91382 138.566C4.91382 136.712 5.87071 135.638 7.68106 135.477C8.89658 135.342 9.07761 135.396 9.95692 136.256C10.7845 137.035 10.9397 137.384 11.0431 138.539C11.1724 139.829 11.3018 140.017 13.3449 142.139L15.5173 144.396V156.485V168.6L13.7586 170.4L12 172.2H10.0086C8.92244 172.2 8.01727 172.308 8.01727 172.469C8.01727 173.033 8.63796 174.081 8.97416 174.081C9.6983 174.081 10.8621 174.913 11.25 175.693C11.7931 176.767 11.7414 178.083 11.1207 179.131L10.5776 180.018L11.1466 181.63L11.7155 183.215H13.4224H15.1293L17.2242 185.391C19.0862 187.325 19.3966 187.54 19.8621 187.271C21.9052 186.143 24.6466 188.426 24.1811 190.898C23.7931 193.127 20.8449 194.202 19.1638 192.751C18.1811 191.865 17.7155 190.468 18.0518 189.42C18.2845 188.695 18.2069 188.534 16.4483 186.734C14.7414 184.961 14.5086 184.826 13.5 184.826C12.9052 184.826 12.4138 184.934 12.4138 185.068C12.4138 185.632 16.3449 193.289 18.3104 196.566C20.1207 199.575 20.5604 200.139 21.3362 200.408C22.6811 200.864 23.5345 202.073 23.5345 203.524C23.5345 204.518 23.7414 205.028 24.6207 206.345L25.7069 207.93L26.819 206.801L27.9311 205.673V202.96V200.22L26.9742 199.575C24.3362 197.829 25.5 193.692 28.6035 193.692C29.5604 193.692 29.9224 193.853 30.7242 194.605C31.5518 195.411 31.6811 195.68 31.6811 196.727C31.6811 198.097 31.0345 199.253 29.9224 199.817C29.2242 200.166 29.2242 200.193 29.2242 203.175V206.21L27.9311 207.634C27.2328 208.413 26.638 209.139 26.638 209.246C26.6638 209.327 27.388 210.482 28.2931 211.825L29.9224 214.243L51.6207 214.323L73.319 214.377L75.4397 216.58L77.5862 218.81V231.812V244.814L78.2328 245.996L78.9052 247.152H128.612H178.345L179.871 248.763L181.397 250.375H192.672H203.922L207.621 246.534L211.293 242.719V238.555V234.391L215.741 229.744L220.216 225.123H230.819H241.422L243.75 227.541L246.078 229.958H250.785H255.517L257.25 231.839L258.983 233.719H262.629H266.25L268.319 235.869C270 237.615 270.466 237.964 270.957 237.857C272.405 237.454 274.216 238.743 274.681 240.489C274.914 241.403 274.862 241.806 274.526 242.773C273.466 245.674 269.612 245.782 268.345 242.988C267.905 242.021 267.905 241.618 268.345 239.63C268.474 239.039 268.241 238.689 266.922 237.4L265.371 235.869H261.802H258.259L256.526 234.096L254.819 232.322L250.086 232.376L245.379 232.403L242.871 229.824L240.362 227.272H230.664H220.991L217.293 231.114L213.621 234.928V239.227V243.525L209.147 248.172L204.698 252.793H192.672H180.621L179.095 251.181L177.569 249.569H127.629H77.6897L76.6035 247.581L75.5173 245.593V232.591V219.589L74.1466 218.192L72.7759 216.795H52.1897H31.5776L33.2328 219.481L34.8621 222.195L51.6207 222.168H68.3793L69.8793 223.699L71.3793 225.23V236.54V247.823L74.819 251.396L78.2328 254.942H127.552H176.845L178.655 256.017L180.44 257.091H193.345H206.25L211.888 251.235L217.5 245.405V241.376V237.346L221.198 233.505L224.871 229.69H233.147H241.422L243.621 231.973L245.819 234.257H249.698H253.578L255.621 236.379C257.56 238.394 257.69 238.501 258.621 238.367C261.854 237.91 263.586 242.289 261.104 244.653C258.595 247.044 254.793 244.411 255.698 240.919L256.009 239.764L254.535 238.233L253.086 236.675H249.104H245.095L242.871 234.391L240.621 232.108H233.172H225.724L222.647 235.09L219.569 238.098V242.289V246.48L213.414 252.874L207.285 259.241H193.448H179.612L177.828 258.166L176.069 257.091H126.621H77.1983L73.1121 252.847L69.0518 248.629V237.319V226.036L68.1983 225.177L67.3707 224.344L52.1121 224.317C43.7069 224.317 36.7242 224.398 36.569 224.532C36.3621 224.666 36.6466 225.418 37.4224 226.869C38.9483 229.663 40.9655 234.257 42.0776 237.48C42.569 238.877 43.0087 240.086 43.0862 240.14C43.138 240.194 43.4224 240.033 43.7328 239.737C44.1466 239.361 44.6638 239.227 45.9052 239.227C47.3018 239.227 47.638 239.334 48.2328 239.898C49.3449 240.973 49.7328 241.967 49.5776 243.498C49.4742 244.626 49.319 244.976 48.4138 245.862C47.4311 246.802 47.2242 246.883 45.8535 246.883H44.3535L44.4311 250.644L44.5087 254.405H55.4224H66.3362L69.9569 258.166L73.5776 261.927H121.164H168.75L171.414 263.539L174.103 265.151H186.103H198.103V274.822V284.493H177.672H157.241L155.948 283.66L154.655 282.854L154.603 277.159L154.526 271.464L140.638 271.383L126.724 271.329V277.911V284.493H117.466H108.233L103.578 279.657L98.9224 274.822H71.8966H44.8449L43.888 275.843C43.1121 276.675 42.8793 277.132 42.75 278.287L42.5949 279.684L43.5 278.744C44.638 277.562 45.9052 277.293 47.4569 277.911C50.4569 279.093 50.7414 283.257 47.9483 284.977C46.138 286.078 43.9655 285.46 42.8535 283.472L42.2845 282.478L41.9742 284.896C41.7931 286.239 41.3018 290 40.8362 293.304L40.0345 299.268L40.8362 300.047C42.2587 301.417 42.5431 303.191 41.6121 304.91C41.3276 305.447 40.7328 306.119 40.319 306.361L39.569 306.817V313.318V319.793L37.8621 321.593C36.2328 323.312 36.1552 323.446 35.7931 325.354C35.6121 326.455 35.3793 327.583 35.3018 327.906C35.1983 328.416 35.638 328.712 39.1035 330.404L43.0087 332.365L43.6293 331.532C44.4569 330.431 45.5173 329.894 46.8104 329.894C48.1552 329.894 49.1897 330.458 49.9655 331.559C50.4311 332.285 50.5604 332.768 50.5345 334.084C50.4828 335.643 50.5345 335.723 51.2328 335.992L51.9828 336.287V331.801V327.315L50.1724 325.461L48.3362 323.581L46.9655 323.661C45.3362 323.769 44.2759 323.312 43.4483 322.103C42.3362 320.491 42.5431 318.288 43.9138 316.945C45.8535 315.038 49.0345 315.709 50.069 318.261C50.5604 319.443 50.5345 320.33 49.9397 321.539L49.4224 322.56L51.4655 324.655L53.5345 326.777L53.5862 331.855L53.6638 336.932L54.5173 337.281L55.3449 337.657V327.798V317.939L52.0345 314.5C48.8535 311.196 48.6983 311.062 48 311.357C45.5949 312.298 42.9052 310.444 42.8793 307.811C42.8276 304.614 46.0862 302.68 48.6983 304.319C50.2242 305.313 50.8707 307.623 50.1207 309.342C49.8362 310.014 49.9397 310.175 53.3535 313.721L56.8966 317.402V327.825V338.248L57.4914 338.463C57.8018 338.598 58.138 338.651 58.2414 338.571C58.3707 338.517 58.4483 335.723 58.4483 332.365V326.267L61.8621 322.721L65.3018 319.148H66.75C68.1207 319.148 68.3018 319.067 69.2328 318.1C70.5 316.757 71.7155 316.488 73.319 317.133C76.319 318.315 76.6035 322.506 73.8104 324.172C73.2673 324.521 72.4914 324.789 72.1035 324.789C70.4224 324.789 68.6897 323.446 68.25 321.781C68.0173 320.814 67.9397 320.76 66.9052 320.76C65.8449 320.76 65.6897 320.894 62.7673 323.93L59.7414 327.073V333.198V339.296L60.4138 339.565C60.7759 339.726 61.1897 339.833 61.319 339.833C61.4483 339.833 61.5518 338.248 61.5518 336.153V332.446L64.5776 329.303L67.6293 326.133H72.5431H77.4828L79.1121 324.413C80.7155 322.748 80.7414 322.694 80.4828 321.754C80.0949 320.33 80.5087 318.906 81.569 317.885C82.7328 316.784 83.9742 316.515 85.4742 317.133C86.9224 317.697 87.7242 318.826 87.8535 320.464C87.9828 322.076 87.3362 323.392 85.9914 324.172C84.7759 324.897 83.8707 324.951 82.5776 324.386L81.6207 323.957L79.7845 325.864L77.9742 327.745H73.0345H68.1207L65.6121 330.35L63.1035 332.983V336.798C63.1035 340.451 63.1293 340.639 63.6207 340.639C63.9052 340.639 64.138 340.478 64.138 340.29C64.138 340.102 65.1207 338.947 66.3104 337.711C68.4569 335.481 68.4828 335.455 68.2242 334.514C67.7069 332.553 69.2845 330.135 71.3276 329.759C72.6466 329.544 74.3018 330.243 75.0518 331.291C76.2155 333.01 75.8018 335.723 74.1983 336.959C73.138 337.738 71.3276 337.872 70.2673 337.201L69.3621 336.663L67.3449 338.786C66.0776 340.102 65.4052 340.989 65.5604 341.15C65.7155 341.284 66.7242 341.687 67.8621 342.063C69.4914 342.574 70.0604 342.654 70.7328 342.439C71.8707 342.09 73.2673 342.386 74.1983 343.191C74.7673 343.729 75.2328 343.863 76.2673 343.863H77.5862V341.392V338.92L79.138 337.281C80.638 335.696 80.6638 335.643 80.4569 334.649C80.1466 333.252 80.5604 331.828 81.6207 330.807C84.0259 328.443 87.9311 330.297 87.9311 333.816C87.9311 336.61 84.8535 338.544 82.4483 337.254L81.6466 336.825L80.2759 338.248L78.8793 339.672V341.768V343.863H80.25H81.5949L85.5518 339.753L89.4828 335.669V330.915V326.186L91.2414 324.413L93.0259 322.64L92.8966 321.19C92.7156 318.852 94.0087 317.106 96.1811 316.811C97.4483 316.623 99.1552 317.509 99.8276 318.691C100.966 320.599 100.216 323.312 98.2759 324.306C97.0862 324.924 96.0259 324.924 94.7845 324.252L93.75 323.715L92.3793 325.139L90.9828 326.589L91.0345 331.371L91.0604 336.18L87.3621 340.022L83.6638 343.863H85.7328H87.8018L91.0862 340.451L94.3966 337.04L93.6983 336.287C92.7414 335.24 92.5604 332.849 93.3621 331.559C93.9052 330.673 95.6121 329.625 96.5949 329.625C97.5776 329.625 99.2845 330.646 99.8276 331.559C101.302 334.084 99.4914 337.684 96.7242 337.684C95.8966 337.684 95.5087 338.007 92.8449 340.774L89.8707 343.863H91.7587C93.3104 343.863 93.7759 343.756 94.4224 343.245C95.5345 342.412 97.6552 342.412 98.7673 343.245C99.4138 343.756 99.8793 343.863 101.379 343.863H103.19L103.216 320.814C103.216 308.16 103.267 297.549 103.319 297.28C103.371 296.985 105.31 294.782 107.638 292.364L111.853 287.985H121.681H131.535L132.931 289.463L134.328 290.94H165.905H197.457L201.285 286.964C204.905 283.203 205.086 282.962 205.086 281.941C205.086 280.625 205.836 279.308 206.948 278.556C207.621 278.126 208.112 278.046 209.198 278.126C210.44 278.207 210.698 278.341 211.603 279.335C212.483 280.329 212.586 280.598 212.586 281.833C212.586 284.359 211.06 285.944 208.681 285.89L207.517 285.863L203.25 290.296L199.009 294.701H165.905H132.776L131.405 293.224L130.035 291.746H121.707H113.405L110.095 295.185L106.81 298.597V321.243V343.863H107.716H108.621V322.291V300.746L111.802 297.442L114.957 294.164H122.716H130.474L133.397 297.2L136.293 300.209V301.74C136.293 303.271 136.293 303.298 137.353 303.835C138.129 304.265 138.543 304.722 138.931 305.635C139.629 307.274 139.397 308.456 138.103 309.799C137.25 310.713 136.991 310.82 135.879 310.82C133.448 310.82 132 309.181 132.207 306.737C132.362 305.286 133.319 303.943 134.405 303.674C134.922 303.54 135 303.325 135 302.25C135 301.041 134.948 300.961 132.466 298.382L129.957 295.776H122.612H115.267L112.603 298.543L109.914 301.31V322.587V343.863H111.336H112.759V322.721V301.579L114.233 300.021L115.707 298.462H121.681C124.94 298.462 128.147 298.597 128.793 298.758C131.69 299.456 132.75 302.895 130.707 305.017C128.741 307.032 125.405 306.065 124.733 303.298L124.5 302.358L120.905 302.277C117.853 302.223 117.285 302.277 116.871 302.653C116.405 303.083 116.379 303.97 116.379 323.5V343.863H117.672C118.603 343.863 119.198 343.675 119.897 343.191C120.543 342.735 121.19 342.52 121.94 342.52C122.69 342.52 123.336 342.735 123.983 343.191C124.603 343.621 125.302 343.863 125.948 343.863H126.983V342.198V340.532L125.276 338.732C123.647 337.04 123.517 336.959 122.741 337.174C121.526 337.55 120.31 337.174 119.353 336.18C117.802 334.568 117.905 332.285 119.638 330.7C120.362 330.055 120.776 329.894 121.759 329.894C124.552 329.894 126.31 332.714 125.069 335.24C124.681 335.965 124.707 335.992 126.621 337.98L128.535 339.941V341.902V343.863H129.828C130.552 343.863 131.121 343.756 131.121 343.648C131.121 343.165 132.698 342.52 133.914 342.52C134.922 342.52 135.388 342.681 135.983 343.191C136.603 343.729 137.043 343.863 138.207 343.863H139.655V341.633V339.404L138 337.711L136.345 335.992L135.621 336.583C134.716 337.335 132.905 337.335 131.767 336.61C130.112 335.562 129.621 333.144 130.681 331.479C131.457 330.27 132.802 329.571 134.043 329.732C135.983 329.974 137.172 331.344 137.224 333.467C137.276 334.729 137.353 334.89 139.112 336.717L140.948 338.625V341.257V343.863H142.603C143.845 343.863 144.517 343.702 145.216 343.299C146.302 342.627 148.397 342.681 149.172 343.433C149.457 343.675 150.078 343.863 150.672 343.863H151.681L143.664 335.535L135.647 327.207H131.379H127.138L125.535 325.569L123.957 323.93L122.871 324.279C120.621 324.977 118.474 323.473 118.241 321.055C117.828 316.569 123.983 315.414 125.224 319.739C125.431 320.518 125.431 321.028 125.224 321.781C124.914 322.775 124.94 322.775 126.388 324.306L127.862 325.864H132.155H136.422L145.086 334.864C152.302 342.386 153.853 343.863 154.448 343.863C155.069 343.863 155.172 343.756 155.172 343.111C155.172 342.52 153.698 340.827 146.431 333.305L137.69 324.252L135.078 324.279C132.336 324.306 131.871 324.172 130.888 323.097C130.164 322.264 129.879 320.303 130.345 319.148C130.914 317.724 132 316.999 133.578 316.999C134.767 316.999 135.129 317.133 135.879 317.805C137.224 319.04 137.56 320.464 136.914 322.21C136.785 322.533 136.914 322.64 137.483 322.64C138.129 322.64 139.629 324.091 147.491 332.258C156.336 341.445 156.724 341.902 156.724 342.869C156.724 343.783 156.776 343.863 157.5 343.863C158.276 343.863 158.276 343.863 158.276 342.305V340.774L148.836 330.968L139.397 321.163V319.685C139.397 318.208 139.371 318.181 137.767 316.515L136.138 314.85H130.888H125.612L124.293 313.48C123.026 312.163 122.922 312.109 121.5 312.056C120.155 312.029 119.922 311.948 119.043 311.008C118.138 310.068 118.06 309.907 118.06 308.402C118.06 306.925 118.138 306.737 118.991 305.823C121.888 302.814 126.569 306.361 124.681 310.148L124.138 311.196L125.224 312.351L126.31 313.506H131.638H136.966L138.853 315.494C140.767 317.482 140.767 317.482 140.767 318.96L140.741 320.411L150.155 330.189L159.569 339.968V341.902V343.863H160.345H161.121V341.768V339.699L153.879 332.177C149.897 328.04 146.638 324.521 146.638 324.333C146.638 324.145 146.353 323.93 145.991 323.822C145.216 323.634 143.871 322.076 143.638 321.163C142.836 317.832 146.741 315.199 149.328 317.294C151.371 318.96 151.164 322.479 148.966 323.5C148.526 323.688 148.19 323.903 148.19 323.984C148.19 324.064 151.397 327.449 155.302 331.506L162.414 338.893V341.365V343.863H163.19H163.966V341.499V339.162L158.276 333.252L152.586 327.342V320.76V314.151L150.776 312.298C149.095 310.551 148.94 310.471 148.319 310.766C147.957 310.954 147.129 311.089 146.509 311.089C144.362 311.089 142.681 308.698 143.276 306.522C144.103 303.567 147.517 302.761 149.483 305.098C150.285 306.038 150.31 306.172 150.181 307.757L150.052 309.423L151.966 311.384L153.879 313.345V319.954V326.536L159.569 332.446L165.259 338.356V341.096V343.863H167.017C168.259 343.863 169.06 343.702 169.785 343.326C171.052 342.654 171.879 342.654 173.147 343.326C174.336 343.944 176.897 344.078 176.897 343.514C176.897 343.326 176.276 342.547 175.526 341.768L174.155 340.371H172.371H170.586L164.431 334.004L158.276 327.637V325.676C158.276 324.037 158.198 323.715 157.81 323.607C156.155 323.043 155.198 320.357 156.052 318.638C157.448 315.844 161.586 316.3 162.388 319.336C162.828 320.921 162 322.855 160.629 323.446C159.853 323.769 159.828 323.849 159.828 325.434V327.073L165.466 332.929L171.078 338.759H172.888H174.724L176.586 340.72C177.776 341.956 178.448 342.869 178.448 343.272C178.448 343.756 178.603 343.863 179.224 343.863C179.922 343.863 180 343.783 180 342.977C180 342.198 179.276 341.365 172.759 334.595L165.517 327.073V321.163V315.253L163.267 312.915L160.991 310.578L159.957 310.874C158.379 311.304 157.035 310.954 155.922 309.772C154.241 308.026 154.241 305.555 155.922 303.808C157.474 302.197 159.776 302.062 161.405 303.486C162.879 304.802 163.293 306.656 162.517 308.644L162.103 309.719L164.457 312.056L166.81 314.366V320.33V326.267L174.052 333.789L181.293 341.311V342.574V343.863H182.198H183.103V340.827C183.103 337.872 183.078 337.765 182.483 337.469C181.5 337.013 180.466 335.401 180.336 334.084C180.155 332.607 180.776 331.183 182.017 330.216C183.233 329.276 185.509 329.195 186.647 330.055C189.052 331.908 189.207 335.025 187.009 336.959C186.569 337.335 185.871 337.711 185.431 337.819L184.655 338.007V340.935V343.863H186.569C187.629 343.863 188.664 343.783 188.897 343.702C189.259 343.568 189.31 342.735 189.31 337.174V330.834L187.655 329.007L185.974 327.207H182.664H179.353L175.138 322.828L170.948 318.476V314.93V311.357L170.095 310.981C167.431 309.826 166.785 306.226 168.853 304.077C171.75 301.041 176.509 303.755 175.759 307.999C175.552 309.154 174.466 310.524 173.353 310.981L172.5 311.357V314.823V318.261L176.224 322.049L179.974 325.864H183.285H186.595L188.741 328.094L190.862 330.297V336.69C190.862 340.183 190.888 343.057 190.94 343.057C191.276 343.057 193.888 342.171 194.043 341.983C194.172 341.875 194.405 340.827 194.586 339.672L194.922 337.55L194.043 336.583C193.164 335.616 193.138 335.589 193.164 333.091V330.565L189.776 327.019C186.776 323.903 186.31 323.5 185.871 323.769C184.94 324.279 182.922 324.091 181.94 323.419C180.931 322.694 180 321.002 180 319.82C180 318.638 180.983 316.811 181.914 316.193C183.181 315.414 185.276 315.441 186.491 316.3C188.121 317.455 188.767 319.927 187.888 321.673L187.474 322.479L190.991 326.133L194.483 329.759V332.338C194.483 334.219 194.586 335.025 194.845 335.24C195.388 335.696 196.035 331.586 196.035 327.745V324.655L194.948 324.118C192.155 322.748 192.078 318.557 194.793 317.106C195.543 316.703 197.353 316.676 198.595 317.026C198.828 317.106 199.06 316.811 199.216 316.247C199.422 315.548 199.397 315.279 199.009 314.85C198.569 314.366 198.207 314.312 194.121 314.312H189.724L188.121 312.674C186.672 311.169 186.491 311.062 185.948 311.357C185.095 311.841 182.819 311.572 181.888 310.874C179.56 309.154 179.845 305.044 182.405 303.647C183.569 303.029 185.457 303.11 186.569 303.808C187.552 304.453 188.535 306.253 188.535 307.408C188.535 307.811 188.353 308.59 188.147 309.128L187.733 310.122L188.974 311.411L190.19 312.701H194.586C198.31 312.701 199.035 312.781 199.448 313.157C199.707 313.399 199.966 313.533 199.991 313.48C200.043 313.426 200.405 312.405 200.793 311.223C202.086 307.408 203.405 304.722 205.5 301.767L205.914 301.149H204.285H202.629L201.026 302.788C199.422 304.399 199.422 304.426 199.836 305.098C200.379 305.958 200.379 307.757 199.836 308.859C198.853 310.82 195.828 311.518 194.224 310.122C192.052 308.187 192.181 305.098 194.535 303.54C195.233 303.083 195.672 303.029 196.966 303.137L198.543 303.271L200.328 301.391L202.086 299.537H206.664C210.879 299.537 211.241 299.564 211.681 300.074C212.043 300.477 212.483 300.612 213.466 300.612H214.785L214.629 295.722C214.526 293.009 214.371 283.606 214.267 274.822L214.086 258.838L219.026 253.733L223.966 248.629V244.197V239.764L226.5 237.131L229.009 234.525H235.216H241.448L243.336 236.513C245.121 238.394 245.276 238.501 246.181 238.367C249.129 237.964 251.172 241.376 249.491 243.955C247.552 246.964 243.362 245.513 243.362 241.859C243.362 241.295 243.543 240.543 243.776 240.194C244.19 239.603 244.164 239.549 242.56 237.857L240.931 236.137H235.216H229.526L227.379 238.367L225.259 240.57V245.002V249.435L220.371 254.539L215.483 259.643L215.741 279.523C216.026 298.919 216.026 299.43 216.543 300.021C216.905 300.424 217.371 300.612 217.966 300.612H218.871L218.328 299.994L217.759 299.376V279.631V259.912L222.543 254.942L227.328 249.972V245.674V241.349L228.957 239.683L230.586 238.018H234.104H237.621L239.483 239.119L241.319 240.221L241.267 242.37C241.216 244.358 241.267 244.519 241.94 245.271L242.69 246.077H258.207L273.75 246.05L274.681 244.653C275.198 243.874 276.621 242.101 277.81 240.704C279.026 239.28 280.138 237.883 280.293 237.561C280.836 236.513 280.655 234.982 279.828 233.639L279.052 232.376H270.957H262.888L260.819 230.227L258.75 228.078H253.319H247.888L243.414 223.43L238.966 218.81V216.258V213.706L235.991 210.616L233.017 207.527V194.202V180.85L231.983 179.776C231.052 178.836 230.948 178.567 230.948 177.412C230.948 174.403 233.431 172.684 235.836 174.027C237.052 174.699 237.724 176.069 237.595 177.492C237.44 179.024 236.793 179.964 235.578 180.501L234.569 180.931V193.96V206.989L237.543 210.079L240.517 213.168V215.72V218.272L244.474 222.383L248.457 226.52L253.862 226.466L259.267 226.439L261.233 228.615L263.224 230.764H270.414H277.604L276.724 229.824L275.845 228.884H270.259H264.698L262.371 226.466L260.043 224.048H255.905H251.767L249.802 222.007L247.836 219.965L246.776 220.287C245.871 220.583 245.612 220.556 244.759 220.126C241.707 218.568 242.017 214.189 245.198 213.303C247.371 212.685 249.31 214.431 249.31 216.956C249.31 218.246 249.362 218.353 251.069 220.099L252.828 221.899H256.94H261.078L263.276 224.183L265.474 226.466H270.026C274.267 226.466 274.604 226.439 274.733 225.956C274.785 225.687 275.457 224.962 276.207 224.344L277.552 223.242H272.56H267.543L264.931 220.529C262.422 217.923 262.293 217.816 261.983 218.38C261.828 218.702 261.31 219.213 260.871 219.481C258.026 221.308 254.612 217.789 256.164 214.646C256.81 213.356 257.767 212.765 259.216 212.765H260.535L264.44 216.795L268.345 220.825H274.371C281.095 220.825 280.578 220.959 281.638 218.863L282.155 217.869H278.379C274.655 217.869 274.604 217.869 274.086 218.541C273.802 218.917 273.233 219.401 272.845 219.616C270.026 221.12 266.845 217.574 268.397 214.646C269.741 212.094 273.129 212.094 274.397 214.646L274.914 215.72H278.664C282.957 215.72 282.905 215.774 281.871 213.276L281.328 211.959H279.75C278.612 211.959 278.043 211.825 277.681 211.503C277.216 211.046 275.948 211.019 260.198 210.939L243.233 210.885L241.112 208.682L238.966 206.452V182.543V158.607L237.104 156.699C235.629 155.222 234.983 154.765 234.207 154.604C232.086 154.228 231.052 152.052 231.983 150.01C232.94 147.969 235.345 147.539 236.897 149.151C237.879 150.145 238.112 151.461 237.569 152.616L237.129 153.503L239.224 155.679L241.293 157.828V181.871V205.942L242.819 207.339L244.371 208.736H260.922C277.319 208.736 277.474 208.736 278.405 209.3C278.922 209.622 279.388 209.837 279.44 209.756C279.491 209.703 279.181 209.085 278.716 208.386C277.914 207.178 277.836 207.151 276.569 207.124C275.509 207.124 275.147 206.989 274.655 206.452L274.035 205.781L273.491 206.318C272.121 207.634 269.793 207.5 268.604 206.049C266.354 203.255 268.94 199.011 272.198 200.139C273.181 200.461 274.397 201.805 274.397 202.53C274.397 203.148 276.336 205.082 276.698 204.84C277.345 204.437 275.845 199.414 274.733 198.205C274.06 197.479 273.931 197.453 271.552 197.453H269.095L265.345 201.348C263.276 203.497 261.466 205.243 261.31 205.243C261.129 205.243 260.922 205.431 260.845 205.673C260.767 205.888 260.172 206.318 259.526 206.613C258.078 207.285 256.655 206.989 255.672 205.781C253.578 203.175 255.672 199.145 258.776 199.763C259.681 199.924 261 200.999 261.259 201.751C261.362 202.046 262.371 201.16 264.75 198.715L268.06 195.303H271.345C274.578 195.303 274.604 195.303 274.759 194.659C274.836 194.309 274.991 193.826 275.069 193.584C275.198 193.208 274.759 193.154 270.983 193.154H266.767L264.44 195.572L262.112 197.99H257.328H252.517L250.862 199.736C249.233 201.429 249.207 201.482 249.285 202.799C249.388 204.975 248.379 206.345 246.44 206.721C244.629 207.043 242.586 205.109 242.586 203.094C242.586 201.778 243.491 200.408 244.759 199.763C245.741 199.253 245.819 199.253 247.06 199.709L248.354 200.193L250.19 198.285L252.026 196.378H256.94H261.854L264.052 194.095L266.25 191.811H271.422C275.509 191.784 276.698 191.704 277.086 191.408C277.578 191.032 279.233 190.414 280.681 190.092C281.172 189.957 281.379 189.743 281.379 189.366C281.379 188.641 282.905 187.056 283.81 186.814C284.224 186.707 284.974 186.761 285.491 186.949L286.422 187.244L292.966 180.448C296.535 176.74 299.483 173.543 299.483 173.355C299.483 173.194 299.354 172.711 299.224 172.308L298.94 171.555L294.491 176.176L290.043 180.797H287.457H284.871L281.121 184.692L277.371 188.587H269.948H262.5V189.581C262.5 192.456 259.371 194.068 257.224 192.322C255.052 190.548 255.44 187.352 257.948 186.062C258.931 185.552 259.035 185.552 260.198 185.982C261.207 186.358 262.552 186.438 268.862 186.438H276.336L280.086 182.543L283.836 178.648H286.422H289.009L293.483 174L297.957 169.326L297.517 168.359C297.259 167.821 297 167.365 296.922 167.365C296.819 167.365 294.957 169.245 292.759 171.529L288.75 175.693H285.672H282.569L278.276 180.125L273.983 184.558H270.104H266.224L264.698 182.946L263.172 181.334H256.448H249.724L248.741 180.34C247.759 179.346 247.759 179.346 247.009 179.803C244.759 181.173 241.81 179.373 241.81 176.633C241.81 175.021 243.285 173.302 244.836 173.087C246.879 172.791 248.535 174.403 248.535 176.687C248.535 177.815 248.664 178.11 249.388 178.863L250.241 179.722H256.966H263.69L265.216 181.334L266.741 182.946H270.259H273.75L277.888 178.648L282.026 174.349H285H287.974L292.086 170.078L296.172 165.833L295.759 164.974C295.526 164.517 295.241 164.141 295.138 164.141C295.035 164.141 293.043 166.129 290.69 168.573L286.422 173.006H280.991H275.535L274.681 173.919L273.828 174.833L274.345 175.639C275.147 176.794 275.302 178.325 274.733 179.454C272.871 183.188 267.647 181.683 268.009 177.492C268.164 175.558 269.741 174.081 271.604 174.081C272.302 174.081 272.716 173.812 273.75 172.737L275.017 171.394H280.474H285.905L290.147 166.988L294.362 162.61L293.767 161.642C293.431 161.105 293.095 160.649 293.017 160.649C292.94 160.649 290.974 162.636 288.621 165.081L284.354 169.514H277.785H271.19L267.414 173.409L263.612 177.304H259.759H255.905L251.379 172.576C248.897 169.997 246.414 167.633 245.871 167.338C244.785 166.747 243.879 165.43 243.879 164.463C243.879 163.442 244.655 161.992 245.457 161.589C245.845 161.374 246.647 161.186 247.216 161.186C249.75 161.186 251.147 164.598 249.388 166.612C248.974 167.096 249.078 167.257 252.672 170.991L256.422 174.887H259.655H262.888L266.509 171.126L270.129 167.365H276.724H283.319L287.535 162.986L291.724 158.634L291.026 157.613L290.328 156.592L286.422 160.649L282.491 164.705L275.56 164.678L268.629 164.651L265.241 168.144L261.854 171.663H258.724H255.621L253.629 169.702L251.638 167.768V161.159V154.577L250.888 153.825L250.112 153.046L249.31 153.771C247.81 155.088 245.922 155.034 244.81 153.664C243.517 152.052 243.621 150.44 245.069 149.124C245.793 148.452 246.207 148.291 247.138 148.291C248.147 148.291 248.457 148.425 249.207 149.204C249.698 149.715 250.086 150.279 250.086 150.494C250.086 150.682 250.785 151.568 251.638 152.455L253.19 154.04V160.649V167.257L254.56 168.654L255.931 170.051H258.698H261.466L264.75 166.559L268.009 163.066H275.017H282.026L285.75 159.198L289.474 155.329L288.983 154.631C288.698 154.255 288.44 153.932 288.362 153.932C288.285 153.932 286.785 155.437 285 157.29L281.767 160.649H273.362H264.931L263.948 161.696C263.095 162.61 262.991 162.825 263.147 163.684C263.354 164.839 262.759 166.317 261.776 166.988C260.897 167.58 259.19 167.58 258.31 166.988C257.431 166.397 256.759 164.678 256.991 163.604C257.224 162.395 258.466 161.213 259.733 160.998C260.586 160.863 261.155 160.487 262.397 159.252L263.974 157.693H272.224H280.474L283.5 154.55L286.526 151.407L285.983 150.628L285.44 149.849L282.569 152.831L279.698 155.813H270.026C260.56 155.813 260.328 155.813 259.216 155.222C257.147 154.147 256.448 152.455 257.328 150.574C258.104 148.909 259.707 148.345 261.44 149.097C262.371 149.5 262.914 150.306 263.147 151.622L263.328 152.589H271.009H278.664L281.095 150.064C283.552 147.485 283.604 147.404 282.724 146.33C282.362 145.9 282.155 146.034 279.828 148.425L277.319 150.977H271.655H265.991L261.724 146.545L257.457 142.112H249.052H240.621L239.354 143.455L238.086 144.799H233.922H229.759L228.285 143.24L226.81 141.682V137.008V132.307L229.216 129.808L231.647 127.31L231.129 126.235C230.69 125.295 230.664 125 230.922 124.113C231.854 120.916 235.991 120.889 236.922 124.086C237.491 126.047 235.888 128.143 233.793 128.143C232.991 128.143 232.604 128.438 230.612 130.507L228.362 132.844V137.008V141.145L229.448 142.3L230.535 143.455H233.922H237.31L238.707 141.978L240.104 140.5H249.052H257.974L262.241 144.933L266.509 149.366H271.681H276.854L279.155 146.975L281.431 144.611L280.785 143.858L280.164 143.079L277.991 145.416L275.845 147.754H271.707H267.569L263.017 143.052L258.466 138.351H247.578H236.69L236.172 139.265C234.776 141.709 231.078 140.85 230.535 137.948C230.147 135.772 232.448 133.65 234.44 134.321C235.371 134.644 236.638 135.96 236.638 136.632C236.638 136.954 238.345 137.008 247.966 137.008H259.267L263.664 141.575L268.06 146.142H271.681H275.302L277.319 144.046C279.181 142.112 279.285 141.924 278.948 141.441C278.586 140.93 278.483 140.984 276.543 142.972L274.526 145.067H271.681H268.836L266.69 142.837L264.569 140.635V137.518V134.429L263.328 133.166L262.086 131.904H257.586H253.06L250.81 129.567C248.586 127.256 248.56 127.256 247.785 127.605C246.233 128.277 244.526 127.579 243.724 125.94C243.259 125 243.259 124.274 243.776 123.146C244.293 122.018 245.302 121.427 246.75 121.427C247.629 121.427 247.966 121.588 248.716 122.367C249.517 123.2 249.595 123.415 249.543 124.65L249.466 126.02L251.509 128.143L253.578 130.292H258.104H262.655L264.388 132.119L266.121 133.945V137.035V140.124L267.879 141.924L269.638 143.724H271.707H273.776L275.664 141.736L277.578 139.748L276.31 138.056L275.043 136.39L274.914 137.572C274.707 139.157 274.319 139.802 273.259 140.339C272.172 140.876 271.785 140.876 270.647 140.393C269.612 139.936 268.707 138.566 268.707 137.465C268.707 135.396 270.724 133.757 272.586 134.321C273.026 134.456 273.362 134.483 273.362 134.402C273.362 134.348 272.948 133.73 272.431 133.086C271.552 131.957 271.422 131.904 270.155 131.904H268.836L265.733 128.68C264.026 126.907 262.5 125.456 262.319 125.456C262.138 125.456 261.828 125.806 261.595 126.262C260.535 128.384 257.224 128.384 256.164 126.262C255.517 124.946 255.672 123.683 256.629 122.636C258.078 120.97 260.483 121.158 261.569 123.038C261.854 123.549 262.216 123.844 262.578 123.844C262.966 123.844 264.207 124.919 266.379 127.202C269.147 130.077 270.259 131.017 270.259 130.426C270.259 130.346 269.017 128.626 267.491 126.585C265.94 124.57 263.897 121.776 262.914 120.406L261.155 117.934H248.172H235.216L228.75 111.218L222.285 104.502H220.216H218.147L212.405 110.466L206.638 116.457V123.629V130.829H209.095H211.552V137.948V145.04L209.172 145.121L206.767 145.202L206.69 153.61C206.664 158.258 206.716 161.992 206.819 161.938C208.707 160.944 209.095 160.863 210.129 161.213C210.75 161.454 211.371 161.938 211.733 162.502C213.828 165.753 209.483 169.272 206.897 166.424C206.379 165.833 206.069 165.753 204.647 165.753H203.017V155.41V145.067H198.233H193.448V157.076V169.111L196.241 172.12L199.035 175.155H210.802H222.569L224.302 176.982L226.035 178.809V192.16V205.512H224.224H222.388L222.466 207.983L222.543 210.482L225.569 212.658L228.621 214.861L229.655 214.323C232.966 212.604 236.043 217.01 233.638 220.019C232.267 221.684 229.733 221.604 228.44 219.831C227.871 219.052 227.741 218.622 227.741 217.44L227.767 216.016L224.457 213.679L221.121 211.315V208.413V205.512H219.31H217.5L217.448 199.145L217.371 192.778L214.655 192.026L211.94 191.274L209.302 194.014L206.638 196.781V213.034V229.287L202.888 233.182L199.138 237.077V240.489V243.928H196.81H194.483V239.415V234.928L196.681 232.645C197.897 231.382 198.879 230.308 198.879 230.227C198.879 230.146 197.974 230.093 196.888 230.093H194.871L194.793 223.484L194.741 216.876L193.035 216.392L191.328 215.908L187.862 219.508L184.397 223.108V231.302V239.522L182.897 241.053L181.397 242.585H131.948H82.5V229.932V217.252L79.8621 214.485L77.2242 211.691H59.1724H41.1207V197.99V184.289H41.7931H42.4655L42.3362 181.522C42.2587 180.018 42.1035 178.379 42.0259 177.895C41.7673 176.633 42.4914 174.779 43.6552 173.866C44.9224 172.872 47.2759 172.818 48.5949 173.785C50.069 174.887 50.5087 176.364 50.638 180.582L50.7414 184.289H51.75C52.7069 184.289 52.7328 184.316 52.8621 185.417C52.9397 186.062 53.0431 190.119 53.1207 194.444C53.1724 198.796 53.3018 202.396 53.4052 202.503C53.4828 202.584 55.6552 200.488 58.1897 197.856L62.8449 193.02V169.782V146.545L66.7242 142.515L70.6035 138.485V136.148V133.784H63.4914H56.3793V131.366V128.949H50.6897H45.0259L44.1207 128.116C43.0087 127.122 42.7242 125.94 43.2931 124.57C44.0173 122.743 44.6121 122.582 49.8362 122.716L54.4397 122.824L55.8621 121.319L57.2586 119.815H85.1121H112.966L113.25 118.982C113.405 118.498 113.535 117.961 113.535 117.773C113.535 117.316 109.966 115.221 108.931 115.087C106.552 114.764 105.336 112.293 106.552 110.224C107.379 108.774 108.181 108.532 111.905 108.532H115.216L117.75 111.164L120.259 113.77V116.672V119.546H121.681H123.103V126.934V134.321H116.095C112.241 134.321 109.138 134.402 109.19 134.51C109.241 134.644 109.448 135.047 109.629 135.45L109.991 136.202H118.112H126.207V126.88V117.531L128.353 119.761L130.474 121.964H148.112H165.724L168.491 120.271L171.233 118.606L162.828 118.525L154.397 118.472V116.725V114.979H150.129H145.862V111.89V108.8H149.147H152.457L154.319 106.866L156.207 104.932V101.278V97.6517L160.086 93.6221L163.966 89.5924V86.6373V83.6823L159.698 79.2496L155.431 74.817V37.8517V0.88646L154.241 0.69841C153.569 0.617817 152.457 0.537224 151.785 0.537224H150.517V16.1454V31.7804L152.069 34.5743L153.621 37.3951V52.4659V67.5637L151.5 69.7665L149.405 71.9694L149.379 73.447C149.353 75.1394 148.707 76.0797 147.233 76.5632C146.017 76.993 144.983 76.6707 144.052 75.5961C142.552 73.7962 143.276 71.1366 145.5 70.3844C145.991 70.1964 146.483 70.1426 146.586 70.2232C146.664 70.3307 147.647 69.471 148.759 68.3159L150.776 66.2205V52.2242V38.201L149.224 35.4071L147.672 32.6401V16.4946V0.349174L146.198 0.187988C145.397 0.107395 144.647 0.0805311 144.517 0.161124C144.414 0.241717 144.31 8.8383 144.31 19.2616V38.2278L145.345 40.1621C146.121 41.6396 146.379 42.3918 146.379 43.3589C146.379 44.2992 146.483 44.5947 146.767 44.5947C147.517 44.5947 148.707 45.4006 149.095 46.2065C150.543 49.1079 147.621 52.1436 144.828 50.6392C142.94 49.6183 142.785 46.126 144.569 45.132C145.474 44.6216 145.267 42.9022 144.052 40.8068L143.017 39.0069V19.5034V-6.18213e-05H141.724H140.431V25.1987V50.3974L144.259 54.3464C146.379 56.5224 148.241 58.2955 148.397 58.2955C148.888 58.2955 149.741 59.9611 149.741 60.9282C149.741 63.4534 146.974 65.0384 144.983 63.6952C144 63.0236 143.56 62.1639 143.535 60.9819C143.535 59.8536 144.31 58.4029 145.086 58.1612C145.603 58 145.293 57.597 142.267 54.427L138.879 50.8541V25.4404V-6.18213e-05H137.457H136.035V19.5303V39.0606L134.948 40.2158L133.862 41.371L134.224 42.7679C134.431 43.7082 134.845 44.4335 135.414 44.9977C137.612 47.1737 136.293 50.5048 133.241 50.5048C132.285 50.5048 131.948 50.3437 131.224 49.5915C130.5 48.8393 130.345 48.4632 130.345 47.5766C130.345 46.0454 130.914 45.0245 132.026 44.4604C132.802 44.0843 132.957 43.8962 132.828 43.4395C132.724 43.1172 132.595 42.365 132.517 41.7739C132.388 40.78 132.466 40.6188 133.422 39.6248L134.483 38.5771V19.2885V-6.18213e-05H133.19H131.897V19.8527ZM110.353 83.6554C111.466 84.918 111.543 86.5836 110.535 87.8194C108.543 90.264 104.741 88.6522 105.078 85.4822C105.388 82.5808 108.491 81.5331 110.353 83.6554ZM147.957 83.0912C149.56 84.2195 149.922 85.9926 148.888 87.6044C147.75 89.3775 145.293 89.485 143.948 87.8194C142.707 86.315 143.224 83.7629 144.931 82.9032C146.069 82.3122 146.948 82.3659 147.957 83.0912ZM59.3535 109.66C61.5776 111.782 60.2328 115.248 57.2069 115.248C54.2328 115.248 53.0949 111.138 55.5776 109.418C56.8966 108.505 58.2414 108.585 59.3535 109.66ZM72.2845 109.606C74.3793 111.648 73.0604 115.248 70.2155 115.248C68.1466 115.248 66.5949 113.099 67.2414 111.111C67.5259 110.224 68.3018 109.284 69.0518 108.988C69.8535 108.639 71.6638 109.015 72.2845 109.606ZM83.6638 109.069C84.9052 109.553 85.6035 110.627 85.6035 112.024C85.6035 115.006 82.5 116.457 80.4311 114.442C78.9311 112.991 79.2155 110.466 81 109.338C81.9569 108.747 82.6552 108.666 83.6638 109.069ZM97.6552 109.633C99.7242 111.648 98.3535 115.248 95.5345 115.248C93.4914 115.248 91.9397 113.099 92.5862 111.111C92.8707 110.224 93.6466 109.284 94.3966 108.988C95.1983 108.639 97.0087 109.015 97.6552 109.633ZM35.9224 110.305C36.6983 111.191 36.7759 111.379 36.6724 112.588C36.388 115.678 33.0776 116.752 31.1638 114.415C29.9224 112.857 30.5949 110.144 32.4311 109.311C33.5173 108.827 34.9914 109.23 35.9224 110.305ZM223.733 122.152C225.388 123.173 225.672 125.644 224.328 127.095C223.06 128.465 221.121 128.465 219.802 127.068C219.155 126.423 219.052 126.074 219.052 124.919C219.052 123.683 219.155 123.415 219.931 122.609C220.655 121.856 221.017 121.695 221.897 121.695C222.491 121.695 223.319 121.91 223.733 122.152ZM35.8707 123.2C37.5259 124.274 37.7069 126.826 36.2328 128.196C34.7587 129.567 33.3362 129.513 31.888 128.008C31.1638 127.256 31.0345 126.934 31.0345 125.913C31.0345 123.28 33.6983 121.803 35.8707 123.2ZM223.526 134.778C224.302 135.181 225 136.551 225 137.599C225 138.539 224.069 139.936 223.086 140.393C221.405 141.252 219.569 140.393 218.948 138.512C218.354 136.712 219.259 134.859 220.966 134.348C221.845 134.08 222.414 134.187 223.526 134.778ZM47.4828 135.101C49.5259 136.068 49.9138 139.076 48.2069 140.473C45.5431 142.649 41.8966 139.748 43.3449 136.605C43.6552 135.906 44.1207 135.45 44.8449 135.101C46.138 134.483 46.1897 134.483 47.4828 135.101ZM35.6897 135.262C36.1035 135.504 36.6207 136.041 36.8535 136.471C37.9655 138.727 36.5173 141.306 34.138 141.306C31.7587 141.306 30.3104 138.727 31.4224 136.471C32.1724 134.993 34.138 134.429 35.6897 135.262ZM47.8966 149.339C48.9311 149.93 49.5518 151.703 49.138 152.965C48.5949 154.712 46.8362 155.598 45.1293 155.007C42.4655 154.094 42.2845 150.279 44.8449 149.07C45.9828 148.56 46.7069 148.613 47.8966 149.339ZM35.6897 149.231C36.1035 149.473 36.6207 150.01 36.8535 150.44C37.9655 152.697 36.5173 155.276 34.138 155.276C31.7587 155.276 30.3104 152.697 31.4224 150.44C32.1724 148.963 34.138 148.398 35.6897 149.231ZM223.707 161.696C224.069 161.965 224.509 162.663 224.716 163.254C225.466 165.43 224.017 167.445 221.767 167.445C220.785 167.445 220.422 167.311 219.802 166.666C218.767 165.592 218.509 164.49 218.948 163.201C219.647 161.078 221.948 160.353 223.707 161.696ZM236.56 161.589C236.922 161.831 237.362 162.475 237.595 162.986C238.888 166.263 234.931 169.03 232.526 166.532C229.836 163.738 233.354 159.413 236.56 161.589ZM22.9397 175.021C23.7931 175.612 24.388 177.17 24.1811 178.272C24.1035 178.755 23.6897 179.507 23.2759 179.937C21.9828 181.307 20.1724 181.28 18.8793 179.937C16.1897 177.17 19.7586 172.845 22.9397 175.021ZM47.5862 226.251C48.9052 226.976 49.6552 228.239 49.6552 229.77C49.6552 233.451 45.3362 235.036 42.9569 232.242C42.2845 231.436 42.1552 231.06 42.1552 229.932C42.1552 228.373 42.6466 227.245 43.6293 226.52C44.9742 225.526 46.0604 225.445 47.5862 226.251ZM63.8793 226.278C67.0862 228.051 66.3621 233.021 62.7931 233.612C61.5 233.854 60.6983 233.585 59.6121 232.618C56.9742 230.2 58.6035 225.848 62.2242 225.687C62.5087 225.66 63.2587 225.929 63.8793 226.278ZM64.0862 239.63C66.4397 241.107 66.569 244.25 64.3966 246.184C63.75 246.749 63.3104 246.883 62.25 246.883C60.5173 246.883 59.3535 246.158 58.7069 244.653C58.0862 243.256 58.0862 242.88 58.6035 241.51C59.4569 239.307 62.1207 238.394 64.0862 239.63ZM211.241 265.419C212.121 265.983 213.104 267.757 213.104 268.777C213.104 269.798 212.121 271.571 211.241 272.135C209.379 273.317 206.767 272.538 205.81 270.524C204.103 267.031 208.009 263.378 211.241 265.419ZM148.19 277.455C150.957 278.878 150.957 283.015 148.19 284.52C145.707 285.89 142.759 283.983 142.759 281.001C142.759 278.825 144.491 276.971 146.509 276.971C146.948 276.971 147.698 277.186 148.19 277.455ZM61.0345 278.019C63.8018 279.523 63.8018 283.66 61.0345 285.084C58.5 286.427 55.6035 284.52 55.6035 281.538C55.6035 279.416 57.3621 277.508 59.3535 277.508C59.7931 277.508 60.5431 277.723 61.0345 278.019ZM73.1121 278.019C75.8276 279.308 75.9311 283.392 73.2931 284.95C71.6897 285.917 70.138 285.675 68.7155 284.278C66.8018 282.371 67.5518 278.851 70.0862 277.804C71.069 277.401 71.9224 277.455 73.1121 278.019ZM86.0949 278.234C87.3104 279.201 87.8018 280.141 87.8018 281.538C87.8018 283.553 86.3793 285.218 84.388 285.487C82.319 285.782 80.1724 283.741 80.1724 281.511C80.1724 278.529 83.8449 276.514 86.0949 278.234ZM97.5 278.019C100.267 279.523 100.267 283.553 97.5 285.057C95.0173 286.454 92.069 284.547 92.069 281.538C92.069 278.529 95.0173 276.622 97.5 278.019ZM134.741 277.992C136.035 278.663 136.81 280.007 136.81 281.538C136.81 283.069 136.035 284.412 134.741 285.084C132.207 286.427 129.31 284.52 129.31 281.538C129.31 278.583 132.233 276.675 134.741 277.992ZM47.8449 291.263C51.9311 293.466 49.319 299.994 44.9483 298.489C40.8621 297.092 41.8449 290.887 46.1638 290.699C46.4742 290.672 47.2242 290.94 47.8449 291.263ZM60.9569 291.209C63.8018 292.525 63.8535 296.797 61.0345 298.248C58.5259 299.564 55.6035 297.683 55.6035 294.782C55.6035 293.358 56.1207 292.257 57.0776 291.531C58.3966 290.564 59.4569 290.484 60.9569 291.209ZM73.1121 291.236C77.0431 293.224 75.0259 299.456 70.7328 298.624C67.7845 298.033 66.5949 294.057 68.7414 291.934C70.0604 290.618 71.4569 290.403 73.1121 291.236ZM86.0949 291.397C87.8276 292.767 88.319 294.54 87.4397 296.394C86.069 299.322 82.2931 299.483 80.7673 296.689C80.0431 295.373 80.0173 294.379 80.7155 292.928C81.6724 290.833 84.3621 290.081 86.0949 291.397ZM97.6811 303.862C99.5431 304.587 100.603 306.683 100.086 308.644C99.75 309.933 98.3793 311.277 97.1121 311.518C95.8449 311.76 94.0345 311.008 93.3104 309.933C92.4828 308.751 92.4828 306.468 93.2845 305.286C94.2931 303.808 96.0776 303.217 97.6811 303.862Z" fill="#505962"/>
<path d="M159.828 37.2608V73.2053L164.095 77.6379L168.362 82.0705V86.7718V91.473L164.483 95.5027L160.603 99.5323V102.272V105.039H174.647H188.664L191.069 107.538L193.448 110.009V120.433V130.829H198.233H203.017V122.824V114.845L209.819 107.78L216.595 100.741H220.216H223.836L230.302 107.457L236.767 114.173H247.707C258.466 114.173 258.647 114.173 258.362 113.663C258.155 113.26 258.233 112.803 258.621 111.782L259.138 110.412H250.397H241.681L237.414 105.98C235.06 103.535 232.991 101.547 232.81 101.547C232.604 101.547 232.06 101.144 231.595 100.661C230.147 99.1562 230.095 97.6787 231.414 96.1474C232.707 94.643 235.19 94.8579 236.276 96.5772C236.741 97.3294 236.819 99.1025 236.405 99.8815C236.198 100.311 236.638 100.902 239.56 103.911L242.974 107.457H251.431C256.578 107.457 259.94 107.35 260.043 107.189C260.121 107.054 260.354 105.872 260.535 104.583C260.922 101.816 260.767 101.413 259.5 101.681C258.491 101.87 257.172 101.359 256.422 100.473C255.647 99.5592 255.698 97.2488 256.526 96.3355C257.405 95.3683 258.672 94.9654 259.707 95.3415C260.147 95.5027 260.535 95.637 260.56 95.637C260.664 95.637 260.198 92.9506 260.043 92.6819C259.966 92.5207 258.724 92.4133 257.25 92.4133H254.612L252.078 95.046C249.776 97.4369 249.569 97.7593 249.569 98.6995C249.569 99.5054 249.388 99.9084 248.69 100.634C247.94 101.413 247.629 101.547 246.621 101.547C244.448 101.547 242.819 99.2637 243.621 97.2757C244.371 95.3415 246.466 94.5624 248.095 95.5833L249 96.1205L251.405 93.5953L253.836 91.07H256.862H259.914L259.759 90.3178C259.681 89.9149 259.578 89.4582 259.526 89.297C259.474 89.1358 259.035 88.9209 258.517 88.8134C256.629 88.4373 255.44 86.5837 255.905 84.7032C255.983 84.3002 256.474 83.5749 256.966 83.0914C257.741 82.3391 257.871 82.0705 257.716 81.3989L257.535 80.593H255.543H253.578L251.56 82.6884C249.802 84.5152 249.569 84.8913 249.569 85.7509C249.569 87.5777 247.655 89.0821 245.845 88.7329C244.862 88.5179 243.672 87.2016 243.466 86.0464C243.233 84.7301 243.957 83.3331 245.224 82.6078C246.052 82.1511 246.31 82.1242 247.293 82.3929L248.405 82.7152L250.474 80.5661L252.543 78.4438H254.69C257.198 78.4438 257.121 79.008 255.336 73.9306L254.172 70.6532H252.698H251.25L244.241 77.9603C238.422 84.0585 237.181 85.4823 236.948 86.3957C236.25 88.9478 233.457 89.8612 231.724 88.0881C230.276 86.5837 230.535 84.1122 232.293 83.0108C233.302 82.366 234.181 82.3391 235.19 82.9033L235.966 83.3063L243.233 75.7574L250.474 68.2354H251.845H253.19L251.198 64.0983L249.207 59.9612L248.767 60.982C247.991 62.7819 245.897 63.3998 244.216 62.3252C243.052 61.5999 242.767 60.8746 242.922 59.2358L243.052 57.8389L240.621 55.3137L238.19 52.7884V47.9528L238.164 43.1173L236.897 41.6397L235.629 40.1622L235.604 45.1321V50.102L232.5 53.3257L229.397 56.5494V61.3581V66.1937L220.422 75.5156C211.5 84.7838 211.448 84.8644 211.5 85.8852C211.733 88.9478 207.931 90.479 206.017 88.0881C204.983 86.8255 205.086 85.1868 206.224 83.8704C207.078 82.9302 207.207 82.8764 208.681 82.8764H210.259L218.664 74.1455L227.069 65.4146V60.5791V55.7435L230.302 52.3854L233.535 49.0274V43.3859V37.7175L232.241 36.4012L230.948 35.0848V41.8009V48.4901L227.069 52.5198C223.422 56.3076 223.19 56.6031 223.19 57.5703C223.19 58.215 223.371 58.806 223.707 59.1553C225.931 61.6536 222.828 65.6833 219.879 64.0983C217.707 62.9163 217.81 59.2627 220.06 58.2956C220.785 58.0001 220.862 57.8389 220.862 56.8449C220.862 55.7703 220.991 55.6092 224.871 51.5795L228.879 47.4156V40.2696V33.1237L228.233 32.5059L227.586 31.888V37.0997V42.3382L225.672 44.2993C223.862 46.1798 223.759 46.3141 224.017 47.0663C224.922 49.7527 222.052 52.2511 219.569 50.9079C218.483 50.3169 218.017 49.4841 218.017 48.0872C218.017 46.1529 219.285 44.8634 221.172 44.8634C221.897 44.8634 222.31 44.5679 223.655 43.171L225.259 41.4785V35.5953V29.6851L223.112 27.9121C220.293 25.548 217.397 23.372 217.06 23.372C216.931 23.372 216.569 23.6406 216.259 23.9899L215.69 24.6078V39.4906V54.4003L213.44 56.7375C211.319 58.9672 211.216 59.1015 211.5 59.7731C212.198 61.3313 211.655 63.1849 210.259 64.0446C208.267 65.2535 205.604 63.6416 205.604 61.2507C205.604 59.5314 206.948 58.027 208.5 58.027C208.914 58.027 209.819 57.2748 211.371 55.6629L213.621 53.3257V38.416V23.5332L214.422 22.6735L215.198 21.8407L213.931 20.9811C213.233 20.5244 212.56 20.1483 212.431 20.1483C212.302 20.1483 211.448 20.9005 210.569 21.8407L208.966 23.5332V34.1177V44.7291L209.819 45.2127C212.716 46.8514 211.707 51.3109 208.448 51.3109C206.69 51.3109 205.345 49.8871 205.345 48.0334C205.345 47.12 206.172 45.4007 206.638 45.4007C206.819 45.4007 206.897 41.5054 206.897 33.9028V22.4049L208.578 20.6856C209.509 19.7453 210.259 18.8857 210.259 18.8051C210.259 18.7245 209.612 18.2678 208.81 17.7574L207.362 16.844L205.319 18.9662L203.276 21.0885V43.9232V66.731L205.112 68.6652C206.922 70.5726 207.026 70.6263 208.216 70.5994C210.336 70.5457 211.733 72.1038 211.474 74.2261C211.112 77.02 207.931 77.9871 206.121 75.838C205.371 74.9783 205.293 74.7366 205.397 73.5814L205.526 72.3188L203.224 69.9278L200.948 67.5638V43.9232V20.2826L203.017 18.1335C204.155 16.9514 205.086 15.9037 205.086 15.7694C205.086 15.6351 203.897 14.9635 202.448 14.2381L199.785 12.9218L198.44 14.3187L197.069 15.6888V30.2224V44.7828L197.716 45.4007C199.009 46.6633 198.75 49.2961 197.224 50.2632C196.759 50.5587 195.957 50.7736 195.31 50.7736C194.354 50.7736 194.017 50.6124 193.293 49.8602C192.569 49.108 192.414 48.7588 192.414 47.7917C192.414 46.341 193.19 44.944 194.095 44.7023L194.741 44.5411V29.7388V14.9366L196.19 13.4053L197.638 11.9009L195.388 10.907C194.147 10.3697 193.009 9.93984 192.828 9.93984C192.672 9.93984 191.922 10.5846 191.172 11.3637L189.828 12.7875V31.1626V49.5647L193.862 53.7287C198.776 58.806 199.552 60.203 198.491 62.3252C197.483 64.3401 194.354 64.4475 193.086 62.5402C192.259 61.3044 192.776 58.6717 193.991 58.0001C194.509 57.7314 194.354 57.4897 191.147 54.1585L187.759 50.6393V31.1626V11.7129L189.078 10.3159L190.397 8.919L188.897 8.32798C188.069 8.00561 187.06 7.68324 186.672 7.60265L185.948 7.44146V29.712V51.9825L188.147 54.4003L190.319 56.8181L190.345 62.1103V67.3757L192.647 68.7458C193.888 69.498 195.233 70.1159 195.621 70.1159C197.379 70.1159 198.828 71.9427 198.517 73.8232C198.207 75.8917 195.802 77.1543 194.017 76.1872C192.854 75.5693 192.31 74.3605 192.491 72.668L192.621 71.2979L190.448 70.0084L188.276 68.7189V63.2118V57.6777L186.078 55.3674L183.879 53.0302V29.8732V6.71613L183.181 6.42062C182.767 6.25943 182.147 6.07138 181.759 5.99079L181.035 5.8296V29.0135V52.1974L182.716 55.2062L184.397 58.215V64.9042V71.6203L189.905 77.3155C193.785 81.3183 195.595 83.0108 195.983 83.0108C197.276 83.0108 198.621 84.5958 198.621 86.1002C198.621 87.6851 196.991 89.4582 195.569 89.4582C194.586 89.4582 193.19 88.6523 192.802 87.8195C192.285 86.8255 192.31 85.1599 192.828 84.4077C193.216 83.8167 193.086 83.6824 187.785 78.2289L182.328 72.668V65.8445V59.0209L180.647 55.9853L178.966 52.9496V29.0135C178.966 5.29232 178.966 5.10427 178.448 5.10427C177.931 5.10427 177.931 5.29232 177.931 36.4818V67.8593L175.991 69.8472C174.078 71.8352 174.052 71.8621 174.052 73.2321C174.052 74.3873 173.922 74.7634 173.328 75.435C170.845 78.1752 166.707 75.2738 168.233 71.8889C168.802 70.6532 169.862 70.0622 171.362 70.1428C172.448 70.2233 172.578 70.1428 174.181 68.504L175.862 66.7847V35.5684V4.35207L174.724 4.05656C174.078 3.89537 173.509 3.76105 173.431 3.76105C173.354 3.76105 173.276 13.1636 173.276 24.6346C173.302 42.58 173.354 45.6156 173.664 46.0455C173.871 46.341 174.052 47.12 174.052 47.7648C174.052 48.7588 173.897 49.108 173.172 49.8602C172.448 50.6124 172.086 50.7736 171.233 50.7736C168.491 50.7736 167.017 48.3021 168.362 45.9917C168.879 45.1321 168.879 44.6217 168.879 23.9361V2.76707L167.922 2.57902C167.379 2.49843 166.681 2.41784 166.371 2.41784H165.776V27.6166V52.7884L168.052 55.1525C169.966 57.1404 170.431 57.4897 171.155 57.4897C173.043 57.4897 174.31 58.8329 174.31 60.8746C174.31 61.9223 174.181 62.2446 173.431 63.0237C172.707 63.7759 172.345 63.9371 171.466 63.9371C169.422 63.9371 167.871 62.2446 168.181 60.3104C168.31 59.5045 168.129 59.2627 165.621 56.6569L162.931 53.863V27.8852C162.931 13.5934 162.853 1.85369 162.75 1.79996C162.621 1.71936 161.922 1.58504 161.198 1.47759L159.828 1.28954V37.2608ZM173.302 95.7176C175.81 97.4638 174.621 101.547 171.569 101.547C170.638 101.547 170.25 101.386 169.5 100.661C168.259 99.5054 168.052 98.0548 168.931 96.7116C170.043 95.0191 171.75 94.6161 173.302 95.7176ZM185.922 95.4758C186.983 96.0668 187.5 97.0608 187.5 98.4846C187.5 99.5323 187.371 99.8547 186.621 100.634C185.897 101.386 185.535 101.547 184.681 101.547C182.483 101.547 181.112 100.043 181.371 97.9742C181.655 95.7176 183.983 94.455 185.922 95.4758ZM197.948 95.4758C199.345 96.0668 199.991 97.1682 199.836 98.6726C199.578 101.708 196.267 102.783 194.354 100.446C193.06 98.8338 193.707 96.3623 195.621 95.4758C196.655 95.0191 196.888 95.0191 197.948 95.4758ZM211.293 95.5027C212.716 96.2549 213.336 98.807 212.431 100.15C211.914 100.929 210.724 101.547 209.741 101.547C207.155 101.547 205.681 98.4577 207.336 96.4429C208.422 95.0728 209.871 94.7505 211.293 95.5027Z" fill="#505962"/>
<path d="M240.517 49.1617V51.9824L242.69 54.239C244.733 56.3613 244.914 56.4688 246.052 56.5225C246.698 56.5494 247.241 56.5225 247.241 56.4419C247.241 56.227 241.914 48.0602 241.19 47.1468L240.543 46.3409L240.517 49.1617Z" fill="#505962"/>
<path d="M294.44 182.167L289.009 187.862L291.569 186.465C295.422 184.343 296.897 183.188 298.526 180.985C299.353 179.857 300.181 177.439 299.948 176.767C299.922 176.633 297.414 179.051 294.44 182.167Z" fill="#505962"/>
<path d="M229.836 240.919L228.621 242.209V246.48V250.778L223.836 255.748L219.052 260.718V279.657V298.624L220.035 299.618C220.888 300.504 221.172 300.612 222.285 300.612H223.552L221.948 298.919L220.345 297.227V282.344V267.434L223.086 264.587L225.828 261.712L225.517 260.718C225.078 259.294 225.336 257.736 226.19 256.796C227.716 255.13 229.707 255.211 231.207 256.984C232.707 258.757 232.06 261.605 229.914 262.599C229.086 263.002 228.698 263.028 228 262.814C227.121 262.545 227.121 262.545 224.379 265.393L221.638 268.24V282.344V296.448L223.655 298.543L225.647 300.612H227.328H229.009L226.603 298.113L224.224 295.642V283.284V270.927L232.966 261.846L241.681 252.793H256.629C264.828 252.793 271.552 252.713 271.552 252.578C271.552 252.471 271.629 252.122 271.707 251.772L271.862 251.181H256.009H240.155L238.422 249.408L236.69 247.608L235.552 248.199C234.207 248.871 233.819 248.898 232.629 248.387C231.466 247.877 230.69 246.534 230.69 245.056C230.69 243.525 231.336 242.424 232.629 241.779C234.957 240.624 237.414 242.397 237.414 245.244C237.414 246.185 237.595 246.534 238.991 248.092L240.569 249.838H256.293H272.017L272.276 249.086C272.405 248.683 272.612 248.146 272.716 247.877C272.897 247.447 272.069 247.42 257.431 247.42H241.966L240.853 246.292L239.741 245.164V243.095V241.027L238.603 240.328C237.543 239.683 237.233 239.63 234.259 239.63H231.052L229.836 240.919Z" fill="#505962"/>
<path d="M233.871 262.814L225.517 271.491V283.177V294.836L228.31 297.737L231.078 300.612H232.836H234.569V294.191V287.744L235.474 286.132L236.379 284.547V276.38V268.24L240.724 263.727L245.043 259.241H259.112H273.155L273 258.623C272.923 258.3 272.845 257.951 272.845 257.817C272.845 257.709 266.405 257.629 258.543 257.629H244.267L237.983 264.157L231.724 270.658V274.311V277.938L232.655 278.395C234.466 279.308 235.035 282.129 233.767 283.795C231.854 286.347 228.362 285.38 227.716 282.156C227.457 280.84 228.362 278.986 229.5 278.395L230.431 277.938V274.043V270.121L237.233 263.055L244.009 256.017H258.052C273.233 256.017 272.535 256.097 271.81 254.647C271.552 254.163 271.112 254.136 256.862 254.136H242.198L233.871 262.814Z" fill="#505962"/>
<path d="M241.603 264.963L237.672 269.046V277.078V285.111L236.767 286.803L235.862 288.496L235.914 294.487L235.991 300.477H236.767H237.543L237.621 294.003L237.672 287.556L238.836 286.374L240 285.192V281.269L240.026 277.374L241.94 276.219L243.879 275.091H255.181H266.483L268.19 276.837C269.819 278.529 269.897 278.583 270.75 278.314C272.172 277.911 273.75 278.771 274.422 280.329C275.095 281.887 274.862 283.23 273.75 284.412C272.664 285.541 271.371 285.783 270.103 285.138C268.267 284.198 267.491 282.129 268.293 280.437L268.707 279.55L267.233 277.992L265.759 276.434H255.181H244.603L242.948 277.401L241.293 278.368V282.183V285.997L240.129 287.179L238.966 288.388L239.017 294.433C239.095 301.31 238.914 300.827 241.5 300.477L242.897 300.289L241.836 299.161L240.776 298.033V293.896V289.732L243.129 287.287L245.483 284.842L244.94 283.929C244.293 282.827 244.241 281.054 244.784 279.926C245.586 278.341 248.147 277.723 249.517 278.771C252.259 280.839 251.172 285.03 247.81 285.487C246.931 285.621 246.44 285.997 244.526 287.985L242.276 290.349L242.302 293.922L242.353 297.522L243.698 298.919L245.017 300.343H247.603H250.19L249.31 299.403C248.716 298.758 248.198 298.462 247.707 298.462C246.724 298.462 245.612 297.845 244.94 296.958C244.526 296.421 244.397 295.857 244.397 294.755C244.397 293.412 244.474 293.197 245.405 292.257C246.259 291.37 246.569 291.209 247.526 291.209C250.5 291.209 252.103 294.54 250.397 297.066L249.853 297.845L251.069 299.08C252.233 300.289 252.362 300.343 253.759 300.343C254.56 300.343 255.284 300.236 255.362 300.128C255.44 299.994 254.793 299.188 253.966 298.328L252.414 296.743V291.746V286.75L254.353 285.272L256.267 283.821L256.112 282.451C255.698 278.69 259.603 276.729 261.957 279.55C262.603 280.302 262.759 280.732 262.759 281.699C262.759 282.371 262.578 283.257 262.397 283.66C261.621 285.165 259.784 285.863 258.259 285.192L257.302 284.789L255.517 286.185L253.707 287.582L253.862 291.881L254.017 296.179L255.724 297.979L257.457 299.752L259.526 299.027C260.664 298.624 262.293 297.979 263.121 297.576L264.647 296.851L264.052 296.179C263.25 295.292 262.94 295.319 262.422 296.448C261.595 298.221 259.5 298.946 257.819 298.06C255.44 296.77 255.491 292.875 257.871 291.585C259.603 290.672 262.19 291.72 262.603 293.519C262.733 294.003 262.94 294.164 263.457 294.164C263.897 294.164 264.491 294.513 265.086 295.104L266.017 296.045L266.974 295.373C267.491 294.997 267.931 294.54 267.931 294.406C267.931 294.245 268.138 293.681 268.371 293.17C268.862 292.096 270.078 291.209 271.086 291.209C271.888 291.209 273.233 289.732 275.172 286.723C276.621 284.466 277.5 282.236 277.681 280.248L277.836 278.798L273.595 274.392L269.353 269.986H265.733L262.112 270.013L261.672 271.007C261.414 271.571 260.845 272.243 260.405 272.512C259.371 273.156 257.69 273.129 256.836 272.458C255.983 271.84 255.259 270.362 255.259 269.315C255.259 267.703 257.095 265.688 258.569 265.688C259.655 265.688 260.948 266.44 261.491 267.434L262.034 268.374H265.94H269.871L273.828 272.458L277.81 276.568L277.629 274.956C277.397 272.915 276.724 270.094 275.509 266.279L274.578 263.27H263.948H253.319L251.276 265.393C249.414 267.354 249.284 267.542 249.569 268.106C249.75 268.482 249.828 269.288 249.75 270.067C249.647 271.195 249.491 271.571 248.69 272.324C247.914 273.076 247.578 273.21 246.466 273.21C245.353 273.21 245.017 273.076 244.216 272.324C243.414 271.544 243.259 271.222 243.181 269.959C243.078 268.751 243.155 268.348 243.672 267.569C244.474 266.333 246.103 265.688 247.293 266.172C248.147 266.494 248.147 266.494 250.345 264.21L252.543 261.927H263.224C273.698 261.927 273.879 261.927 273.879 261.39C273.879 260.852 273.698 260.852 259.707 260.852H245.56L241.603 264.963Z" fill="#505962"/>
<path d="M36.931 318.611C36.8535 319.041 36.9052 319.417 37.0345 319.417C37.1379 319.417 37.2414 319.041 37.2414 318.611C37.2414 318.154 37.1897 317.805 37.1379 317.805C37.0862 317.805 36.9828 318.154 36.931 318.611Z" fill="#505962"/>
<path d="M33.6207 336.932C33 340.075 32.4569 342.923 32.3793 343.245L32.2759 343.863L48.3879 343.836H64.5259L60.2586 342.278C51.9052 339.216 45.6466 336.556 38.4311 333.01C36.4655 332.043 34.8104 331.237 34.7845 331.237C34.7586 331.237 34.2414 333.816 33.6207 336.932Z" fill="#505962"/>
</g>
<defs>
<clipPath id="clip0_19_12855">
<rect width="300" height="343.863" fill="white"/>
</clipPath>
</defs>
</svg>
