<svg width="475" height="225" viewBox="0 0 475 225" fill="none" xmlns="http://www.w3.org/2000/svg">
<rect y="6.94531" width="40" height="40" rx="8" transform="rotate(-10 0 6.94531)" fill="#3573EC"/>
<path fill-rule="evenodd" clip-rule="evenodd" d="M19.6558 19.8453C19.5176 19.0617 19.6964 18.2554 20.1528 17.6036C20.6091 16.9518 21.3057 16.5081 22.0893 16.3699C22.8728 16.2317 23.6792 16.4105 24.331 16.8669C24.9827 17.3232 25.4265 18.0198 25.5647 18.8034L19.6558 19.8453ZM17.6862 20.1926C17.4559 18.8866 17.7539 17.5427 18.5145 16.4564C19.2751 15.3702 20.4361 14.6306 21.742 14.4003C23.0479 14.17 24.3918 14.468 25.4781 15.2286C26.5644 15.9892 27.304 17.1502 27.5343 18.4561L30.4887 17.9351C30.6255 17.911 30.7658 17.9157 30.9007 17.9488C31.0356 17.9819 31.1622 18.0427 31.2723 18.1274C31.3824 18.2122 31.4736 18.3189 31.5401 18.4408C31.6067 18.5628 31.6471 18.6972 31.6588 18.8356L32.431 28.0231C32.4936 28.769 32.2751 29.5113 31.8185 30.1043C31.3619 30.6973 30.7001 31.0982 29.9631 31.2284L19.7723 33.0253C19.0352 33.1551 18.2761 33.0047 17.6442 32.6036C17.0123 32.2025 16.5532 31.5797 16.3569 30.8574L13.9402 21.9599C13.9038 21.8258 13.8958 21.6857 13.9167 21.5483C13.9375 21.411 13.9867 21.2795 14.0612 21.1622C14.1357 21.0449 14.2338 20.9445 14.3492 20.8672C14.4647 20.79 14.595 20.7376 14.7318 20.7135L17.6862 20.1926Z" fill="white"/>
<rect x="435.273" y="25.3242" width="40" height="40" rx="8" transform="rotate(10 435.273 25.3242)" fill="#7069DD"/>
<rect x="444.952" y="36.6833" width="17" height="20" rx="2" transform="rotate(10 444.952 36.6833)" fill="white"/>
<path opacity="0.4" d="M454.569 45.487L455.341 41.1101C455.368 40.9596 455.445 40.8406 455.575 40.753C455.704 40.6654 455.846 40.6351 456 40.6622L458.814 41.1584C458.969 41.1856 459.092 41.2626 459.183 41.3893C459.275 41.516 459.307 41.6545 459.28 41.8047L458.508 46.1816L456.684 45.0137L454.569 45.487Z" fill="#7069DD"/>
<rect x="368.945" y="131" width="40" height="40" rx="8" transform="rotate(10 368.945 131)" fill="#3573EC"/>
<circle cx="385.113" cy="151.627" r="7" transform="rotate(10 385.113 151.627)" fill="#C6D4ED"/>
<path fill-rule="evenodd" clip-rule="evenodd" d="M377.06 151.229C377.282 149.971 377.801 148.785 378.574 147.769C379.348 146.753 380.353 145.937 381.506 145.389C382.659 144.84 383.926 144.576 385.203 144.617C386.479 144.658 387.726 145.003 388.842 145.625C389.957 146.246 390.908 147.125 391.614 148.189C392.321 149.252 392.763 150.469 392.903 151.739C393.044 153.008 392.879 154.292 392.422 155.484C391.965 156.676 391.23 157.742 390.277 158.593L393.068 162.578C393.206 162.783 393.258 163.034 393.213 163.276C393.168 163.519 393.03 163.735 392.827 163.876C392.625 164.018 392.375 164.075 392.131 164.034C391.888 163.993 391.67 163.858 391.525 163.658L388.734 159.673C387.41 160.385 385.912 160.709 384.412 160.609C382.912 160.509 381.471 159.989 380.252 159.107C379.034 158.226 378.089 157.02 377.524 155.627C376.96 154.233 376.799 152.709 377.06 151.229ZM385.681 148.444C385.435 148.401 385.182 148.457 384.977 148.6C384.773 148.744 384.633 148.962 384.59 149.209C384.547 149.455 384.603 149.708 384.746 149.912C384.889 150.117 385.108 150.256 385.354 150.3C385.969 150.408 386.516 150.757 386.874 151.268C387.232 151.78 387.373 152.413 387.264 153.028C387.221 153.274 387.277 153.527 387.42 153.732C387.564 153.937 387.782 154.076 388.028 154.119C388.274 154.163 388.528 154.107 388.732 153.963C388.937 153.82 389.076 153.601 389.12 153.355C389.315 152.248 389.062 151.109 388.417 150.188C387.773 149.267 386.788 148.64 385.681 148.444Z" fill="white"/>
<rect x="97" y="85" width="280" height="140" rx="10" fill="white"/>
<rect x="112" y="100" width="106" height="15" rx="5" fill="#F0F3FA"/>
<rect x="112" y="130" width="80" height="35" rx="5" fill="#F7F8FB"/>
<rect x="112" y="170" width="80" height="35" rx="5" fill="#F7F8FB"/>
<path d="M197 135C197 132.239 199.239 130 202 130H272C274.761 130 277 132.239 277 135V160C277 162.761 274.761 165 272 165H202C199.239 165 197 162.761 197 160V135Z" fill="#F7F8FB"/>
<rect x="197" y="170" width="80" height="35" rx="5" fill="#F7F8FB"/>
<rect x="282" y="130" width="80" height="35" rx="5" fill="#F7F8FB"/>
<rect x="282" y="170" width="80" height="35" rx="5" fill="#F7F8FB"/>
<rect x="223" y="100" width="67" height="15" rx="5" fill="#F0F3FA"/>
<rect x="295" y="100" width="67" height="15" rx="5" fill="#F0F3FA"/>
<rect x="66" y="129.946" width="40" height="40" rx="8" transform="rotate(-10 66 129.946)" fill="#7069DD"/>
<path d="M79.7793 145.725C80.515 149.898 84.4701 151.493 87.4287 153.024C88.4725 153.564 89.4755 154.069 90.3618 153.913C91.2481 153.756 92.0179 152.939 92.8139 152.074C95.0716 149.625 98.2416 146.772 97.506 142.6C96.7703 138.428 91.3734 136.327 88.0924 141.042C83.3964 137.733 79.0435 141.552 79.7793 145.725Z" fill="white"/>
</svg>
