<svg width="263" height="264" viewBox="0 0 263 264" fill="none" xmlns="http://www.w3.org/2000/svg">
<rect x="98" width="68" height="68" rx="10" fill="#3573EC"/>
<circle opacity="0.5" cx="132" cy="34" r="13" fill="white"/>
<path fill-rule="evenodd" clip-rule="evenodd" d="M128.377 21.5137C125.865 22.2456 123.631 23.7178 121.968 25.7381C120.305 27.7584 119.289 30.2332 119.053 32.8394H124.996C125.342 28.8734 126.492 25.0193 128.375 21.5119L128.377 21.5137ZM124.996 35.1606H119.053C119.288 37.767 120.304 40.242 121.967 42.2626C123.629 44.2833 125.863 45.7559 128.375 46.4882C126.492 42.9807 125.342 39.1267 124.996 35.1606ZM131.354 46.984C129.102 43.4132 127.722 39.3631 127.324 35.1606H136.674C136.276 39.3631 134.896 43.4132 132.644 46.984C132.214 47.0053 131.784 47.0053 131.354 46.984ZM135.625 46.4863C138.137 45.7541 140.37 44.2818 142.033 42.2615C143.696 40.2412 144.711 37.7667 144.947 35.1606H139.005C138.658 39.1267 137.508 42.9807 135.625 46.4882V46.4863ZM139.005 32.8394H144.947C144.712 30.2331 143.696 27.7581 142.033 25.7374C140.371 23.7167 138.137 22.2442 135.625 21.5119C137.508 25.0193 138.658 28.8734 139.005 32.8394ZM131.354 21.0161C131.784 20.9946 132.216 20.9946 132.646 21.0161C134.897 24.587 136.277 28.6371 136.674 32.8394H127.326C127.729 28.6111 129.112 24.5573 131.354 21.0161Z" fill="white"/>
<rect x="98" y="196" width="68" height="68" rx="10" fill="#3573EC"/>
<path d="M142.929 230.266C142.934 230.088 142.934 229.909 142.929 229.73L144.782 227.414C144.88 227.293 144.947 227.15 144.979 226.998C145.011 226.846 145.006 226.688 144.966 226.537C144.662 225.396 144.208 224.299 143.615 223.277C143.537 223.143 143.429 223.029 143.3 222.944C143.171 222.86 143.023 222.806 142.87 222.789L139.923 222.461C139.801 222.332 139.676 222.207 139.55 222.088L139.203 219.134C139.185 218.98 139.131 218.833 139.046 218.704C138.961 218.574 138.847 218.466 138.713 218.389C137.691 217.797 136.594 217.343 135.453 217.04C135.302 217 135.145 216.995 134.992 217.027C134.84 217.059 134.697 217.127 134.576 217.224L132.266 219.067H131.73L129.414 217.218C129.293 217.12 129.15 217.053 128.998 217.021C128.846 216.989 128.688 216.994 128.537 217.034C127.396 217.338 126.299 217.792 125.277 218.385C125.143 218.463 125.029 218.571 124.944 218.7C124.86 218.829 124.806 218.977 124.789 219.13L124.461 222.082C124.332 222.205 124.207 222.329 124.088 222.454L121.134 222.794C120.98 222.811 120.833 222.865 120.704 222.95C120.574 223.035 120.466 223.149 120.389 223.283C119.797 224.305 119.343 225.402 119.039 226.544C118.999 226.694 118.995 226.852 119.027 227.004C119.059 227.157 119.126 227.299 119.224 227.421L121.067 229.73V230.266L119.218 232.582C119.12 232.703 119.053 232.846 119.021 232.998C118.989 233.151 118.994 233.308 119.034 233.459C119.338 234.601 119.792 235.697 120.385 236.719C120.463 236.853 120.571 236.967 120.7 237.052C120.829 237.137 120.977 237.19 121.13 237.208L124.077 237.536C124.2 237.665 124.324 237.789 124.45 237.908L124.794 240.862C124.811 241.016 124.865 241.163 124.95 241.293C125.035 241.422 125.149 241.53 125.283 241.607C126.305 242.199 127.402 242.654 128.544 242.958C128.694 242.998 128.852 243.002 129.004 242.97C129.157 242.937 129.299 242.87 129.421 242.773L131.73 240.929C131.909 240.934 132.088 240.934 132.266 240.929L134.582 242.782C134.703 242.88 134.846 242.947 134.998 242.979C135.151 243.011 135.308 243.006 135.459 242.966C136.601 242.663 137.697 242.208 138.719 241.615C138.853 241.537 138.967 241.429 139.052 241.3C139.137 241.171 139.19 241.023 139.208 240.87L139.536 237.923C139.665 237.801 139.789 237.676 139.908 237.55L142.862 237.203C143.016 237.185 143.163 237.131 143.293 237.046C143.422 236.961 143.53 236.847 143.607 236.713C144.199 235.691 144.654 234.594 144.958 233.453C144.998 233.302 145.002 233.144 144.97 232.992C144.937 232.84 144.87 232.697 144.773 232.576L142.929 230.266ZM131.998 234.967C131.015 234.967 130.055 234.675 129.238 234.129C128.421 233.583 127.784 232.807 127.408 231.9C127.032 230.992 126.933 229.993 127.125 229.029C127.317 228.065 127.79 227.18 128.485 226.485C129.18 225.79 130.065 225.317 131.029 225.125C131.993 224.933 132.992 225.032 133.9 225.408C134.807 225.784 135.583 226.421 136.129 227.238C136.675 228.055 136.967 229.015 136.967 229.998C136.967 231.316 136.443 232.58 135.512 233.512C134.58 234.443 133.316 234.967 131.998 234.967Z" fill="white"/>
<circle opacity="0.5" cx="132" cy="230" r="6" fill="white"/>
<rect y="98" width="68" height="68" rx="10" fill="#7069DD"/>
<rect opacity="0.5" x="24.6621" y="142.905" width="25" height="20" rx="2" transform="rotate(-85 24.6621 142.905)" fill="white"/>
<rect x="21" y="146.344" width="25" height="20" rx="2" transform="rotate(-90 21 146.344)" fill="white"/>
<rect x="195.5" y="0.5" width="67" height="67" rx="9.5" fill="#F7F8FB" stroke="#EAEEF3"/>
<rect x="195.5" y="98.5" width="67" height="67" rx="9.5" fill="#F7F8FB" stroke="#EAEEF3"/>
<rect x="195.5" y="196.5" width="67" height="67" rx="9.5" fill="#F7F8FB" stroke="#EAEEF3"/>
<rect x="0.5" y="0.5" width="67" height="67" rx="9.5" fill="#F7F8FB" stroke="#EAEEF3"/>
<rect x="0.5" y="196.5" width="67" height="67" rx="9.5" fill="#F7F8FB" stroke="#EAEEF3"/>
<rect x="98.5" y="98.5" width="67" height="67" rx="9.5" fill="#F7F8FB" stroke="#EAEEF3"/>
</svg>
