<svg width="342" height="342" viewBox="0 0 342 342" fill="none" xmlns="http://www.w3.org/2000/svg">
<g opacity="0.5">
<path d="M206.208 90.0712C206.276 90.2101 205.152 88.9792 205.049 86.803C204.854 84.6317 205.239 81.5868 206.191 77.9142C207.125 74.2291 208.659 69.9188 210.724 65.1245C212.845 60.3625 215.425 55.067 218.728 49.5705C221.967 44.0318 225.852 38.2475 230.41 32.4035C234.949 26.5447 240.252 20.6859 246.619 15.3035C249.824 12.6409 253.286 10.0825 257.173 7.87146C261.044 5.66044 265.343 3.74957 270.224 2.6999C275.042 1.66015 280.783 1.71733 285.848 3.9879C288.366 5.08225 290.594 6.65793 292.48 8.41732C294.346 10.1171 295.97 12.3431 297.089 13.8816C299.784 17.5964 302.085 21.4824 303.761 25.9838C305.387 30.4257 306.119 35.756 304.68 40.7686C303.278 45.7912 300.046 49.7467 296.667 52.6625C293.234 55.5907 289.558 57.767 285.903 59.6157C278.567 63.2684 271.296 65.812 264.386 68.0032C257.477 70.1918 250.943 72.0752 244.958 73.8991C232.966 77.475 223.231 81.0508 216.764 84.2742C213.53 85.8773 211.117 87.3638 209.53 88.4557C208.729 88.9942 208.142 89.4408 207.749 89.7435C207.352 90.0438 207.147 90.2 207.147 90.2L206.208 90.0712ZM207.082 88.5922C207.455 88.2572 207.959 87.8005 208.626 87.2695C210.167 86.0113 212.525 84.2792 215.703 82.366C222.03 78.475 231.754 74.2267 243.519 69.7699C249.397 67.5192 255.781 65.1817 262.416 62.5562C269.015 59.8886 275.989 57.097 282.486 53.3598C285.721 51.5012 288.821 49.3819 291.386 46.9277C293.931 44.4635 295.817 41.6446 296.444 38.6742C297.846 32.7633 294.049 25.7282 289.293 19.8967C284.559 13.5639 279.356 11.9361 272.967 13.8494C266.657 15.7775 260.552 20.3955 255.052 25.0979C249.502 29.8698 244.441 35.0884 239.735 40.1631C235.061 45.2774 230.867 50.382 227.076 55.1713C223.354 60.0102 219.969 64.5042 217.204 68.6359C214.389 72.7354 212.113 76.4277 210.41 79.5296C208.724 82.6365 207.644 85.1825 207.25 86.9146C207.077 87.6764 207.06 88.21 207.082 88.5922Z" fill="#C6D4ED"/>
<path d="M195.148 88.6582C195.073 88.2886 194.924 87.7851 194.566 87.109C193.75 85.5622 192.071 83.4099 189.664 80.8758C187.241 78.349 184.12 75.4014 180.377 72.1985C176.672 68.9542 172.282 65.5178 167.477 61.8358C162.617 58.2169 157.292 54.3987 151.503 50.6875C145.693 47.0201 139.503 43.3063 132.954 40.135C126.471 37.0147 119.427 34.1231 112.859 33.8362C106.219 33.5784 101.615 36.3947 98.643 43.5569C95.5242 50.2497 93.6316 57.8522 96.4668 63.1199C97.8148 65.7854 100.344 67.9985 103.418 69.713C106.507 71.4154 110.029 72.6703 113.612 73.6431C120.812 75.6008 128.236 76.5469 135.267 77.4686C142.32 78.3417 149.063 78.9983 155.293 79.6987C167.753 81.0558 178.194 82.712 185.269 84.8594C188.813 85.8979 191.522 86.9656 193.322 87.7827C194.106 88.1208 194.705 88.4296 195.148 88.6582ZM195.493 90.2C195.493 90.2 195.257 90.1028 194.8 89.9131C194.344 89.721 193.665 89.4389 192.758 89.1252C190.952 88.4759 188.254 87.6562 184.732 86.9242C177.689 85.4455 167.407 84.429 154.95 83.9645C148.722 83.6945 141.95 83.5048 134.742 83.1132C127.532 82.7192 119.885 82.0845 111.896 80.4088C107.907 79.5479 103.819 78.3806 99.7746 76.4399C95.7854 74.4967 91.6743 71.5346 89.0629 67.1108C86.4142 62.7064 85.7825 57.4727 86.2326 52.8592C86.7151 48.18 87.9562 43.9313 89.62 39.7483C90.3139 38.0143 91.3186 35.5069 92.6914 33.4397C94.0668 31.3093 95.8201 29.2713 97.9714 27.6175C102.281 24.2249 107.8 22.7706 112.707 22.5809C117.676 22.3839 122.295 23.15 126.587 24.3028C130.888 25.4507 134.867 27.0315 138.627 28.7752C146.116 32.3284 152.696 36.5917 158.546 41.0422C164.408 45.4757 169.608 50.0114 174.122 54.4765C178.686 58.8857 182.506 63.2779 185.744 67.2785C188.94 71.3229 191.499 75.0366 193.325 78.3052C195.165 81.5568 196.302 84.3512 196.66 86.4597C197.108 88.5488 196.334 89.991 196.361 89.8426L195.493 90.2Z" fill="#C6D4ED"/>
<path d="M378.85 393.861C270.204 390.591 160.734 392.506 50.7728 399.75C47.4952 339.503 43.4807 168.411 41 108.051C155.707 100.576 269.94 98.6464 383.35 102.12C381.07 162.456 380.321 333.563 378.85 393.861Z" fill="#C6D4ED"/>
<path d="M379.25 235.379C379.25 235.379 374.107 236.387 365.08 237.796C360.567 238.515 355.085 239.314 348.792 240.177C342.495 241.015 335.394 241.961 327.634 242.835C323.754 243.274 319.713 243.732 315.533 244.206C311.348 244.623 307.021 245.053 302.569 245.497C293.673 246.415 284.277 247.162 274.551 247.844C264.82 248.468 254.754 248.938 244.52 249.334C234.288 249.789 223.896 250.253 213.503 250.713C192.723 251.732 171.943 252.747 152.461 253.702C132.983 254.698 114.792 255.461 99.2001 256.136C68.0136 257.434 47.2255 258.3 47.2255 258.3L47.1504 257.193C47.1504 257.193 67.8636 255.192 98.9334 252.192C114.47 250.716 132.595 248.974 152.025 247.284C171.452 245.552 192.176 243.704 212.898 241.856C223.257 240.885 233.614 239.916 243.809 238.962C254.002 237.949 264.039 237.03 273.762 236.309C283.491 235.649 292.901 235.096 301.836 234.785C306.304 234.611 310.648 234.444 314.853 234.28C319.06 234.175 323.126 234.072 327.028 233.975C334.833 233.775 341.998 233.739 348.347 233.701C354.699 233.695 360.24 233.728 364.808 233.823C373.94 233.981 379.173 234.269 379.173 234.269L379.25 235.379Z" fill="white"/>
<path d="M203.231 104.55C203.231 104.55 204.253 108.957 205.664 116.692C206.381 120.558 207.173 125.258 208.024 130.653C208.844 136.05 209.776 142.138 210.617 148.793C211.041 152.121 211.482 155.584 211.939 159.171C212.333 162.76 212.741 166.473 213.159 170.287C214.033 177.916 214.711 185.978 215.313 194.323C215.855 202.671 216.221 211.312 216.509 220.098C216.857 228.877 217.211 237.798 217.568 246.719C218.379 264.551 219.19 282.384 219.949 299.102C220.757 315.818 221.329 331.431 221.837 344.813C222.806 371.578 223.45 389.422 223.45 389.422L222.243 389.5C222.243 389.5 220.361 371.734 217.537 345.087C216.152 331.762 214.514 316.215 212.95 299.548C211.343 282.882 209.624 265.107 207.909 247.332C207.001 238.448 206.09 229.562 205.197 220.817C204.241 212.075 203.382 203.468 202.737 195.124C202.159 186.776 201.69 178.701 201.478 171.03C201.354 167.196 201.233 163.465 201.115 159.858C201.061 156.246 201.006 152.757 200.958 149.406C200.852 142.705 200.916 136.554 200.964 131.102C201.049 125.647 201.167 120.889 201.333 116.965C201.636 109.121 202.026 104.625 202.026 104.625L203.231 104.55Z" fill="white"/>
</g>
</svg>
