<svg width="400" height="410" viewBox="0 0 400 410" fill="none" xmlns="http://www.w3.org/2000/svg">
<path opacity="0.0344828" d="M51.4179 95.7579C53.2203 93.6098 55.9676 92.2382 59.6821 91.681C63.4049 91.1227 68.0361 91.3944 73.4866 92.4838C84.3866 94.6625 98.3554 100.068 114.459 108.26C146.65 124.636 187.172 152.048 228.373 186.619C269.574 221.191 303.605 256.337 325.323 285.196C336.187 299.632 343.935 312.45 347.974 322.806C349.993 327.984 351.065 332.498 351.162 336.261C351.258 340.016 350.384 342.96 348.582 345.108C346.779 347.256 344.032 348.628 340.318 349.185C336.595 349.743 331.964 349.471 326.513 348.382C315.613 346.203 301.644 340.798 285.541 332.606C253.349 316.229 212.828 288.818 171.627 254.246C130.426 219.675 96.3948 184.529 74.6767 155.67C63.8127 141.234 56.0641 128.416 52.0258 118.06C50.0065 112.881 48.9346 108.368 48.8381 104.604C48.7417 100.85 49.6155 97.9059 51.4179 95.7579Z" stroke="#3573EC" stroke-width="2"/>
<path opacity="0.0689655" d="M62.8497 81.7266C64.8325 79.7438 67.6889 78.6168 71.4378 78.3855C75.1951 78.1537 79.785 78.8281 85.1198 80.3884C95.7884 83.5087 109.233 90.1107 124.561 99.6751C155.203 118.795 193.181 149.634 231.212 187.665C269.243 225.696 300.082 263.674 319.202 294.316C328.766 309.644 335.368 323.089 338.489 333.757C340.049 339.092 340.723 343.682 340.492 347.439C340.26 351.188 339.133 354.045 337.15 356.027C335.168 358.01 332.311 359.137 328.562 359.368C324.805 359.6 320.215 358.926 314.88 357.365C304.212 354.245 290.767 347.643 275.439 338.079C244.797 318.958 206.819 288.12 168.788 250.089C130.757 212.058 99.9185 174.08 80.7983 143.438C71.2339 128.11 64.6319 114.665 61.5116 103.997C59.9513 98.6618 59.2769 94.0719 59.5087 90.3146C59.74 86.5657 60.867 83.7093 62.8497 81.7266Z" stroke="#3573EC" stroke-width="2"/>
<path opacity="0.103448" d="M75.3248 68.7384C77.4728 66.936 80.4165 66.0622 84.1713 66.1586C87.9346 66.2551 92.4482 67.327 97.6267 69.3463C107.983 73.3846 120.801 81.1332 135.237 91.9972C164.096 113.715 199.242 147.746 233.813 188.947C268.385 230.148 295.796 270.67 312.173 302.861C320.365 318.965 325.77 332.933 327.949 343.833C329.038 349.284 329.31 353.915 328.752 357.638C328.195 361.352 326.823 364.1 324.675 365.902C322.527 367.705 319.583 368.578 315.828 368.482C312.065 368.385 307.551 367.314 302.373 365.294C292.017 361.256 279.199 353.507 264.763 342.643C235.904 320.925 200.758 286.894 166.186 245.693C131.615 204.492 104.203 163.971 87.8266 131.779C79.6344 115.676 74.2294 101.707 72.0508 90.807C70.9614 85.3566 70.6896 80.7254 71.248 77.0026C71.8051 73.288 73.1768 70.5408 75.3248 68.7384Z" stroke="#3573EC" stroke-width="2"/>
<path opacity="0.137931" d="M88.7495 56.8809C91.0465 55.2726 94.0552 54.6587 97.7873 55.082C101.528 55.5061 105.931 56.9673 110.914 59.4303C120.878 64.3558 132.972 73.1921 146.407 85.2729C173.263 109.424 205.309 146.388 236.158 190.446C267.007 234.503 290.783 277.259 304.291 310.756C311.049 327.512 315.216 341.898 316.436 352.947C317.046 358.472 316.913 363.109 316.033 366.769C315.154 370.421 313.548 373.038 311.251 374.646C308.954 376.255 305.946 376.868 302.213 376.445C298.473 376.021 294.07 374.56 289.087 372.097C279.122 367.171 267.028 358.335 253.594 346.254C226.738 322.104 194.692 285.139 163.843 241.081C132.993 197.024 109.218 154.268 95.7094 120.771C88.9519 104.015 84.7849 89.6287 83.5646 78.5803C82.9543 73.0556 83.0872 68.4183 83.968 64.7584C84.8467 61.1065 86.4526 58.4893 88.7495 56.8809Z" stroke="#3573EC" stroke-width="2"/>
<path opacity="0.172414" d="M103.02 46.233C105.449 44.831 108.499 44.4817 112.18 45.2286C115.87 45.9771 120.129 47.8165 124.878 50.7044C134.375 56.4796 145.653 66.3363 157.983 79.5421C182.633 105.941 211.335 145.559 238.227 192.137C265.119 238.715 285.077 283.381 295.615 317.927C300.887 335.209 303.784 349.904 304.037 361.017C304.163 366.573 303.626 371.181 302.43 374.751C301.236 378.312 299.409 380.779 296.98 382.181C294.552 383.583 291.501 383.933 287.82 383.186C284.131 382.437 279.872 380.598 275.123 377.71C265.625 371.935 254.347 362.078 242.017 348.872C217.368 322.473 188.666 282.856 161.774 236.277C134.882 189.699 114.923 145.034 104.385 110.487C99.1139 93.2058 96.2166 78.5106 95.9638 67.3979C95.8375 61.841 96.374 57.233 97.5704 53.6637C98.764 50.1024 100.592 47.635 103.02 46.233Z" stroke="#3573EC" stroke-width="2"/>
<path opacity="0.206897" d="M118.029 36.8632C120.57 35.6782 123.64 35.5961 127.242 36.661C130.852 37.7282 134.934 39.9318 139.414 43.2226C148.372 49.8036 158.748 60.6057 169.88 74.8359C192.135 103.283 217.275 145.251 240.005 193.996C262.735 242.741 278.725 288.976 286.211 324.31C289.957 341.984 291.562 356.876 290.845 367.969C290.487 373.515 289.551 378.059 288.048 381.511C286.548 384.954 284.512 387.253 281.971 388.438C279.43 389.623 276.36 389.705 272.758 388.64C269.148 387.573 265.066 385.369 260.586 382.079C251.628 375.498 241.253 364.695 230.12 350.465C207.866 322.018 182.725 280.05 159.995 231.305C137.265 182.56 121.276 136.325 113.789 100.992C110.044 83.3168 108.438 68.425 109.155 57.3326C109.513 51.7858 110.449 47.2421 111.952 43.7907C113.452 40.3469 115.488 38.0483 118.029 36.8632Z" stroke="#3573EC" stroke-width="2"/>
<path opacity="0.241379" d="M133.662 28.8308C136.297 27.8718 139.362 28.0575 142.858 29.4323C146.361 30.8101 150.236 33.3611 154.411 37.0298C162.762 44.3665 172.157 56.0318 182.006 71.1781C201.697 101.457 223.084 145.456 241.479 195.997C259.874 246.537 271.773 293.99 276.152 329.841C278.343 347.775 278.644 362.75 276.963 373.738C276.123 379.233 274.794 383.677 272.996 386.985C271.202 390.285 268.974 392.397 266.339 393.356C263.704 394.315 260.639 394.129 257.143 392.755C253.64 391.377 249.765 388.826 245.59 385.157C237.239 377.82 227.845 366.155 217.995 351.009C198.304 320.73 176.917 276.731 158.522 226.19C140.127 175.65 128.228 128.197 123.849 92.3456C121.659 74.4116 121.357 59.4366 123.038 48.4488C123.878 42.9544 125.207 38.5096 127.005 35.2023C128.799 31.9023 131.027 29.7899 133.662 28.8308Z" stroke="#3573EC" stroke-width="2"/>
<path opacity="0.275862" d="M149.799 22.1871C152.508 21.4614 155.545 21.9135 158.907 23.5877C162.277 25.2656 165.915 28.1446 169.755 32.1632C177.434 40.1999 185.776 52.6396 194.269 68.5867C211.245 100.466 228.716 146.162 242.636 198.114C256.557 250.065 264.275 298.374 265.512 334.471C266.131 352.528 265.126 367.472 262.494 378.271C261.178 383.672 259.467 387.984 257.388 391.122C255.313 394.253 252.909 396.163 250.2 396.889C247.492 397.615 244.455 397.162 241.092 395.488C237.723 393.81 234.085 390.931 230.245 386.913C222.566 378.876 214.223 366.436 205.731 350.489C188.755 318.61 171.284 272.914 157.364 220.962C143.443 169.011 135.725 120.702 134.488 84.6049C133.869 66.5482 134.873 51.6039 137.505 40.8044C138.822 35.4042 140.533 31.0921 142.612 27.9541C144.687 24.823 147.091 22.9128 149.799 22.1871Z" stroke="#3573EC" stroke-width="2"/>
<path opacity="0.310345" d="M166.319 16.9682C169.08 16.4812 172.066 17.1964 175.27 19.1573C178.481 21.1225 181.854 24.3075 185.329 28.6456C192.278 37.3209 199.505 50.4404 206.575 67.0669C220.708 100.305 234.13 147.35 243.469 200.316C252.809 253.283 256.287 302.081 254.374 338.149C253.417 356.191 251.113 370.991 247.55 381.52C245.768 386.785 243.688 390.931 241.343 393.876C239.003 396.814 236.442 398.508 233.68 398.995C230.919 399.481 227.933 398.766 224.729 396.805C221.518 394.84 218.145 391.655 214.67 387.317C207.721 378.642 200.494 365.522 193.424 348.896C179.291 315.658 165.869 268.613 156.53 215.646C147.19 162.679 143.712 113.881 145.625 77.8139C146.582 59.772 148.886 44.9722 152.449 34.4432C154.231 29.1782 156.311 25.0316 158.656 22.0867C160.996 19.1485 163.557 17.4551 166.319 16.9682Z" stroke="#3573EC" stroke-width="2"/>
<path opacity="0.344828" d="M183.095 13.2031C185.889 12.9587 188.801 13.9314 191.822 16.164C194.849 18.4016 197.931 21.8685 201.015 26.4929C207.182 35.7409 213.238 49.4403 218.832 66.6197C230.015 100.963 239.285 148.999 243.972 202.578C248.66 256.157 247.872 305.073 242.822 340.836C240.297 358.726 236.712 373.269 232.245 383.447C230.011 388.537 227.577 392.486 224.984 395.215C222.397 397.939 219.698 399.402 216.905 399.647C214.111 399.891 211.199 398.918 208.178 396.686C205.151 394.448 202.068 390.981 198.985 386.357C192.818 377.109 186.762 363.41 181.168 346.23C169.985 311.887 160.715 263.851 156.028 210.272C151.34 156.693 152.128 107.777 157.177 72.0138C159.703 54.124 163.288 39.5812 167.755 29.4028C169.989 24.3132 172.423 20.3636 175.016 17.6344C177.602 14.9112 180.302 13.4475 183.095 13.2031Z" stroke="#3573EC" stroke-width="2"/>
<path opacity="0.37931" d="M200 10.9079C202.804 10.9079 205.62 12.1307 208.435 14.6181C211.256 17.111 214.024 20.8334 216.693 25.709C222.031 35.4593 226.869 49.6343 230.945 67.2359C239.092 102.423 244.14 151.084 244.14 204.868C244.14 258.652 239.092 307.312 230.945 342.5C226.869 360.101 222.031 374.276 216.693 384.027C214.024 388.902 211.256 392.625 208.435 395.117C205.62 397.605 202.804 398.828 200 398.828C197.196 398.828 194.379 397.605 191.565 395.117C188.744 392.625 185.975 388.902 183.306 384.027C177.969 374.276 173.13 360.101 169.055 342.5C160.908 307.312 155.859 258.652 155.859 204.868C155.859 151.084 160.908 102.423 169.055 67.2359C173.13 49.6343 177.969 35.4593 183.306 25.709C185.975 20.8334 188.744 17.111 191.565 14.6181C194.379 12.1307 197.196 10.9079 200 10.9079Z" stroke="#3573EC" stroke-width="2"/>
<path opacity="0.413793" d="M216.905 10.089C219.698 10.3334 222.398 11.7971 224.984 14.5203C227.577 17.2495 230.011 21.1991 232.245 26.2887C236.712 36.4671 240.297 51.0098 242.823 68.8997C247.872 104.663 248.66 153.579 243.973 207.158C239.285 260.737 230.015 308.773 218.832 343.116C213.238 360.295 207.182 373.995 201.015 383.243C197.932 387.867 194.849 391.334 191.822 393.572C188.801 395.804 185.889 396.777 183.095 396.533C180.302 396.288 177.603 394.825 175.016 392.101C172.423 389.372 169.989 385.423 167.755 380.333C163.288 370.155 159.703 355.612 157.178 337.722C152.128 301.959 151.34 253.043 156.028 199.464C160.715 145.884 169.985 97.8489 181.168 63.5056C186.762 46.3262 192.818 32.6268 198.985 23.3788C202.069 18.7544 205.151 15.2875 208.178 13.0499C211.199 10.8173 214.111 9.84461 216.905 10.089Z" stroke="#3573EC" stroke-width="2"/>
<path opacity="0.448276" d="M233.681 10.7409C236.442 11.2279 239.004 12.9212 241.343 15.8595C243.688 18.8044 245.769 22.951 247.55 28.216C251.114 38.7449 253.417 53.5448 254.374 71.5867C256.287 107.654 252.809 156.452 243.47 209.419C234.13 262.386 220.709 309.431 206.575 342.669C199.505 359.295 192.279 372.415 185.329 381.09C181.854 385.428 178.481 388.613 175.27 390.578C172.067 392.539 169.081 393.254 166.319 392.767C163.558 392.28 160.996 390.587 158.656 387.649C156.311 384.704 154.231 380.557 152.449 375.292C148.886 364.763 146.583 349.963 145.626 331.922C143.713 295.854 147.191 247.056 156.53 194.089C165.87 141.122 179.291 94.0776 193.425 60.8397C200.495 44.2131 207.721 31.0937 214.671 22.4184C218.146 18.0803 221.519 14.8953 224.729 12.93C227.933 10.9692 230.919 10.254 233.681 10.7409Z" stroke="#3573EC" stroke-width="2"/>
<path opacity="0.482759" d="M250.2 12.8473C252.909 13.5731 255.313 15.4833 257.388 18.6143C259.467 21.7523 261.178 26.0645 262.494 31.4647C265.126 42.2642 266.131 57.2085 265.512 75.2651C264.274 111.362 256.556 159.671 242.636 211.623C228.716 263.574 211.245 309.27 194.268 341.15C185.776 357.097 177.434 369.536 169.755 377.573C165.915 381.592 162.277 384.471 158.907 386.148C155.545 387.823 152.508 388.275 149.799 387.549C147.091 386.823 144.686 384.913 142.612 381.782C140.532 378.644 138.821 374.332 137.505 368.932C134.873 358.132 133.868 343.188 134.487 325.131C135.725 289.034 143.443 240.725 157.363 188.774C171.284 136.823 188.754 91.1265 205.731 59.2469C214.223 43.2998 222.565 30.8601 230.245 22.8235C234.085 18.8048 237.722 15.9259 241.092 14.248C244.454 12.5738 247.492 12.1216 250.2 12.8473Z" stroke="#3573EC" stroke-width="2"/>
<path opacity="0.517241" d="M266.338 16.3787C268.973 17.3377 271.202 19.4502 272.996 22.7501C274.794 26.0575 276.122 30.5023 276.963 35.9967C278.644 46.9845 278.342 61.9595 276.152 79.8935C271.773 115.745 259.874 163.198 241.479 213.738C223.083 264.279 201.696 308.278 182.006 338.557C172.156 353.703 162.761 365.368 154.411 372.705C150.235 376.374 146.361 378.925 142.857 380.303C139.362 381.677 136.297 381.863 133.662 380.904C131.027 379.945 128.798 377.833 127.005 374.533C125.207 371.225 123.878 366.78 123.037 361.286C121.357 350.298 121.658 335.323 123.849 317.389C128.228 281.538 140.127 234.085 158.522 183.544C176.917 133.004 198.304 89.0046 217.994 58.7259C227.844 43.5797 237.239 31.9144 245.589 24.5777C249.765 20.909 253.64 18.358 257.143 16.9802C260.638 15.6054 263.703 15.4197 266.338 16.3787Z" stroke="#3573EC" stroke-width="2"/>
<path opacity="0.551724" d="M281.971 21.2978C284.512 22.4829 286.548 24.7815 288.048 28.2253C289.55 31.6767 290.487 36.2204 290.845 41.7671C291.562 52.8596 289.956 67.7514 286.211 85.4262C278.724 120.76 262.735 166.995 240.005 215.74C217.275 264.485 192.134 306.453 169.88 334.9C158.747 349.13 148.371 359.932 139.413 366.513C134.934 369.804 130.852 372.008 127.242 373.075C123.64 374.14 120.57 374.058 118.029 372.873C115.487 371.688 113.451 369.389 111.952 365.945C110.449 362.494 109.513 357.95 109.155 352.403C108.438 341.311 110.043 326.419 113.788 308.744C121.275 273.411 137.265 227.175 159.995 178.431C182.725 129.686 207.865 87.7178 230.12 59.2705C241.252 45.0403 251.628 34.2382 260.586 27.6572C265.066 24.3664 269.148 22.1628 272.758 21.0956C276.36 20.0307 279.429 20.1128 281.971 21.2978Z" stroke="#3573EC" stroke-width="2"/>
<path opacity="0.586207" d="M296.98 27.5542C299.408 28.9563 301.236 31.4236 302.43 34.9849C303.626 38.5542 304.163 43.1623 304.037 48.7191C303.784 59.8318 300.887 74.527 295.615 91.8082C285.077 126.355 265.119 171.02 238.227 217.599C211.335 264.177 182.633 303.794 157.983 330.194C145.653 343.399 134.375 353.256 124.878 359.031C120.129 361.919 115.87 363.758 112.18 364.507C108.499 365.254 105.449 364.905 103.02 363.503C100.592 362.101 98.764 359.633 97.5703 356.072C96.3739 352.503 95.8374 347.895 95.9638 342.338C96.2165 331.225 99.1138 316.53 104.385 299.249C114.923 264.702 134.881 220.036 161.773 173.458C188.665 126.88 217.368 87.2627 242.017 60.8633C254.347 47.6575 265.625 37.8009 275.123 32.0256C279.872 29.1377 284.131 27.2984 287.82 26.5498C291.501 25.8029 294.552 26.1522 296.98 27.5542Z" stroke="#3573EC" stroke-width="2"/>
<path opacity="0.62069" d="M311.251 35.0895C313.547 36.6979 315.153 39.3151 316.032 42.967C316.913 46.6269 317.046 51.2642 316.436 56.7889C315.215 67.8373 311.048 82.224 304.291 98.98C290.782 132.477 267.007 175.233 236.157 219.29C205.308 263.347 173.262 300.312 146.406 324.463C132.972 336.544 120.878 345.38 110.913 350.305C105.93 352.768 101.527 354.23 97.7867 354.654C94.0545 355.077 91.0458 354.463 88.7489 352.855C86.452 351.247 84.8461 348.629 83.9673 344.977C83.0866 341.317 82.9537 336.68 83.564 331.155C84.7843 320.107 88.9513 305.72 95.7088 288.964C109.218 255.468 132.993 212.712 163.842 168.654C194.691 124.597 226.737 87.6322 253.594 63.4815C267.028 51.4007 279.122 42.5644 289.086 37.6389C294.069 35.1759 298.472 33.7148 302.213 33.2906C305.945 32.8673 308.954 33.4812 311.251 35.0895Z" stroke="#3573EC" stroke-width="2"/>
<path opacity="0.655172" d="M324.675 43.8332C326.823 45.6356 328.194 48.3829 328.751 52.0974C329.31 55.8202 329.038 60.4514 327.949 65.9019C325.77 76.8019 320.365 90.7707 312.173 106.874C295.796 139.066 268.385 179.587 233.813 220.788C199.242 261.989 164.096 296.02 135.237 317.738C120.801 328.602 107.983 336.351 97.6266 340.389C92.448 342.408 87.9344 343.48 84.1712 343.577C80.4164 343.673 77.4727 342.799 75.3246 340.997C73.1766 339.195 71.805 336.447 71.2478 332.733C70.6894 329.01 70.9612 324.379 72.0506 318.928C74.2293 308.028 79.6343 294.06 87.8264 277.956C104.203 245.764 131.614 205.243 166.186 164.042C200.758 122.841 235.904 88.8101 264.763 67.092C279.199 56.228 292.017 48.4795 302.373 44.4412C307.551 42.4218 312.065 41.35 315.828 41.2534C319.583 41.1571 322.527 42.0309 324.675 43.8332Z" stroke="#3573EC" stroke-width="2"/>
<path opacity="0.689655" d="M337.15 53.7084C339.133 55.6911 340.26 58.5475 340.491 62.2964C340.723 66.0538 340.049 70.6436 338.488 75.9784C335.368 86.6471 328.766 100.092 319.202 115.42C300.082 146.062 269.243 184.04 231.212 222.071C193.181 260.102 155.203 290.94 124.561 310.061C109.233 319.625 95.7883 326.227 85.1196 329.347C79.7848 330.908 75.1949 331.582 71.4376 331.35C67.6887 331.119 64.8323 329.992 62.8496 328.009C60.8668 326.026 59.7398 323.17 59.5085 319.421C59.2768 315.664 59.9511 311.074 61.5114 305.739C64.6318 295.07 71.2337 281.626 80.7982 266.298C99.9184 235.656 130.757 197.678 168.788 159.647C206.819 121.616 244.797 90.7772 275.439 71.657C290.767 62.0925 304.212 55.4906 314.88 52.3702C320.215 50.8099 324.805 50.1356 328.562 50.3674C332.311 50.5986 335.168 51.7256 337.15 53.7084Z" stroke="#3573EC" stroke-width="2"/>
<path opacity="0.724138" d="M348.582 64.6272C350.384 66.7752 351.258 69.7189 351.162 73.4738C351.065 77.237 349.993 81.7506 347.974 86.9291C343.936 97.2852 336.187 110.103 325.323 124.539C303.605 153.398 269.574 188.544 228.373 223.116C187.172 257.687 146.651 285.099 114.459 301.475C98.3557 309.668 84.3869 315.073 73.4869 317.251C68.0364 318.341 63.4052 318.612 59.6824 318.054C55.9679 317.497 53.2206 316.125 51.4182 313.977C49.6158 311.829 48.742 308.886 48.8384 305.131C48.935 301.367 50.0068 296.854 52.0261 291.675C56.0644 281.319 63.813 268.501 74.677 254.065C96.3951 225.206 130.426 190.06 171.627 155.489C212.828 120.917 253.349 93.5058 285.541 77.129C301.645 68.9369 315.613 63.5318 326.513 61.3532C331.964 60.2638 336.595 59.992 340.318 60.5504C344.032 61.1075 346.78 62.4792 348.582 64.6272Z" stroke="#3573EC" stroke-width="2"/>
<path opacity="0.758621" d="M358.883 76.4946C360.491 78.7915 361.105 81.8002 360.682 85.5323C360.258 89.2728 358.797 93.6759 356.334 98.6587C351.408 108.623 342.572 120.717 330.491 134.152C306.34 161.008 269.375 193.054 225.318 223.903C181.261 254.752 138.505 278.528 105.008 292.036C88.2521 298.794 73.8654 302.961 62.817 304.181C57.2922 304.791 52.655 304.659 48.995 303.778C45.3432 302.899 42.7259 301.293 41.1176 298.996C39.5093 296.699 38.8954 293.691 39.3186 289.958C39.7428 286.218 41.204 281.815 43.6669 276.832C48.5925 266.867 57.4287 254.774 69.5096 241.339C93.6602 214.483 130.625 182.437 174.682 151.588C218.74 120.738 261.496 96.9633 294.992 83.4545C311.748 76.697 326.135 72.53 337.184 71.3096C342.708 70.6994 347.345 70.8323 351.005 71.713C354.657 72.5918 357.275 74.1977 358.883 76.4946Z" stroke="#3573EC" stroke-width="2"/>
<path opacity="0.793103" d="M367.974 89.209C369.376 91.6374 369.725 94.6881 368.978 98.3692C368.23 102.058 366.39 106.317 363.503 111.067C357.727 120.564 347.871 131.842 334.665 144.172C308.265 168.821 268.648 197.524 222.07 224.416C175.492 251.308 130.826 271.266 96.2795 281.804C78.9983 287.075 64.3032 289.973 53.1905 290.225C47.6336 290.352 43.0256 289.815 39.4563 288.619C35.8949 287.425 33.4276 285.597 32.0256 283.169C30.6236 280.741 30.2742 277.69 31.0211 274.009C31.7697 270.319 33.609 266.061 36.497 261.311C42.2722 251.814 52.1289 240.536 65.3346 228.206C91.7341 203.557 131.351 174.854 177.93 147.962C224.508 121.07 269.173 101.112 303.72 90.574C321.001 85.3026 335.696 82.4053 346.809 82.1526C352.366 82.0262 356.974 82.5627 360.543 83.7591C364.105 84.9528 366.572 86.7807 367.974 89.209Z" stroke="#3573EC" stroke-width="2"/>
<path opacity="0.827586" d="M375.787 102.661C376.972 105.203 377.055 108.272 375.99 111.874C374.922 115.484 372.719 119.567 369.428 124.046C362.847 133.004 352.045 143.38 337.815 154.512C309.367 176.767 267.399 201.907 218.655 224.637C169.91 247.367 123.675 263.357 88.3411 270.844C70.6663 274.589 55.7745 276.194 44.682 275.477C39.1353 275.119 34.5916 274.183 31.1401 272.68C27.6964 271.181 25.3978 269.145 24.2127 266.603C23.0277 264.062 22.9456 260.992 24.0105 257.39C25.0777 253.78 27.2812 249.698 30.5721 245.219C37.1531 236.261 47.9552 225.885 62.1854 214.752C90.6327 192.498 132.601 167.358 181.346 144.627C230.09 121.897 276.326 105.908 311.659 98.4209C329.334 94.6757 344.226 93.0703 355.318 93.787C360.865 94.1454 365.409 95.0815 368.86 96.5844C372.304 98.084 374.602 100.12 375.787 102.661Z" stroke="#3573EC" stroke-width="2"/>
<path opacity="0.862069" d="M382.263 116.738C383.222 119.373 383.036 122.438 381.661 125.933C380.283 129.436 377.732 133.311 374.064 137.487C366.727 145.837 355.062 155.232 339.915 165.082C309.637 184.772 265.637 206.159 215.097 224.554C164.556 242.949 117.104 254.848 81.252 259.227C63.3181 261.418 48.343 261.719 37.3553 260.038C31.8609 259.198 27.416 257.869 24.1087 256.071C20.8088 254.278 18.6963 252.049 17.7373 249.414C16.7782 246.779 16.964 243.714 18.3387 240.219C19.7166 236.715 22.2675 232.841 25.9362 228.665C33.273 220.315 44.9383 210.92 60.0845 201.07C90.3632 181.379 134.363 159.993 184.903 141.597C235.443 123.202 282.896 111.303 318.748 106.924C336.682 104.734 351.657 104.432 362.645 106.113C368.139 106.954 372.584 108.282 375.891 110.08C379.191 111.874 381.304 114.103 382.263 116.738Z" stroke="#3573EC" stroke-width="2"/>
<path opacity="0.896552" d="M387.351 131.319C388.077 134.027 387.624 137.064 385.95 140.427C384.272 143.797 381.393 147.434 377.375 151.274C369.338 158.953 356.898 167.296 340.951 175.788C309.072 192.765 263.376 210.235 211.424 224.156C159.473 238.076 111.164 245.794 75.0669 247.032C57.0103 247.651 42.066 246.646 31.2665 244.014C25.8662 242.698 21.5541 240.987 18.4161 238.907C15.285 236.833 13.3749 234.428 12.6491 231.72C11.9234 229.011 12.3755 225.974 14.0497 222.612C15.7276 219.242 18.6066 215.604 22.6253 211.764C30.6619 204.085 43.1016 195.743 59.0487 187.251C90.9283 170.274 136.624 152.803 188.576 138.883C240.527 124.963 288.836 117.245 324.933 116.007C342.99 115.388 357.934 116.393 368.734 119.025C374.134 120.341 378.446 122.052 381.584 124.131C384.715 126.206 386.625 128.61 387.351 131.319Z" stroke="#3573EC" stroke-width="2"/>
<path opacity="0.931035" d="M391.013 146.282C391.5 149.043 390.785 152.029 388.824 155.233C386.859 158.444 383.674 161.817 379.336 165.292C370.661 172.241 357.541 179.468 340.915 186.538C307.677 200.671 260.632 214.093 207.665 223.432C154.698 232.772 105.9 236.25 69.8327 234.337C51.7908 233.38 36.9909 231.076 26.462 227.513C21.197 225.731 17.0504 223.651 14.1055 221.306C11.1672 218.966 9.47385 216.405 8.98693 213.643C8.50002 210.882 9.21516 207.896 11.176 204.692C13.1412 201.481 16.3263 198.108 20.6644 194.633C29.3397 187.684 42.4592 180.457 59.0857 173.387C92.3236 159.254 139.368 145.832 192.335 136.493C245.302 127.153 294.1 123.675 330.168 125.588C348.209 126.545 363.009 128.849 373.538 132.412C378.803 134.194 382.95 136.274 385.895 138.619C388.833 140.959 390.526 143.52 391.013 146.282Z" stroke="#3573EC" stroke-width="2"/>
<path opacity="0.965517" d="M393.222 161.502C393.466 164.295 392.493 167.208 390.261 170.228C388.023 173.255 384.556 176.338 379.932 179.422C370.684 185.589 356.985 191.644 339.805 197.238C305.462 208.421 257.426 217.691 203.847 222.379C150.268 227.067 101.352 226.278 65.5888 221.229C47.6989 218.703 33.1562 215.119 22.9778 210.651C17.8881 208.417 13.9386 205.984 11.2093 203.391C8.48616 200.804 7.02248 198.105 6.7781 195.311C6.53371 192.518 7.5064 189.605 9.739 186.585C11.9766 183.558 15.4435 180.475 20.0679 177.391C29.3159 171.224 43.0153 165.169 60.1947 159.575C94.538 148.392 142.574 139.122 196.153 134.434C249.732 129.747 298.648 130.535 334.411 135.584C352.301 138.11 366.844 141.694 377.022 146.162C382.112 148.396 386.061 150.829 388.79 153.422C391.514 156.009 392.977 158.708 393.222 161.502Z" stroke="#3573EC" stroke-width="2"/>
<path d="M393.96 176.85C393.96 179.654 392.737 182.47 390.25 185.285C387.757 188.105 384.035 190.874 379.159 193.543C369.409 198.881 355.234 203.719 337.632 207.794C302.445 215.942 253.784 220.99 200 220.99C146.216 220.99 97.5555 215.942 62.3683 207.794C44.7667 203.719 30.5917 198.881 20.8414 193.543C15.9658 190.874 12.2434 188.105 9.75048 185.285C7.26312 182.47 6.04028 179.654 6.04028 176.85C6.04028 174.046 7.26312 171.229 9.75048 168.414C12.2434 165.594 15.9658 162.825 20.8414 160.156C30.5917 154.819 44.7667 149.98 62.3683 145.905C97.5555 137.758 146.216 132.709 200 132.709C253.784 132.709 302.445 137.758 337.632 145.905C355.234 149.98 369.409 154.819 379.159 160.156C384.035 162.825 387.757 165.594 390.25 168.414C392.737 171.229 393.96 174.046 393.96 176.85Z" stroke="#3573EC" stroke-width="2"/>
</svg>
