<svg width="179" height="195" viewBox="0 0 179 195" fill="none" xmlns="http://www.w3.org/2000/svg">
<g id="image-gift" clip-path="url(#clip0_2279_8164)">
<path id="XMLID_395_" d="M109.33 69.1301C109.379 69.1871 108.694 68.749 108.371 67.7366C108.005 66.7381 107.802 65.2548 107.787 63.4042C107.762 61.5499 107.94 59.3253 108.308 56.8055C108.706 54.294 109.253 51.4731 110.115 48.4663C110.943 45.4475 112.042 42.2316 113.453 38.9025C114.851 35.5689 116.61 32.1389 118.931 28.7989C120.105 27.1397 121.413 25.4971 122.965 23.9646C124.51 22.434 126.295 20.9909 128.462 19.8801C130.601 18.7818 133.313 18.084 135.986 18.5143C137.311 18.7121 138.56 19.1732 139.671 19.7641C140.764 20.3294 141.81 21.1733 142.532 21.757C144.271 23.167 145.845 24.7075 147.204 26.6169C148.531 28.5046 149.548 30.9237 149.503 33.4672C149.477 36.0107 148.453 38.2826 147.229 40.0831C145.982 41.8962 144.524 43.3858 143.036 44.7183C140.04 47.3656 136.935 49.4821 133.956 51.3869C130.977 53.2904 128.136 55.0029 125.546 56.6179C120.347 59.8168 116.212 62.7306 113.572 65.066C112.25 66.2297 111.301 67.2348 110.691 67.9495C110.381 68.3045 110.161 68.589 110.015 68.7812C109.865 68.9728 109.788 69.0723 109.788 69.0723L109.33 69.1301ZM109.555 68.3229C109.688 68.1181 109.868 67.8392 110.115 67.5048C110.683 66.7174 111.575 65.6035 112.831 64.3009C115.321 61.6687 119.366 58.4392 124.347 54.8539C126.832 53.0514 129.545 51.1439 132.34 49.0692C135.113 46.9791 138.046 44.7832 140.636 42.202C141.925 40.9179 143.118 39.5279 144.017 38.0477C144.905 36.5653 145.438 34.9989 145.358 33.5202C145.272 30.5581 142.595 27.7226 139.618 25.5754C136.588 23.1891 133.931 23.079 131.162 24.7872C128.432 26.4924 126.139 29.439 124.141 32.3492C122.128 35.2984 120.402 38.3962 118.826 41.3814C117.269 44.3813 115.938 47.316 114.756 50.0513C113.613 52.8012 112.586 55.3461 111.804 57.642C110.996 59.929 110.39 61.9561 109.978 63.6327C109.576 65.3095 109.389 66.6454 109.422 67.5113C109.437 67.892 109.496 68.1457 109.555 68.3229Z" fill="#C6D4ED"/>
<path id="XMLID_393_" d="M103.94 69.8608C103.858 69.696 103.724 69.4776 103.47 69.2043C102.89 68.5785 101.828 67.7763 100.373 66.8862C98.9131 66.0014 97.0702 65.0066 94.9022 63.97C92.7465 62.9092 90.2444 61.8443 87.5155 60.716C84.7688 59.6244 81.7777 58.4976 78.5811 57.48C75.3806 56.4854 71.9951 55.5171 68.5092 54.8495C65.0602 54.1979 61.3765 53.7247 58.2454 54.4188C55.084 55.1357 53.2704 57.0439 52.7743 60.7938C52.1498 64.3411 52.2179 68.1622 54.2188 70.2863C55.1905 71.372 56.6617 72.0955 58.3265 72.5153C59.9969 72.9274 61.8147 73.0741 63.6262 73.08C67.2658 73.0934 70.8833 72.6019 74.3125 72.1485C77.7461 71.6694 81.0059 71.1275 84.0298 70.671C90.0722 69.7373 95.2007 69.1995 98.8057 69.318C100.607 69.3599 102.018 69.521 102.969 69.6787C103.381 69.7391 103.702 69.809 103.94 69.8608ZM104.298 70.5436C104.298 70.5436 104.174 70.5276 103.934 70.496C103.696 70.4629 103.34 70.4158 102.873 70.3826C101.94 70.3046 100.565 70.259 98.8133 70.3587C95.3079 70.5513 90.3351 71.3704 84.4067 72.7243C81.4383 73.3833 78.2234 74.1489 74.7779 74.8744C71.3309 75.599 67.6473 76.2655 63.6718 76.4845C61.6834 76.5825 59.6096 76.5487 57.4591 76.1449C55.3341 75.7329 53.0231 74.8562 51.2341 73.1015C49.43 71.3607 48.4716 68.9744 48.1012 66.7437C47.7378 64.4781 47.7861 62.3195 48.042 60.1384C48.15 59.2338 48.3069 57.9255 48.6927 56.7782C49.0718 55.6007 49.6406 54.4191 50.4455 53.3682C52.048 51.2255 54.4647 49.8435 56.7528 49.1346C59.0693 48.4144 61.3422 48.1923 63.5104 48.1935C65.6815 48.1915 67.756 48.4339 69.748 48.7808C73.725 49.5095 77.364 50.6875 80.6821 52.046C84.0039 53.3949 87.0269 54.8755 89.7175 56.4095C92.4246 57.9108 94.779 59.498 96.8099 60.9742C98.8263 62.4764 100.501 63.9031 101.774 65.2127C103.052 66.5125 103.94 67.6857 104.375 68.634C104.85 69.5618 104.667 70.339 104.661 70.2656L104.298 70.5436Z" fill="#C6D4ED"/>
<path id="XMLID_4526_" d="M229.03 190.474C177.425 202.65 126.087 217.374 75.1892 234.67C66.0386 206.697 42.5461 126.588 33.7565 98.4601C86.8608 80.456 140.442 65.1243 194.317 52.4426C200.861 81.16 222.111 161.877 229.03 190.474Z" fill="#C6D4ED"/>
<path id="XMLID_390_" d="M214.039 114.456C214.039 114.456 211.578 115.624 207.214 117.505C205.034 118.452 202.376 119.568 199.318 120.823C196.256 122.067 192.802 123.47 189.008 124.928C187.111 125.658 185.136 126.419 183.092 127.206C181.039 127.966 178.916 128.752 176.732 129.562C172.372 131.194 167.738 132.812 162.93 134.445C158.112 136.051 153.107 137.629 148.008 139.196C142.917 140.79 137.746 142.41 132.575 144.028C122.247 147.309 111.92 150.59 102.237 153.666C92.5619 156.762 83.5048 159.574 75.7445 161.994C60.2161 166.81 49.8653 170.021 49.8653 170.021L49.6877 169.51C49.6877 169.51 59.8576 165.774 75.1125 160.172C82.7436 157.382 91.6436 154.117 101.207 150.701C110.764 147.266 120.958 143.601 131.152 139.936C136.242 138.082 141.331 136.229 146.34 134.405C151.341 132.553 156.276 130.767 161.077 129.116C165.889 127.493 170.554 125.965 175.011 124.614C177.237 123.929 179.402 123.265 181.497 122.62C183.601 122.003 185.634 121.407 187.585 120.835C191.486 119.689 195.087 118.706 198.277 117.831C201.472 116.972 204.265 116.241 206.575 115.669C211.19 114.513 213.86 113.943 213.86 113.943L214.039 114.456Z" fill="white"/>
<path id="XMLID_389_" d="M109.237 74.3965C109.237 74.3965 110.287 76.3887 111.949 79.9338C112.786 81.7041 113.765 83.8666 114.862 86.3559C115.944 88.8504 117.169 91.6632 118.423 94.7605C119.052 96.3088 119.707 97.9199 120.385 99.5887C121.033 101.267 121.705 103.003 122.393 104.786C123.789 108.347 125.149 112.143 126.509 116.084C127.841 120.033 129.128 124.147 130.396 128.339C131.692 132.521 133.01 136.771 134.329 141.02C137.011 149.501 139.693 157.982 142.207 165.934C144.744 173.878 147.027 181.321 148.993 187.699C152.901 200.46 155.506 208.968 155.506 208.968L154.947 209.158C154.947 209.158 151.769 200.843 147.002 188.373C144.63 182.134 141.854 174.857 138.967 167.032C136.06 159.213 132.958 150.874 129.857 142.534C128.283 138.373 126.708 134.21 125.159 130.114C123.581 126.026 122.066 121.992 120.686 118.057C119.337 114.111 118.075 110.284 116.985 106.618C116.433 104.788 115.894 103.008 115.373 101.286C114.882 99.5543 114.406 97.8819 113.951 96.2751C113.037 93.0629 112.274 90.0938 111.593 87.4634C110.93 84.827 110.372 82.5217 109.944 80.6121C109.075 76.7981 108.679 74.5846 108.679 74.5846L109.237 74.3965Z" fill="white"/>
</g>
<defs>
<clipPath id="clip0_2279_8164">
<rect width="200" height="200" fill="white" transform="translate(0.795898 52.7246) rotate(-15)"/>
</clipPath>
</defs>
</svg>
