<svg width="60" height="60" viewBox="0 0 60 60" fill="none" xmlns="http://www.w3.org/2000/svg">
<path d="M36.9707 21.9852L22.1256 35.6266L13.8483 11.6889L36.9707 21.9852Z" fill="#3573EC"/>
<path d="M12.358 12.1804L5 35.243L20.6627 36.0956L12.358 12.1804Z" fill="#3573EC"/>
<path d="M20.6627 37.5023L21.5232 54L5 36.5645L20.6627 37.5023Z" fill="#3573EC"/>
<path d="M22.3838 38.0565L23.1583 54L45.5336 48.8844L22.3838 38.0565Z" fill="#3573EC"/>
<path d="M37.9156 23.1362L23.0723 36.9055L47.2117 47.8187L37.9156 23.1362Z" fill="#3573EC"/>
<path d="M39.8107 22.7099L48.4165 46.8809L55 25.5556L39.8107 22.7099Z" fill="#3573EC"/>
<path d="M39.0792 20.2222L55 23.1362L39.0792 6V20.2222Z" fill="#3573EC"/>
<path d="M37.2077 6L14.9101 10.6161L37.2077 19.8667V6Z" fill="#C6D4ED"/>
<path d="M24.8201 36.9333C24.8201 38.897 23.2355 40.4889 21.2808 40.4889C19.3261 40.4889 17.7415 38.897 17.7415 36.9333C17.7415 34.9697 19.3261 33.3778 21.2808 33.3778C23.2355 33.3778 24.8201 34.9697 24.8201 36.9333Z" fill="white"/>
<path d="M41.1009 21.2889C41.1009 23.2526 39.5163 24.8444 37.5616 24.8444C35.6069 24.8444 34.0223 23.2526 34.0223 21.2889C34.0223 19.3252 35.6069 17.7333 37.5616 17.7333C39.5163 17.7333 41.1009 19.3252 41.1009 21.2889Z" fill="white"/>
</svg>
