<svg width="80" height="80" viewBox="0 0 80 80" fill="none" xmlns="http://www.w3.org/2000/svg">
<g clip-path="url(#clip0_1_487)">
<g clip-path="url(#clip1_1_487)">
<path d="M49.6206 13.988C49.7098 14.8876 49.5165 15.6459 48.7731 16.0622C48.223 16.3744 47.6803 16.1142 47.1747 15.7574C46.8105 15.5046 46.4462 15.2519 46.0596 15.0288C42.5283 12.9844 38.9822 10.769 35.4584 8.72459C33.7634 7.74327 33.8675 7.78788 35.3469 6.66531C37.369 5.11898 38.9525 5.38662 41.1976 6.643C43.3982 7.87709 45.0411 8.80637 47.0186 9.99585C48.669 10.8285 49.5314 11.7726 49.6206 13.988Z" fill="#505962"/>
<path d="M65.1656 34.5214C64.4296 35.0492 63.6713 35.2574 62.9428 34.8188C62.4001 34.4916 62.3555 33.8895 62.4075 33.2799C62.4447 32.8338 62.4818 32.3952 62.4818 31.9491C62.4967 27.8677 62.6528 23.6897 62.6751 19.6232C62.6826 17.668 62.6974 17.7795 64.4073 18.5006C66.7565 19.4894 67.3141 20.9911 67.3364 23.5633C67.3661 26.0835 67.381 27.9718 67.3215 30.2764C67.433 32.1276 67.0465 33.3393 65.1656 34.5214Z" fill="#505962"/>
<path d="M55.7537 56.5907C54.968 56.5907 53.7418 56.5907 53.7418 56.5907C53.7418 56.5907 53.7382 56.4994 53.739 56.4524C53.7539 55.8205 54.252 55.4785 54.8021 55.2258C55.2036 55.0399 55.605 54.8466 55.9916 54.631C59.5377 52.6089 63.24 50.6686 66.7787 48.6613C68.4811 47.6949 68.3919 47.7618 68.6149 49.598C68.9272 52.1257 67.9012 53.3523 65.6858 54.6608C64.4661 55.3792 62.3702 56.5907 62.3702 56.5907H58.329C58.329 56.5907 56.7594 56.5907 55.7537 56.5907Z" fill="#505962"/>
<path d="M14.1295 40.6472C14.8655 40.1268 15.6238 39.9261 16.3524 40.3647C16.8951 40.6918 16.9323 41.294 16.8728 41.9036C16.8282 42.3496 16.791 42.7883 16.791 43.2343C16.7464 47.3157 16.5605 51.4937 16.5085 55.5603C16.5034 56.0084 16.4739 56.5964 16.4739 56.5964H15.4031H14.5905C14.5905 56.5964 11.8842 54.096 11.877 51.5904C11.8695 49.0702 11.8695 47.1819 11.9364 44.8773C11.8472 43.0336 12.2487 41.8144 14.1295 40.6472Z" fill="#505962"/>
<path d="M24.3814 17.0212C25.1992 17.4003 25.7493 17.9579 25.727 18.8128C25.7121 19.4447 25.2066 19.7793 24.649 20.032C24.2476 20.2179 23.8461 20.4038 23.4596 20.6193C19.8986 22.6117 16.1814 24.5298 12.6279 26.5073C10.918 27.4588 11.0146 27.3919 10.799 25.5557C10.5091 23.028 11.5425 21.8014 13.7653 20.5153C15.951 19.2514 17.5865 18.3147 19.6235 17.2293C21.1772 16.2257 22.4336 15.9655 24.3814 17.0212Z" fill="#505962"/>
<path d="M56.7649 8.78406C53.7912 8.78406 51.3751 11.2002 51.3751 14.1739C51.3751 16.196 52.4977 17.9653 54.1481 18.8872C54.1183 23.6451 54.1035 28.3956 54.1258 33.1535C54.1332 34.4545 53.5979 35.0492 52.5497 35.8819C51.9401 36.3725 51.4494 36.8037 51.0629 37.22C50.7135 37.5917 50.1856 37.7479 49.6875 37.6289L46.2157 36.826C46.6544 38.3426 46.2752 40.0004 45.227 41.1825L49.6875 42.2158C49.8511 42.253 50.0072 42.253 50.1633 42.2307C50.3715 42.3125 50.6614 42.201 51.0183 42.0002C52.1111 41.3683 55.6944 39.3685 56.4081 38.9299C57.9916 37.9634 58.6978 37.0788 58.6532 35.1905C58.5417 29.875 58.5194 24.5446 58.6755 19.2292C60.7125 18.456 62.1548 16.4859 62.1548 14.1887C62.1622 11.2002 59.7386 8.78406 56.7649 8.78406ZM58.6904 17.1401C58.1403 17.497 57.4786 17.7126 56.7649 17.7126C55.7316 17.7126 54.8097 17.274 54.1629 16.5677C53.5831 15.9358 53.2337 15.0957 53.2337 14.1813C53.2337 12.2261 54.8172 10.6501 56.7649 10.6501C58.7201 10.6501 60.2962 12.2335 60.2962 14.1813C60.3036 15.4154 59.6643 16.5082 58.6904 17.1401Z" fill="#505962"/>
<path d="M43.5915 39.7923L42.9893 40.4316L42.8481 40.5877L42.0972 41.3832C41.495 42.03 40.588 42.305 39.7331 42.1043L38.8559 41.9036L38.7072 41.8664L37.5772 41.6062C36.7074 41.4055 36.016 40.7513 35.7632 39.8963L35.5253 39.0934L35.4807 38.9299L35.1462 37.7924C34.9083 36.9524 35.1164 36.0454 35.7112 35.4061L36.3134 34.7667L36.4546 34.618L37.2129 33.8077C37.6813 33.3022 38.3429 33.0271 39.0194 33.0271C39.2053 33.0271 39.3911 33.042 39.5696 33.0866L40.4394 33.2873L40.6029 33.3245L41.7181 33.5847C42.5879 33.7854 43.2867 34.4396 43.532 35.2945L43.7699 36.1123L43.8145 36.2759L44.149 37.4133C44.4018 38.2459 44.1862 39.1603 43.5915 39.7923Z" fill="#505962"/>
<path d="M68.5854 35.7183C65.6935 35.7183 63.3219 38.0081 63.1956 40.8777C59.0473 43.2269 54.9064 45.5836 50.7804 47.9774C49.6578 48.6316 48.8772 48.4606 47.6357 47.9625C46.8551 47.6503 46.2009 47.4347 45.621 47.3083C45.0932 47.1968 44.6769 46.8102 44.5282 46.2972L43.5469 42.9593C42.6771 43.8365 41.495 44.3123 40.2832 44.3123C39.9413 44.3123 39.5844 44.2751 39.2499 44.1934L40.5434 48.6093C40.6252 48.8844 40.8036 49.1074 41.0267 49.2486C41.1307 49.3973 41.324 49.5311 41.5768 49.6798C42.6696 50.3192 46.186 52.4231 46.922 52.8245C48.5501 53.7166 49.6652 53.8876 51.2859 52.9137C55.7762 50.2002 60.3259 47.5685 64.95 45.0855C65.9091 45.9627 67.1878 46.498 68.5854 46.498C71.5591 46.498 73.9752 44.0818 73.9752 41.1081C73.9752 38.1345 71.5591 35.7183 68.5854 35.7183ZM68.5854 44.6468C67.9014 44.6468 67.2621 44.4536 66.7194 44.1116C65.7158 43.4871 65.0467 42.3794 65.0467 41.1081C65.0467 40.5877 65.1582 40.0897 65.3664 39.6436C65.9239 38.4244 67.158 37.5694 68.5854 37.5694C70.5406 37.5694 72.1167 39.1529 72.1167 41.1007C72.1241 43.0634 70.5406 44.6468 68.5854 44.6468Z" fill="#505962"/>
<path d="M41.4209 56.5974H42.1128H43.3574C43.3574 56.5974 38.6365 53.8354 36.2687 52.4677C35.1461 51.8209 34.9083 51.0552 34.715 49.7245C34.596 48.9067 34.4548 48.2376 34.2838 47.68C34.1277 47.1745 34.2466 46.6244 34.6034 46.2378L37.0121 43.673C35.4733 43.2864 34.2317 42.1341 33.7485 40.6249L30.6261 43.9629C30.4477 44.1488 30.3436 44.3792 30.3288 44.6171V44.6246C30.247 44.7881 30.2247 45.026 30.2247 45.3159C30.2172 46.5798 30.1355 50.6835 30.1578 51.5235C30.2024 53.3821 30.6038 54.4378 32.2542 55.3522C32.9954 55.7653 34.4748 56.5974 34.4748 56.5974H39.6H40.1177H40.4H41.0514H41.4209Z" fill="#505962"/>
<path d="M34.0831 34.0085L29.6151 32.9677C29.34 32.9082 29.065 32.9454 28.8345 33.0643C28.6933 33.1015 28.5223 33.1832 28.3364 33.2873C27.2361 33.9118 23.638 35.8819 22.9168 36.3205C21.3334 37.2795 20.6197 38.1568 20.642 40.0451C20.7163 45.472 20.694 50.9065 20.4858 56.3335C20.2585 56.4389 19.9413 56.5933 19.9413 56.5933C19.9413 56.5933 19.7438 56.59 22.7175 56.59C25.6912 56.59 24.8 56.5874 24.8 56.5874L25.4937 56.5866C25.4937 56.5866 25.1781 56.4099 25.0133 56.3335C25.0802 51.5904 25.1322 46.8474 25.1397 42.1043C25.1471 40.8033 25.6898 40.216 26.738 39.3908C27.3848 38.8853 27.9052 38.4318 28.2992 37.9932C28.6486 37.6215 29.1765 37.4654 29.6746 37.5769L33.0572 38.3575C32.6483 36.8409 33.0274 35.1831 34.0831 34.0085Z" fill="#505962"/>
<path d="M38.7518 26.5816C38.6551 26.2471 38.4098 25.9869 38.1198 25.8531H38.1124C38.0306 25.7936 37.9414 25.7341 37.8373 25.6746C36.752 25.0279 33.2504 22.8942 32.5144 22.4854C30.8863 21.5858 29.7786 21.4 28.1505 22.3664C23.3852 25.1914 18.5529 27.9347 13.6389 30.4995C12.7914 29.9419 11.7803 29.6222 10.6949 29.6222C7.72124 29.6222 5.30511 32.0384 5.30511 35.0121C5.30511 37.9857 7.72124 40.4019 10.6949 40.4019C13.6686 40.4019 16.0848 37.9857 16.0848 35.0121C16.0848 34.789 16.0699 34.5734 16.0476 34.3578C20.2479 32.0235 24.4334 29.6817 28.6115 27.3027C29.7415 26.656 30.5221 26.8344 31.7561 27.3399C32.5293 27.6522 33.1761 27.8677 33.7485 28.0016C34.2615 28.1205 34.6555 28.5071 34.8042 29.0052L35.7409 32.2242C36.8635 31.1016 38.4841 30.6333 40.0379 30.9827L38.7518 26.5816ZM10.7024 38.5507C8.74717 38.5507 7.17111 36.9673 7.17111 35.0195C7.17111 33.0717 8.7546 31.4882 10.7024 31.4882C11.0964 31.4882 11.483 31.5551 11.8398 31.6741C13.2374 32.1499 14.2411 33.4657 14.2411 35.0195C14.2411 35.1459 14.2336 35.2648 14.2188 35.3912C14.0329 37.168 12.5238 38.5507 10.7024 38.5507Z" fill="#505962"/>
<path d="M49.0779 23.7789C49.0259 21.9203 48.6096 20.8721 46.9517 19.9651C42.0898 17.3111 37.2575 14.5604 32.5442 11.6462C32.5516 11.557 32.5516 11.4678 32.5516 11.3786C32.5516 8.4049 30.1281 5.98877 27.1618 5.98877C24.1881 5.98877 21.772 8.4049 21.772 11.3786C21.772 14.3523 24.1881 16.7684 27.1618 16.7684C28.3884 16.7684 29.5185 16.3595 30.418 15.6682C34.5812 18.0917 38.7518 20.5078 42.9447 22.8868C44.0747 23.5261 44.32 24.2919 44.5282 25.6152C44.6546 26.4181 44.7884 27.0648 44.9594 27.6224C45.1155 28.1205 44.9891 28.6558 44.6248 29.0349L42.2979 31.5179C43.8368 31.9045 45.0783 33.0643 45.5541 34.5734L48.6839 31.2354C48.8549 31.0496 48.9516 30.8414 48.9813 30.611V30.6035C49.0333 30.44 49.0556 30.2318 49.0556 29.9865C49.0482 28.7227 49.1002 24.619 49.0779 23.7789ZM28.5892 14.6051C28.1505 14.7983 27.6673 14.9099 27.1544 14.9099C25.1992 14.9099 23.6231 13.3264 23.6231 11.3786C23.6231 9.42339 25.2066 7.84733 27.1544 7.84733C28.8717 7.84733 30.3065 9.07398 30.6187 10.6946C30.6633 10.9177 30.6856 11.1481 30.6856 11.3786C30.6856 12.8134 29.8233 14.0549 28.5892 14.6051Z" fill="#505962"/>
<path d="M18.8907 62.8679C18.7179 62.8679 18.6123 62.9255 18.6123 63.1431V68.8455C18.6123 69.0151 18.6699 69.1207 18.8907 69.1207H19.7547C19.9915 69.1207 20.0587 68.9863 20.1835 68.7975L22.1963 65.5367V68.8455C22.1963 69.0631 22.3019 69.1207 22.4715 69.1207H23.4123C23.5851 69.1207 23.6875 69.0631 23.6875 68.8455V63.1431C23.6875 62.9703 23.6331 62.8679 23.4123 62.8679H22.5195C22.2827 62.8679 22.2155 62.9991 22.0907 63.1911L20.0779 66.4391V63.1431C20.0779 62.9255 19.9723 62.8679 19.8027 62.8679H18.8907Z" fill="#505962"/>
<path d="M28.7275 62.8679H26.5867C26.3691 62.8679 26.3115 62.9703 26.3115 63.1431V68.8455C26.3115 69.0631 26.4171 69.1207 26.5867 69.1207H27.5275C27.7003 69.1207 27.8027 69.0631 27.8027 68.8455V67.2679H28.7179C30.3403 67.2679 31.2171 66.3943 31.2171 65.0727C31.2171 63.7607 30.3595 62.8679 28.7275 62.8679ZM28.7179 65.9847H27.8027V64.2087H28.7179C29.4571 64.2087 29.7803 64.6055 29.7803 65.1015C29.7803 65.5751 29.4571 65.9847 28.7179 65.9847Z" fill="#505962"/>
<path d="M33.7739 69.1207H37.8699V69.7191C37.8699 69.9367 37.9723 69.9943 38.1451 69.9943H38.9227C39.0955 69.9943 39.1979 69.9367 39.1979 69.7191V68.0839C39.1979 67.9143 39.1435 67.8087 38.9227 67.8087H38.4683V63.1431C38.4683 62.9255 38.3627 62.8679 38.1931 62.8679H37.2523C37.0699 62.8679 36.9739 62.9255 36.9739 63.1431V67.8759H34.9899V63.1431C34.9899 62.9255 34.8843 62.8679 34.7147 62.8679H33.7739C33.6011 62.8679 33.4955 62.9255 33.4955 63.1431V68.8455C33.4955 69.0631 33.6011 69.1207 33.7739 69.1207Z" fill="#505962"/>
<path d="M41.1467 67.2679C41.1467 68.4935 42.4395 69.2647 43.6203 69.2647C44.7499 69.2647 46.1643 68.6087 46.1643 67.1143V64.8711C46.1643 63.3799 44.7499 62.7239 43.6203 62.7239C42.4395 62.7239 41.2715 63.3223 41.1467 64.5287C41.1467 64.7591 41.2235 64.8071 41.4411 64.8071H42.3563C42.5547 64.8071 42.5643 64.6247 42.6411 64.5127C42.8395 64.1991 43.1051 64.0551 43.6203 64.0551C44.2475 64.0551 44.6731 64.4071 44.6731 65.0055V65.2711H43.1435C42.9259 65.2711 42.8683 65.3767 42.8683 65.5463V66.2599C42.8683 66.4295 42.9259 66.5351 43.1435 66.5351H44.6731V66.9831C44.6731 67.5911 44.2475 67.9335 43.6203 67.9335C43.1051 67.9335 42.6955 67.7415 42.6219 67.2871C42.5931 67.0951 42.5739 66.9447 42.3627 66.9447H41.4315C41.2235 66.9447 41.1467 67.0407 41.1467 67.2679Z" fill="#505962"/>
<path d="M48.9419 62.8679C48.7691 62.8679 48.6667 62.9255 48.6667 63.1431V68.8455C48.6667 69.0151 48.7211 69.1207 48.9419 69.1207H49.8059C50.0427 69.1207 50.1099 68.9863 50.2347 68.7975L52.2475 65.5367V68.8455C52.2475 69.0631 52.3531 69.1207 52.5227 69.1207H53.4635C53.6363 69.1207 53.7419 69.0631 53.7419 68.8455V63.1431C53.7419 62.9703 53.6843 62.8679 53.4635 62.8679H52.5707C52.3339 62.8679 52.2667 62.9991 52.1451 63.1911L50.1291 66.4391V63.1431C50.1291 62.9255 50.0235 62.8679 49.8539 62.8679H48.9419Z" fill="#505962"/>
<path d="M60.5931 62.8679H56.1835C55.9659 62.8679 55.9083 62.9703 55.9083 63.1431V63.9303C55.9083 64.1031 55.9659 64.2087 56.1835 64.2087H57.6459V68.8455C57.6459 69.0631 57.7515 69.1207 57.9211 69.1207H58.8619C59.0347 69.1207 59.1403 69.0631 59.1403 68.8455V64.2087H60.5931C60.8107 64.2087 60.8683 64.1031 60.8683 63.9303V63.1431C60.8683 62.9703 60.8107 62.8679 60.5931 62.8679Z" fill="#505962"/>
<path d="M52.1611 76.4413H27.3412C27.1627 76.4413 27.0436 76.2595 27.0436 75.9869C27.0436 75.7142 27.1627 75.5325 27.3412 75.5325H52.1313C52.3099 75.5325 52.4289 75.7142 52.4289 75.9869C52.4289 76.2595 52.3099 76.4413 52.1611 76.4413Z" fill="#505962"/>
</g>
</g>
<defs>
<clipPath id="clip0_1_487">
<rect width="80" height="80" fill="white"/>
</clipPath>
<clipPath id="clip1_1_487">
<rect width="80" height="80" fill="white"/>
</clipPath>
</defs>
</svg>
