<svg width="310" height="60" viewBox="0 0 310 60" fill="none" xmlns="http://www.w3.org/2000/svg">
<g clip-path="url(#clip0_794_5326)">
<path d="M70 6.15659H73.4449V13.8606C73.3614 14.1529 73.2779 14.44 73.1944 14.7219C73.1839 14.8263 73.1787 14.9307 73.1787 15.035C73.2518 15.035 73.3196 14.9672 73.3823 14.8315C73.4553 14.6958 73.5232 14.5601 73.5858 14.4244L79.4735 6.15659H85.1106V17.3369H81.6657V9.61715C81.6657 9.60671 81.7544 9.31964 81.9319 8.75592C81.9319 8.65153 81.9371 8.54714 81.9476 8.44275C81.8745 8.44275 81.8014 8.51582 81.7283 8.66197C81.6657 8.79768 81.6031 8.92817 81.5404 9.05344L75.6371 17.3369H70V6.15659Z" fill="#1B1D20"/>
<path d="M88.7938 6.14093H97.2182C99.0555 6.14093 100.266 6.36537 100.851 6.81425C101.582 7.36752 101.947 8.55236 101.947 10.3688C101.947 12.1747 101.587 13.3544 100.867 13.9076C100.272 14.3669 99.0555 14.5966 97.2182 14.5966H92.2387V17.3369H88.7938V6.14093ZM92.2387 11.6998H97.2182C97.6253 11.6998 97.9333 11.611 98.142 11.4336C98.3926 11.2248 98.5178 10.8698 98.5178 10.3688C98.5178 9.87813 98.3926 9.5232 98.142 9.30398C97.9333 9.12651 97.6253 9.03778 97.2182 9.03778H92.2387V11.6998Z" fill="#1B1D20"/>
<path d="M108.193 14.44H115.239V6.14093H118.684V14.44H119.78V19.1376H116.335V18.0415C116.335 17.791 116.278 17.6083 116.163 17.4935C116.059 17.3891 115.871 17.3369 115.599 17.3369H104.748V6.14093H108.193V14.44Z" fill="#1B1D20"/>
<path d="M129.09 6C132.336 6 134.304 6.30273 134.993 6.9082C135.619 7.46148 135.933 9.07432 135.933 11.7467C135.933 14.4191 135.593 16.0476 134.915 16.6322C134.247 17.2168 132.305 17.5091 129.09 17.5091C126.386 17.5091 124.622 17.3473 123.797 17.0237C122.753 16.6166 122.231 15.7084 122.231 14.2991V13.0464H125.676C125.676 13.8189 125.833 14.273 126.146 14.4087C126.469 14.5444 127.451 14.6123 129.09 14.6123C130.729 14.6123 131.705 14.5392 132.018 14.393C132.341 14.2469 132.503 13.7719 132.503 12.9681H127.336V10.541H132.503C132.503 9.7372 132.341 9.26222 132.018 9.11607C131.694 8.96993 130.718 8.89685 129.09 8.89685C127.461 8.89685 126.485 8.96993 126.161 9.11607C125.838 9.25178 125.676 9.70066 125.676 10.4627H122.231V9.22568C122.231 7.80597 122.753 6.89254 123.797 6.48542C124.622 6.16181 126.386 6 129.09 6Z" fill="#1B1D20"/>
<path d="M138.491 6.15659H141.936V13.8606C141.853 14.1529 141.769 14.44 141.686 14.7219C141.675 14.8263 141.67 14.9307 141.67 15.035C141.743 15.035 141.811 14.9672 141.874 14.8315C141.947 14.6958 142.015 14.5601 142.077 14.4244L147.965 6.15659H153.602V17.3369H150.157V9.61715C150.157 9.60671 150.246 9.31964 150.423 8.75592C150.423 8.65153 150.428 8.54714 150.439 8.44275C150.366 8.44275 150.293 8.51582 150.22 8.66197C150.157 8.79768 150.094 8.92817 150.032 9.05344L144.128 17.3369H138.491V6.15659Z" fill="#1B1D20"/>
<path d="M156.674 9.03778V6.14093H170V9.03778H165.068V17.3369H161.623V9.03778H156.674Z" fill="#1B1D20"/>
<path d="M70.1578 35.3512V26.8445C70.1578 26.7225 70.183 26.6362 70.2335 26.5858C70.284 26.5353 70.3702 26.51 70.4922 26.51H71.0602C71.1906 26.51 71.2811 26.5353 71.3315 26.5858C71.382 26.6362 71.4073 26.7225 71.4073 26.8445V31.2556C71.4073 31.8488 71.3904 32.3347 71.3568 32.7134C71.3231 33.0878 71.2621 33.5569 71.1738 34.1207H71.2116C71.4178 33.6747 71.6218 33.2771 71.8238 32.9279C72.0257 32.5746 72.2929 32.1454 72.6252 31.6406L75.9825 26.6804C76.054 26.5668 76.1655 26.51 76.317 26.51H76.9038C77.0301 26.51 77.1163 26.5353 77.1626 26.5858C77.2131 26.632 77.2383 26.7183 77.2383 26.8445V35.3512C77.2383 35.4774 77.2131 35.5658 77.1626 35.6163C77.1163 35.6626 77.0301 35.6857 76.9038 35.6857H76.3296C76.2034 35.6857 76.115 35.6626 76.0645 35.6163C76.0182 35.5658 75.9951 35.4774 75.9951 35.3512V30.8517C75.9951 30.2501 76.0098 29.7705 76.0393 29.4129C76.0729 29.0511 76.136 28.6052 76.2286 28.0751H76.1781C75.993 28.4958 75.8121 28.8618 75.6354 29.1731C75.4587 29.4802 75.1958 29.903 74.8466 30.4416L71.4199 35.5153C71.34 35.6289 71.2243 35.6857 71.0728 35.6857H70.4922C70.3702 35.6857 70.284 35.6605 70.2335 35.61C70.183 35.5595 70.1578 35.4732 70.1578 35.3512Z" fill="#585A66"/>
<path d="M78.999 35.3765V29.3246C78.999 29.2068 79.02 29.1268 79.0621 29.0848C79.1084 29.0385 79.1904 29.0153 79.3082 29.0153H79.8509C79.9687 29.0153 80.0486 29.0385 80.0907 29.0848C80.137 29.1268 80.1601 29.2068 80.1601 29.3246V31.7415H83.429V29.3246C83.429 29.2068 83.4522 29.1268 83.4985 29.0848C83.5447 29.0385 83.6268 29.0153 83.7446 29.0153H84.2873C84.4051 29.0153 84.485 29.0385 84.5271 29.0848C84.5734 29.1268 84.5965 29.2068 84.5965 29.3246V35.3765C84.5965 35.4943 84.5734 35.5763 84.5271 35.6226C84.485 35.6647 84.4051 35.6857 84.2873 35.6857H83.7446C83.6268 35.6857 83.5447 35.6647 83.4985 35.6226C83.4522 35.5763 83.429 35.4943 83.429 35.3765V32.8144H80.1601V35.3765C80.1601 35.4943 80.137 35.5763 80.0907 35.6226C80.0486 35.6647 79.9687 35.6857 79.8509 35.6857H79.3082C79.1946 35.6857 79.1147 35.6626 79.0684 35.6163C79.0221 35.57 78.999 35.4901 78.999 35.3765Z" fill="#585A66"/>
<path d="M85.9722 33.2687V31.4197C85.9722 30.5993 86.2141 29.9619 86.698 29.5076C87.186 29.0532 87.9096 28.826 88.8688 28.826C89.6177 28.826 90.2172 28.9796 90.6674 29.2867C91.1175 29.5938 91.4267 30.0166 91.595 30.5551C91.6371 30.6772 91.6413 30.7718 91.6076 30.8391C91.574 30.9064 91.5004 30.959 91.3868 30.9969L90.9387 31.1357C90.8209 31.182 90.7284 31.1883 90.661 31.1547C90.5979 31.121 90.5432 31.0453 90.497 30.9275C90.375 30.5615 90.1814 30.2901 89.9164 30.1134C89.6513 29.9325 89.2853 29.842 88.8183 29.842C88.263 29.842 87.8423 29.9746 87.5562 30.2396C87.2743 30.5047 87.1334 30.8812 87.1334 31.3692V33.3192C87.1334 33.8072 87.2764 34.1859 87.5625 34.4551C87.8528 34.7244 88.2714 34.859 88.8183 34.859C89.706 34.859 90.2698 34.4846 90.5096 33.7357C90.5601 33.6137 90.6148 33.5401 90.6737 33.5148C90.7368 33.4854 90.8293 33.4896 90.9513 33.5275L91.3994 33.6537C91.5214 33.6999 91.5992 33.7546 91.6329 33.8177C91.6665 33.8766 91.6623 33.9692 91.6203 34.0954C91.4057 34.6844 91.0691 35.1304 90.6106 35.4333C90.152 35.732 89.5462 35.8813 88.7931 35.8813C87.8591 35.8813 87.1544 35.6541 86.679 35.1998C86.2078 34.7412 85.9722 34.0975 85.9722 33.2687Z" fill="#585A66"/>
<path d="M92.2387 29.7789V29.3246C92.2387 29.2068 92.2597 29.1268 92.3018 29.0848C92.3481 29.0385 92.4301 29.0153 92.5479 29.0153H97.4702C97.588 29.0153 97.668 29.0385 97.71 29.0848C97.7563 29.1268 97.7794 29.2068 97.7794 29.3246V29.7789C97.7794 29.8967 97.7563 29.9788 97.71 30.0251C97.668 30.0671 97.588 30.0882 97.4702 30.0882H95.5833V35.3765C95.5833 35.4943 95.5623 35.5763 95.5202 35.6226C95.4782 35.6647 95.4003 35.6857 95.2867 35.6857H94.744C94.6262 35.6857 94.5442 35.6647 94.4979 35.6226C94.4558 35.5763 94.4348 35.4943 94.4348 35.3765V30.0882H92.5479C92.4301 30.0882 92.3481 30.0671 92.3018 30.0251C92.2597 29.9788 92.2387 29.8967 92.2387 29.7789Z" fill="#585A66"/>
<path d="M98.7639 35.3765V29.3246C98.7639 29.2068 98.7849 29.1268 98.827 29.0848C98.8733 29.0385 98.9553 29.0153 99.0731 29.0153H99.6158C99.7336 29.0153 99.8136 29.0385 99.8556 29.0848C99.9019 29.1268 99.9251 29.2068 99.9251 29.3246V32.4799C99.9251 33.0731 99.8577 33.6326 99.7231 34.1585H99.761C99.9503 33.7504 100.182 33.3634 100.455 32.9974L103.276 29.1731C103.348 29.0679 103.446 29.0153 103.573 29.0153H104.115C104.233 29.0153 104.313 29.0385 104.355 29.0848C104.401 29.1268 104.425 29.2068 104.425 29.3246V35.3765C104.425 35.4943 104.401 35.5763 104.355 35.6226C104.313 35.6647 104.233 35.6857 104.115 35.6857H103.573C103.455 35.6857 103.373 35.6647 103.326 35.6226C103.284 35.5763 103.263 35.4943 103.263 35.3765V32.2716C103.263 31.8004 103.331 31.2283 103.465 30.5551H103.427C103.247 30.9254 103.007 31.3208 102.708 31.7415L99.9251 35.5279C99.8451 35.6331 99.7421 35.6857 99.6158 35.6857H99.0731C98.9595 35.6857 98.8796 35.6626 98.8333 35.6163C98.787 35.57 98.7639 35.4901 98.7639 35.3765Z" fill="#585A66"/>
<path d="M105.403 29.7789V29.3246C105.403 29.2068 105.424 29.1268 105.466 29.0848C105.512 29.0385 105.594 29.0153 105.712 29.0153H110.634C110.752 29.0153 110.832 29.0385 110.874 29.0848C110.92 29.1268 110.943 29.2068 110.943 29.3246V29.7789C110.943 29.8967 110.92 29.9788 110.874 30.0251C110.832 30.0671 110.752 30.0882 110.634 30.0882H108.747V35.3765C108.747 35.4943 108.726 35.5763 108.684 35.6226C108.642 35.6647 108.564 35.6857 108.451 35.6857H107.908C107.79 35.6857 107.708 35.6647 107.662 35.6226C107.62 35.5763 107.599 35.4943 107.599 35.3765V30.0882H105.712C105.594 30.0882 105.512 30.0671 105.466 30.0251C105.424 29.9788 105.403 29.8967 105.403 29.7789Z" fill="#585A66"/>
<path d="M111.877 33.0731V29.3246C111.877 29.2068 111.898 29.1268 111.941 29.0848C111.987 29.0385 112.069 29.0153 112.187 29.0153H112.729C112.839 29.0153 112.914 29.0385 112.957 29.0848C113.003 29.1268 113.026 29.2068 113.026 29.3246V33.0352C113.026 34.0618 113.569 34.575 114.654 34.575C115.163 34.575 115.714 34.4846 116.307 34.3037V29.3246C116.307 29.2068 116.329 29.1268 116.371 29.0848C116.417 29.0385 116.499 29.0153 116.617 29.0153H117.147C117.265 29.0153 117.347 29.0385 117.393 29.0848C117.439 29.1268 117.462 29.2068 117.462 29.3246V36.0075C117.462 36.8868 117.237 37.5726 116.787 38.0648C116.337 38.557 115.63 38.8032 114.667 38.8032C113.413 38.8032 112.538 38.3635 112.041 37.4842C111.898 37.2697 111.943 37.1056 112.174 36.992L112.546 36.7837C112.673 36.7248 112.767 36.7038 112.83 36.7206C112.898 36.7375 112.971 36.7985 113.051 36.9037C113.215 37.1897 113.421 37.4043 113.67 37.5473C113.922 37.6946 114.25 37.7682 114.654 37.7682C115.205 37.7682 115.618 37.621 115.891 37.3265C116.169 37.032 116.307 36.6092 116.307 36.058V35.3639C115.626 35.5448 115.024 35.6352 114.503 35.6352C113.615 35.6352 112.954 35.4164 112.521 34.9789C112.092 34.5372 111.877 33.9019 111.877 33.0731Z" fill="#585A66"/>
<path d="M118.453 29.7789V29.3246C118.453 29.2068 118.474 29.1268 118.516 29.0848C118.562 29.0385 118.645 29.0153 118.762 29.0153H123.685C123.802 29.0153 123.882 29.0385 123.924 29.0848C123.971 29.1268 123.994 29.2068 123.994 29.3246V29.7789C123.994 29.8967 123.971 29.9788 123.924 30.0251C123.882 30.0671 123.802 30.0882 123.685 30.0882H121.798V35.3765C121.798 35.4943 121.777 35.5763 121.735 35.6226C121.693 35.6647 121.615 35.6857 121.501 35.6857H120.958C120.841 35.6857 120.759 35.6647 120.712 35.6226C120.67 35.5763 120.649 35.4943 120.649 35.3765V30.0882H118.762C118.645 30.0882 118.562 30.0671 118.516 30.0251C118.474 29.9788 118.453 29.8967 118.453 29.7789Z" fill="#585A66"/>
<path d="M127.906 38.2163V29.9367C127.906 29.7221 127.938 29.5665 128.001 29.4697C128.068 29.373 128.205 29.2825 128.411 29.1984C129.051 28.9501 129.844 28.826 130.79 28.826C131.699 28.826 132.376 29.049 132.822 29.495C133.268 29.9367 133.491 30.5783 133.491 31.4197V33.2435C133.491 34.0975 133.262 34.7517 132.804 35.2061C132.345 35.6562 131.655 35.8813 130.734 35.8813C130.633 35.8813 130.532 35.8771 130.431 35.8687C130.33 35.8603 130.229 35.8456 130.128 35.8245C130.031 35.8077 129.947 35.7909 129.875 35.774C129.804 35.7614 129.718 35.7404 129.617 35.7109C129.52 35.6815 129.45 35.6605 129.408 35.6478C129.371 35.6352 129.303 35.6142 129.206 35.5847C129.114 35.5511 129.063 35.5321 129.055 35.5279V38.2163C129.055 38.3341 129.032 38.4161 128.986 38.4624C128.943 38.5087 128.864 38.5318 128.746 38.5318H128.203C128.094 38.5318 128.016 38.5087 127.97 38.4624C127.927 38.4161 127.906 38.3341 127.906 38.2163ZM129.055 34.4867C129.063 34.4909 129.103 34.5056 129.175 34.5308C129.251 34.5561 129.303 34.575 129.333 34.5876C129.366 34.5961 129.423 34.6129 129.503 34.6381C129.587 34.6634 129.654 34.6823 129.705 34.6949C129.76 34.7075 129.829 34.7244 129.913 34.7454C130.002 34.7622 130.079 34.7749 130.147 34.7833C130.218 34.7917 130.298 34.8001 130.387 34.8085C130.475 34.8169 130.561 34.8211 130.645 34.8211C131.222 34.8211 131.644 34.6886 131.914 34.4236C132.187 34.1543 132.324 33.7483 132.324 33.2056V31.4576C132.324 30.4058 131.756 29.8799 130.62 29.8799C130.157 29.8799 129.701 29.9451 129.251 30.0755C129.166 30.1134 129.112 30.1492 129.087 30.1828C129.066 30.2123 129.055 30.267 129.055 30.3469V34.4867Z" fill="#585A66"/>
<path d="M134.539 33.8241C134.539 33.0752 134.758 32.5514 135.195 32.2527C135.637 31.9498 136.377 31.7983 137.417 31.7983C137.888 31.7983 138.38 31.8278 138.893 31.8867V31.3945C138.893 30.8938 138.78 30.5131 138.552 30.2522C138.325 29.9872 137.926 29.8547 137.353 29.8547C136.6 29.8547 136.066 30.1176 135.751 30.6435C135.675 30.7529 135.616 30.816 135.574 30.8328C135.532 30.8496 135.45 30.8391 135.328 30.8013L134.924 30.6183C134.81 30.572 134.739 30.5173 134.709 30.4542C134.684 30.3911 134.699 30.3006 134.753 30.1828C135.22 29.2783 136.096 28.826 137.379 28.826C137.787 28.826 138.147 28.8702 138.458 28.9586C138.773 29.0469 139.03 29.1689 139.228 29.3246C139.425 29.476 139.587 29.6653 139.714 29.8925C139.84 30.1155 139.928 30.3511 139.979 30.5993C140.029 30.8475 140.054 31.1252 140.054 31.4323V34.8085C140.054 35.0273 140.023 35.1851 139.96 35.2818C139.897 35.3744 139.773 35.4606 139.587 35.5406C139.066 35.7677 138.325 35.8813 137.366 35.8813C136.807 35.8813 136.34 35.8372 135.965 35.7488C135.595 35.6605 135.305 35.5258 135.094 35.3449C134.888 35.1598 134.743 34.9474 134.659 34.7075C134.579 34.4677 134.539 34.1732 134.539 33.8241ZM135.7 33.8241C135.7 34.005 135.721 34.1564 135.763 34.2784C135.805 34.4004 135.881 34.5119 135.99 34.6129C136.104 34.7139 136.266 34.7896 136.476 34.8401C136.687 34.8863 136.95 34.9095 137.265 34.9095C137.921 34.9095 138.399 34.859 138.698 34.758C138.778 34.7244 138.83 34.6907 138.855 34.6571C138.881 34.6192 138.893 34.5561 138.893 34.4677V32.8396C138.203 32.7723 137.669 32.7386 137.29 32.7386C136.697 32.7386 136.283 32.8249 136.047 32.9974C135.816 33.1656 135.7 33.4412 135.7 33.8241Z" fill="#585A66"/>
<path d="M141.146 34.1333C141.096 34.0113 141.087 33.9166 141.121 33.8493C141.159 33.782 141.241 33.7315 141.367 33.6978L141.809 33.5527C141.931 33.5148 142.023 33.5106 142.086 33.5401C142.154 33.5653 142.208 33.6389 142.251 33.761C142.284 33.8325 142.322 33.904 142.364 33.9755C142.406 34.047 142.478 34.1417 142.579 34.2595C142.684 34.3731 142.802 34.4719 142.932 34.5561C143.063 34.636 143.235 34.7075 143.45 34.7707C143.664 34.8296 143.898 34.859 144.15 34.859C144.689 34.859 145.08 34.7622 145.324 34.5687C145.572 34.371 145.696 34.1017 145.696 33.761C145.696 33.4454 145.604 33.2035 145.418 33.0352C145.233 32.8627 144.96 32.7765 144.598 32.7765H143.267C143.149 32.7765 143.067 32.7555 143.02 32.7134C142.978 32.6671 142.957 32.5851 142.957 32.4673V32.1328C142.957 32.015 142.978 31.9351 143.02 31.893C143.067 31.8467 143.149 31.8236 143.267 31.8236H144.522C144.851 31.8236 145.107 31.7415 145.292 31.5775C145.477 31.4134 145.57 31.1883 145.57 30.9022C145.57 30.5783 145.452 30.3217 145.217 30.1323C144.981 29.9388 144.607 29.842 144.093 29.842C143.816 29.842 143.563 29.882 143.336 29.9619C143.113 30.0419 142.936 30.145 142.806 30.2712C142.675 30.3932 142.574 30.5047 142.503 30.6056C142.436 30.7066 142.385 30.8013 142.352 30.8896C142.301 31.0116 142.242 31.0894 142.175 31.1231C142.112 31.1526 142.019 31.1483 141.897 31.1105L141.462 30.9527C141.344 30.9149 141.268 30.8644 141.235 30.8013C141.205 30.7339 141.211 30.6393 141.253 30.5173C141.296 30.3869 141.359 30.2543 141.443 30.1197C141.527 29.9809 141.647 29.8315 141.802 29.6717C141.962 29.5118 142.143 29.373 142.345 29.2552C142.551 29.1331 142.806 29.0322 143.109 28.9522C143.412 28.8681 143.74 28.826 144.093 28.826C145.002 28.826 145.671 29.0048 146.1 29.3624C146.529 29.72 146.744 30.1996 146.744 30.8013C146.744 31.121 146.674 31.4071 146.535 31.6595C146.401 31.9077 146.186 32.0907 145.892 32.2085V32.259C146.249 32.3894 146.504 32.5893 146.655 32.8585C146.811 33.1236 146.889 33.4622 146.889 33.8745C146.889 34.4888 146.67 34.9768 146.233 35.3386C145.795 35.7004 145.097 35.8813 144.137 35.8813C143.771 35.8813 143.431 35.8393 143.115 35.7551C142.804 35.6752 142.543 35.5742 142.333 35.4522C142.126 35.3302 141.937 35.1872 141.765 35.0231C141.596 34.859 141.466 34.7075 141.373 34.5687C141.285 34.4257 141.209 34.2805 141.146 34.1333Z" fill="#585A66"/>
<path d="M148.189 35.3765V29.3246C148.189 29.211 148.212 29.131 148.258 29.0848C148.309 29.0385 148.393 29.0153 148.511 29.0153H151.641C152.242 29.0153 152.711 29.1752 153.048 29.495C153.385 29.8147 153.553 30.2501 153.553 30.8013C153.553 31.4534 153.315 31.9225 152.84 32.2085C153.471 32.5072 153.786 33.0457 153.786 33.8241C153.786 34.392 153.61 34.8443 153.256 35.1808C152.903 35.5174 152.423 35.6857 151.817 35.6857H148.511C148.393 35.6857 148.309 35.6626 148.258 35.6163C148.212 35.57 148.189 35.4901 148.189 35.3765ZM149.35 34.7012H151.59C151.906 34.7012 152.15 34.615 152.322 34.4425C152.495 34.2658 152.581 34.0218 152.581 33.7105C152.581 33.4033 152.493 33.1656 152.316 32.9974C152.144 32.8249 151.897 32.7386 151.578 32.7386H149.35V34.7012ZM149.35 31.7857H151.483C151.761 31.7857 151.982 31.7058 152.146 31.5459C152.31 31.386 152.392 31.1673 152.392 30.8896C152.392 30.6119 152.31 30.3953 152.146 30.2396C151.982 30.0797 151.748 29.9998 151.445 29.9998H149.35V31.7857Z" fill="#585A66"/>
<path d="M155.093 35.3765V29.3246C155.093 29.2068 155.114 29.1268 155.156 29.0848C155.202 29.0385 155.284 29.0153 155.402 29.0153H155.945C156.062 29.0153 156.142 29.0385 156.184 29.0848C156.231 29.1268 156.254 29.2068 156.254 29.3246V32.4799C156.254 33.0731 156.187 33.6326 156.052 34.1585H156.09C156.279 33.7504 156.51 33.3634 156.784 32.9974L159.605 29.1731C159.676 29.0679 159.775 29.0153 159.901 29.0153H160.444C160.562 29.0153 160.642 29.0385 160.684 29.0848C160.73 29.1268 160.753 29.2068 160.753 29.3246V35.3765C160.753 35.4943 160.73 35.5763 160.684 35.6226C160.642 35.6647 160.562 35.6857 160.444 35.6857H159.901C159.784 35.6857 159.702 35.6647 159.655 35.6226C159.613 35.5763 159.592 35.4943 159.592 35.3765V32.2716C159.592 31.8004 159.659 31.2283 159.794 30.5551H159.756C159.575 30.9254 159.336 31.3208 159.037 31.7415L156.254 35.5279C156.174 35.6331 156.071 35.6857 155.945 35.6857H155.402C155.288 35.6857 155.208 35.6626 155.162 35.6163C155.116 35.57 155.093 35.4901 155.093 35.3765Z" fill="#585A66"/>
<path d="M161.731 29.7789V29.3246C161.731 29.2068 161.753 29.1268 161.795 29.0848C161.841 29.0385 161.923 29.0153 162.041 29.0153H166.963C167.081 29.0153 167.161 29.0385 167.203 29.0848C167.249 29.1268 167.272 29.2068 167.272 29.3246V29.7789C167.272 29.8967 167.249 29.9788 167.203 30.0251C167.161 30.0671 167.081 30.0882 166.963 30.0882H165.076V35.3765C165.076 35.4943 165.055 35.5763 165.013 35.6226C164.971 35.6647 164.893 35.6857 164.78 35.6857H164.237C164.119 35.6857 164.037 35.6647 163.991 35.6226C163.949 35.5763 163.928 35.4943 163.928 35.3765V30.0882H162.041C161.923 30.0882 161.841 30.0671 161.795 30.0251C161.753 29.9788 161.731 29.8967 161.731 29.7789Z" fill="#585A66"/>
<path d="M168.257 35.3765V29.3246C168.257 29.2068 168.278 29.1268 168.32 29.0848C168.366 29.0385 168.448 29.0153 168.566 29.0153H169.109C169.226 29.0153 169.306 29.0385 169.348 29.0848C169.395 29.1268 169.418 29.2068 169.418 29.3246V32.4799C169.418 33.0731 169.351 33.6326 169.216 34.1585H169.254C169.443 33.7504 169.674 33.3634 169.948 32.9974L172.769 29.1731C172.84 29.0679 172.939 29.0153 173.065 29.0153H173.608C173.726 29.0153 173.806 29.0385 173.848 29.0848C173.894 29.1268 173.917 29.2068 173.917 29.3246V35.3765C173.917 35.4943 173.894 35.5763 173.848 35.6226C173.806 35.6647 173.726 35.6857 173.608 35.6857H173.065C172.948 35.6857 172.866 35.6647 172.819 35.6226C172.777 35.5763 172.756 35.4943 172.756 35.3765V32.2716C172.756 31.8004 172.823 31.2283 172.958 30.5551H172.92C172.739 30.9254 172.5 31.3208 172.201 31.7415L169.418 35.5279C169.338 35.6331 169.235 35.6857 169.109 35.6857H168.566C168.452 35.6857 168.372 35.6626 168.326 35.6163C168.28 35.57 168.257 35.4901 168.257 35.3765Z" fill="#585A66"/>
<path d="M175.501 35.6857C175.32 35.6857 175.213 35.6562 175.179 35.5973C175.146 35.5384 175.175 35.448 175.268 35.326L176.65 33.2435C176.204 33.1131 175.855 32.8712 175.602 32.5178C175.354 32.1644 175.23 31.7289 175.23 31.2115C175.23 30.5299 175.43 29.9935 175.829 29.6022C176.233 29.211 176.778 29.0153 177.464 29.0153H180.411C180.529 29.0153 180.611 29.0385 180.657 29.0848C180.708 29.131 180.733 29.211 180.733 29.3246V35.3765C180.733 35.4943 180.71 35.5763 180.663 35.6226C180.621 35.6647 180.541 35.6857 180.424 35.6857H179.881C179.763 35.6857 179.681 35.6647 179.635 35.6226C179.593 35.5763 179.572 35.4943 179.572 35.3765V33.4012H177.83L176.549 35.4143C176.477 35.5321 176.408 35.6079 176.341 35.6415C176.273 35.671 176.153 35.6857 175.981 35.6857H175.501ZM176.429 31.2115C176.429 31.5606 176.534 31.8383 176.745 32.0445C176.959 32.2506 177.247 32.3537 177.609 32.3537H179.572V30.0503H177.609C177.247 30.0503 176.959 30.1555 176.745 30.3658C176.534 30.5762 176.429 30.8581 176.429 31.2115Z" fill="#585A66"/>
<path d="M185.283 35.3765V29.3246C185.283 29.211 185.306 29.131 185.352 29.0848C185.398 29.0385 185.478 29.0153 185.592 29.0153H186.135C186.253 29.0153 186.332 29.0385 186.375 29.0848C186.421 29.1268 186.444 29.2068 186.444 29.3246V34.6129H189.587V29.3246C189.587 29.2068 189.608 29.1268 189.65 29.0848C189.696 29.0385 189.778 29.0153 189.896 29.0153H190.439C190.556 29.0153 190.636 29.0385 190.678 29.0848C190.725 29.1268 190.748 29.2068 190.748 29.3246V34.6129H191.41C191.528 34.6129 191.608 34.636 191.65 34.6823C191.697 34.7286 191.72 34.8127 191.72 34.9347V37.175C191.72 37.2928 191.697 37.3727 191.65 37.4148C191.608 37.4611 191.528 37.4842 191.41 37.4842H190.906C190.788 37.4842 190.706 37.4611 190.659 37.4148C190.617 37.3727 190.596 37.2928 190.596 37.175V35.6857H185.592C185.474 35.6857 185.392 35.6647 185.346 35.6226C185.304 35.5763 185.283 35.4943 185.283 35.3765Z" fill="#585A66"/>
<path d="M192.742 35.3765V29.3246C192.742 29.2068 192.763 29.1268 192.805 29.0848C192.851 29.0385 192.933 29.0153 193.051 29.0153H193.594C193.712 29.0153 193.792 29.0385 193.834 29.0848C193.88 29.1268 193.903 29.2068 193.903 29.3246V32.4799C193.903 33.0731 193.836 33.6326 193.701 34.1585H193.739C193.928 33.7504 194.16 33.3634 194.433 32.9974L197.254 29.1731C197.326 29.0679 197.424 29.0153 197.551 29.0153H198.093C198.211 29.0153 198.291 29.0385 198.333 29.0848C198.379 29.1268 198.403 29.2068 198.403 29.3246V35.3765C198.403 35.4943 198.379 35.5763 198.333 35.6226C198.291 35.6647 198.211 35.6857 198.093 35.6857H197.551C197.433 35.6857 197.351 35.6647 197.305 35.6226C197.262 35.5763 197.241 35.4943 197.241 35.3765V32.2716C197.241 31.8004 197.309 31.2283 197.443 30.5551H197.406C197.225 30.9254 196.985 31.3208 196.686 31.7415L193.903 35.5279C193.823 35.6331 193.72 35.6857 193.594 35.6857H193.051C192.938 35.6857 192.858 35.6626 192.811 35.6163C192.765 35.57 192.742 35.4901 192.742 35.3765Z" fill="#585A66"/>
<path d="M199.766 33.111V31.628C199.766 30.6729 200.018 29.9683 200.523 29.5139C201.028 29.0553 201.712 28.826 202.574 28.826C202.944 28.8429 203.224 28.8639 203.413 28.8891V26.4343C203.413 26.3207 203.434 26.2429 203.476 26.2008C203.518 26.1587 203.596 26.1377 203.71 26.1377H204.253C204.37 26.1377 204.45 26.1608 204.492 26.2071C204.539 26.2492 204.562 26.3249 204.562 26.4343V28.8891C204.751 28.8639 205.022 28.8429 205.376 28.826C205.797 28.826 206.173 28.8786 206.505 28.9838C206.842 29.0848 207.137 29.2425 207.389 29.4571C207.641 29.6674 207.835 29.9535 207.97 30.3153C208.108 30.6729 208.178 31.0937 208.178 31.5775V33.111C208.178 34.066 207.927 34.7664 207.427 35.2124C206.93 35.6584 206.247 35.8813 205.376 35.8813C205.065 35.8687 204.793 35.8456 204.562 35.8119V38.2163C204.562 38.3341 204.539 38.4161 204.492 38.4624C204.45 38.5087 204.37 38.5318 204.253 38.5318H203.71C203.596 38.5318 203.518 38.5087 203.476 38.4624C203.434 38.4161 203.413 38.3341 203.413 38.2163V35.8119C203.182 35.8456 202.902 35.8687 202.574 35.8813C202.153 35.8813 201.777 35.8287 201.444 35.7236C201.112 35.6226 200.817 35.4648 200.561 35.2503C200.308 35.0357 200.113 34.7475 199.974 34.3857C199.835 34.0239 199.766 33.599 199.766 33.111ZM200.927 33.0857C200.927 33.4097 200.973 33.6894 201.066 33.925C201.162 34.1606 201.295 34.3415 201.463 34.4677C201.632 34.5897 201.812 34.6802 202.006 34.7391C202.2 34.7938 202.414 34.8211 202.65 34.8211C202.831 34.8211 203.094 34.8043 203.439 34.7707V29.9367C203.051 29.8988 202.789 29.8799 202.65 29.8799C202.414 29.8799 202.2 29.9094 202.006 29.9683C201.812 30.0272 201.632 30.1218 201.463 30.2522C201.295 30.3827 201.162 30.5678 201.066 30.8076C200.973 31.0474 200.927 31.3335 200.927 31.6658V33.0857ZM204.524 34.7707C204.869 34.8043 205.132 34.8211 205.313 34.8211C205.548 34.8211 205.763 34.7938 205.956 34.7391C206.15 34.6802 206.329 34.5897 206.493 34.4677C206.661 34.3415 206.792 34.1606 206.884 33.925C206.981 33.6894 207.029 33.4097 207.029 33.0857V31.6153C207.029 31.2872 206.981 31.0053 206.884 30.7697C206.792 30.5341 206.661 30.3553 206.493 30.2333C206.329 30.1071 206.15 30.0166 205.956 29.9619C205.763 29.9073 205.548 29.8799 205.313 29.8799C205.174 29.8799 204.911 29.8988 204.524 29.9367V34.7707Z" fill="#585A66"/>
<path d="M209.554 38.2163V29.9367C209.554 29.7221 209.585 29.5665 209.648 29.4697C209.715 29.373 209.852 29.2825 210.058 29.1984C210.698 28.9501 211.491 28.826 212.437 28.826C213.346 28.826 214.024 29.049 214.47 29.495C214.915 29.9367 215.138 30.5783 215.138 31.4197V33.2435C215.138 34.0975 214.909 34.7517 214.451 35.2061C213.992 35.6562 213.302 35.8813 212.381 35.8813C212.28 35.8813 212.179 35.8771 212.078 35.8687C211.977 35.8603 211.876 35.8456 211.775 35.8245C211.678 35.8077 211.594 35.7909 211.522 35.774C211.451 35.7614 211.365 35.7404 211.264 35.7109C211.167 35.6815 211.098 35.6605 211.055 35.6478C211.018 35.6352 210.95 35.6142 210.854 35.5847C210.761 35.5511 210.71 35.5321 210.702 35.5279V38.2163C210.702 38.3341 210.679 38.4161 210.633 38.4624C210.591 38.5087 210.511 38.5318 210.393 38.5318H209.85C209.741 38.5318 209.663 38.5087 209.617 38.4624C209.575 38.4161 209.554 38.3341 209.554 38.2163ZM210.702 34.4867C210.71 34.4909 210.75 34.5056 210.822 34.5308C210.898 34.5561 210.95 34.575 210.98 34.5876C211.013 34.5961 211.07 34.6129 211.15 34.6381C211.234 34.6634 211.302 34.6823 211.352 34.6949C211.407 34.7075 211.476 34.7244 211.56 34.7454C211.649 34.7622 211.726 34.7749 211.794 34.7833C211.865 34.7917 211.945 34.8001 212.034 34.8085C212.122 34.8169 212.208 34.8211 212.292 34.8211C212.869 34.8211 213.292 34.6886 213.561 34.4236C213.834 34.1543 213.971 33.7483 213.971 33.2056V31.4576C213.971 30.4058 213.403 29.8799 212.267 29.8799C211.804 29.8799 211.348 29.9451 210.898 30.0755C210.814 30.1134 210.759 30.1492 210.734 30.1828C210.713 30.2123 210.702 30.267 210.702 30.3469V34.4867Z" fill="#585A66"/>
<path d="M216.325 33.4139V31.3061C216.325 30.532 216.579 29.9262 217.088 29.4886C217.602 29.0469 218.313 28.826 219.221 28.826C220.147 28.826 220.862 29.0469 221.367 29.4886C221.876 29.9262 222.131 30.532 222.131 31.3061V33.4139C222.131 34.1838 221.876 34.7875 221.367 35.225C220.858 35.6626 220.143 35.8813 219.221 35.8813C218.313 35.8813 217.602 35.6626 217.088 35.225C216.579 34.7833 216.325 34.1796 216.325 33.4139ZM217.473 33.4139C217.473 33.8598 217.629 34.209 217.94 34.4614C218.252 34.7097 218.679 34.8338 219.221 34.8338C219.773 34.8338 220.202 34.7097 220.509 34.4614C220.82 34.209 220.976 33.8598 220.976 33.4139V31.2935C220.976 30.8475 220.82 30.4983 220.509 30.2459C220.197 29.9935 219.768 29.8673 219.221 29.8673C218.679 29.8673 218.252 29.9935 217.94 30.2459C217.629 30.4983 217.473 30.8475 217.473 31.2935V33.4139Z" fill="#585A66"/>
<path d="M223.525 35.3765V29.3246C223.525 29.211 223.548 29.131 223.595 29.0848C223.645 29.0385 223.729 29.0153 223.847 29.0153H226.977C227.579 29.0153 228.048 29.1752 228.384 29.495C228.721 29.8147 228.889 30.2501 228.889 30.8013C228.889 31.4534 228.652 31.9225 228.176 32.2085C228.807 32.5072 229.123 33.0457 229.123 33.8241C229.123 34.392 228.946 34.8443 228.593 35.1808C228.239 35.5174 227.76 35.6857 227.154 35.6857H223.847C223.729 35.6857 223.645 35.6626 223.595 35.6163C223.548 35.57 223.525 35.4901 223.525 35.3765ZM224.686 34.7012H226.927C227.242 34.7012 227.486 34.615 227.659 34.4425C227.831 34.2658 227.917 34.0218 227.917 33.7105C227.917 33.4033 227.829 33.1656 227.652 32.9974C227.48 32.8249 227.234 32.7386 226.914 32.7386H224.686V34.7012ZM224.686 31.7857H226.819C227.097 31.7857 227.318 31.7058 227.482 31.5459C227.646 31.386 227.728 31.1673 227.728 30.8896C227.728 30.6119 227.646 30.3953 227.482 30.2396C227.318 30.0797 227.084 29.9998 226.782 29.9998H224.686V31.7857Z" fill="#585A66"/>
<path d="M230.221 33.4139V31.3061C230.221 30.532 230.475 29.9262 230.984 29.4886C231.498 29.0469 232.209 28.826 233.117 28.826C234.043 28.826 234.758 29.0469 235.263 29.4886C235.772 29.9262 236.027 30.532 236.027 31.3061V33.4139C236.027 34.1838 235.772 34.7875 235.263 35.225C234.754 35.6626 234.039 35.8813 233.117 35.8813C232.209 35.8813 231.498 35.6626 230.984 35.225C230.475 34.7833 230.221 34.1796 230.221 33.4139ZM231.369 33.4139C231.369 33.8598 231.525 34.209 231.836 34.4614C232.148 34.7097 232.575 34.8338 233.117 34.8338C233.669 34.8338 234.098 34.7097 234.405 34.4614C234.716 34.209 234.872 33.8598 234.872 33.4139V31.2935C234.872 30.8475 234.716 30.4983 234.405 30.2459C234.094 29.9935 233.664 29.8673 233.117 29.8673C232.575 29.8673 232.148 29.9935 231.836 30.2459C231.525 30.4983 231.369 30.8475 231.369 31.2935V33.4139Z" fill="#585A66"/>
<path d="M237.421 35.3765V29.3246C237.421 29.2068 237.442 29.1268 237.484 29.0848C237.531 29.0385 237.613 29.0153 237.731 29.0153H238.273C238.391 29.0153 238.471 29.0385 238.513 29.0848C238.559 29.1268 238.582 29.2068 238.582 29.3246V32.4799C238.582 33.0731 238.515 33.6326 238.381 34.1585H238.418C238.608 33.7504 238.839 33.3634 239.113 32.9974L241.933 29.1731C242.005 29.0679 242.104 29.0153 242.23 29.0153H242.773C242.891 29.0153 242.97 29.0385 243.013 29.0848C243.059 29.1268 243.082 29.2068 243.082 29.3246V35.3765C243.082 35.4943 243.059 35.5763 243.013 35.6226C242.97 35.6647 242.891 35.6857 242.773 35.6857H242.23C242.112 35.6857 242.03 35.6647 241.984 35.6226C241.942 35.5763 241.921 35.4943 241.921 35.3765V32.2716C241.921 31.8004 241.988 31.2283 242.123 30.5551H242.085C241.904 30.9254 241.664 31.3208 241.365 31.7415L238.582 35.5279C238.503 35.6331 238.399 35.6857 238.273 35.6857H237.731C237.617 35.6857 237.537 35.6626 237.491 35.6163C237.444 35.57 237.421 35.4901 237.421 35.3765ZM238.336 26.7309C238.311 26.651 238.309 26.59 238.33 26.5479C238.351 26.5058 238.402 26.4722 238.482 26.4469L238.879 26.2892C238.963 26.2597 239.028 26.2513 239.075 26.2639C239.125 26.2765 239.165 26.3186 239.195 26.3901C239.367 26.9623 239.737 27.2484 240.305 27.2484C240.882 27.2484 241.256 26.9623 241.429 26.3901C241.458 26.3228 241.492 26.2828 241.53 26.2702C241.572 26.2534 241.628 26.2555 241.7 26.2765L242.154 26.4469C242.234 26.4806 242.283 26.5163 242.299 26.5542C242.32 26.5921 242.318 26.651 242.293 26.7309C242.15 27.1768 241.908 27.5176 241.567 27.7532C241.231 27.9846 240.81 28.1003 240.305 28.1003C239.809 28.1003 239.392 27.9846 239.056 27.7532C238.719 27.5176 238.479 27.1768 238.336 26.7309Z" fill="#585A66"/>
<path d="M247.247 34.0954C247.159 33.8766 247.226 33.7294 247.449 33.6537L247.903 33.5148C248.025 33.477 248.118 33.4728 248.181 33.5022C248.248 33.5317 248.303 33.6053 248.345 33.7231C248.593 34.4719 249.153 34.8464 250.024 34.8464C250.566 34.8464 250.979 34.7139 251.261 34.4488C251.547 34.1796 251.69 33.803 251.69 33.3192V32.8144L249.38 32.8017C249.271 32.8017 249.193 32.7807 249.146 32.7386C249.1 32.6923 249.077 32.6103 249.077 32.4925V32.0949C249.077 31.9813 249.1 31.9014 249.146 31.8551C249.193 31.8089 249.271 31.7857 249.38 31.7857H251.69V31.3692C251.69 30.8812 251.549 30.5047 251.267 30.2396C250.989 29.9746 250.575 29.842 250.024 29.842C249.561 29.842 249.199 29.9325 248.938 30.1134C248.677 30.2901 248.484 30.5615 248.358 30.9275C248.311 31.0495 248.257 31.1273 248.194 31.161C248.135 31.1904 248.042 31.182 247.916 31.1357L247.474 30.9969C247.356 30.959 247.283 30.9064 247.253 30.8391C247.224 30.7718 247.23 30.6772 247.272 30.5551C247.441 30.0166 247.748 29.5938 248.194 29.2867C248.64 28.9796 249.237 28.826 249.986 28.826C250.941 28.826 251.656 29.0532 252.131 29.5076C252.611 29.9619 252.851 30.5993 252.851 31.4197V33.2687C252.851 34.0975 252.617 34.7412 252.15 35.1998C251.688 35.6541 250.991 35.8813 250.062 35.8813C249.313 35.8813 248.709 35.7299 248.25 35.427C247.796 35.124 247.462 34.6802 247.247 34.0954Z" fill="#585A66"/>
<path d="M254.233 35.3639V29.3246C254.233 29.2068 254.256 29.1268 254.302 29.0848C254.349 29.0385 254.433 29.0153 254.555 29.0153H255.072C255.194 29.0153 255.278 29.0385 255.325 29.0848C255.371 29.1268 255.394 29.2068 255.394 29.3246V31.7415H256.536L258.461 29.2488C258.541 29.1395 258.615 29.0742 258.682 29.0532C258.749 29.028 258.877 29.0153 259.067 29.0153H259.559C259.875 29.0153 259.938 29.1374 259.748 29.3814L257.685 31.9624C257.908 32.0466 258.101 32.1749 258.265 32.3474C258.429 32.5199 258.581 32.7449 258.72 33.0226L259.856 35.326C259.931 35.4564 259.955 35.549 259.925 35.6037C259.896 35.6584 259.807 35.6857 259.66 35.6857H259.155C258.983 35.6857 258.865 35.6689 258.802 35.6352C258.743 35.6016 258.684 35.5237 258.625 35.4017L257.735 33.5275C257.609 33.2708 257.458 33.0878 257.281 32.9784C257.108 32.869 256.873 32.8144 256.574 32.8144H255.394V35.3639C255.394 35.4859 255.371 35.57 255.325 35.6163C255.278 35.6626 255.194 35.6857 255.072 35.6857H254.555C254.433 35.6857 254.349 35.6626 254.302 35.6163C254.256 35.57 254.233 35.4859 254.233 35.3639Z" fill="#585A66"/>
<path d="M260.689 33.4139V31.3061C260.689 30.532 260.943 29.9262 261.452 29.4886C261.966 29.0469 262.677 28.826 263.585 28.826C264.511 28.826 265.226 29.0469 265.731 29.4886C266.24 29.9262 266.494 30.532 266.494 31.3061V33.4139C266.494 34.1838 266.24 34.7875 265.731 35.225C265.222 35.6626 264.507 35.8813 263.585 35.8813C262.677 35.8813 261.966 35.6626 261.452 35.225C260.943 34.7833 260.689 34.1796 260.689 33.4139ZM261.837 33.4139C261.837 33.8598 261.993 34.209 262.304 34.4614C262.616 34.7097 263.043 34.8338 263.585 34.8338C264.136 34.8338 264.565 34.7097 264.873 34.4614C265.184 34.209 265.34 33.8598 265.34 33.4139V31.2935C265.34 30.8475 265.184 30.4983 264.873 30.2459C264.561 29.9935 264.132 29.8673 263.585 29.8673C263.043 29.8673 262.616 29.9935 262.304 30.2459C261.993 30.4983 261.837 30.8475 261.837 31.2935V33.4139Z" fill="#585A66"/>
<path d="M267.889 35.3765V29.3246C267.889 29.2068 267.91 29.1268 267.952 29.0848C267.998 29.0385 268.081 29.0153 268.198 29.0153H268.741C268.859 29.0153 268.939 29.0385 268.981 29.0848C269.027 29.1268 269.05 29.2068 269.05 29.3246V31.7415H272.319V29.3246C272.319 29.2068 272.342 29.1268 272.389 29.0848C272.435 29.0385 272.517 29.0153 272.635 29.0153H273.177C273.295 29.0153 273.375 29.0385 273.417 29.0848C273.463 29.1268 273.487 29.2068 273.487 29.3246V35.3765C273.487 35.4943 273.463 35.5763 273.417 35.6226C273.375 35.6647 273.295 35.6857 273.177 35.6857H272.635C272.517 35.6857 272.435 35.6647 272.389 35.6226C272.342 35.5763 272.319 35.4943 272.319 35.3765V32.8144H269.05V35.3765C269.05 35.4943 269.027 35.5763 268.981 35.6226C268.939 35.6647 268.859 35.6857 268.741 35.6857H268.198C268.085 35.6857 268.005 35.6626 267.959 35.6163C267.912 35.57 267.889 35.4901 267.889 35.3765Z" fill="#585A66"/>
<path d="M274.875 33.4139V31.3061C274.875 30.532 275.13 29.9262 275.639 29.4886C276.152 29.0469 276.863 28.826 277.772 28.826C278.697 28.826 279.412 29.0469 279.917 29.4886C280.426 29.9262 280.681 30.532 280.681 31.3061V33.4139C280.681 34.1838 280.426 34.7875 279.917 35.225C279.408 35.6626 278.693 35.8813 277.772 35.8813C276.863 35.8813 276.152 35.6626 275.639 35.225C275.13 34.7833 274.875 34.1796 274.875 33.4139ZM276.024 33.4139C276.024 33.8598 276.179 34.209 276.49 34.4614C276.802 34.7097 277.229 34.8338 277.772 34.8338C278.323 34.8338 278.752 34.7097 279.059 34.4614C279.37 34.209 279.526 33.8598 279.526 33.4139V31.2935C279.526 30.8475 279.37 30.4983 279.059 30.2459C278.748 29.9935 278.318 29.8673 277.772 29.8673C277.229 29.8673 276.802 29.9935 276.49 30.2459C276.179 30.4983 276.024 30.8475 276.024 31.2935V33.4139Z" fill="#585A66"/>
<path d="M282.075 35.3765V29.3498C282.075 29.2194 282.099 29.131 282.145 29.0848C282.195 29.0385 282.288 29.0153 282.423 29.0153H282.826C282.948 29.0153 283.039 29.0322 283.098 29.0658C283.157 29.0995 283.211 29.1689 283.262 29.2741L285.42 33.0983L287.54 29.2741C287.591 29.1731 287.644 29.1058 287.698 29.0721C287.757 29.0343 287.848 29.0153 287.97 29.0153H288.405C288.54 29.0153 288.63 29.0385 288.676 29.0848C288.723 29.131 288.746 29.2194 288.746 29.3498V35.3765C288.746 35.4985 288.723 35.5805 288.676 35.6226C288.634 35.6647 288.554 35.6857 288.437 35.6857H287.97C287.848 35.6857 287.766 35.6647 287.723 35.6226C287.681 35.5805 287.66 35.4985 287.66 35.3765V32.3915C287.66 31.8825 287.728 31.2914 287.862 30.6183H287.812C287.639 31.0937 287.425 31.5459 287.168 31.975L285.938 34.1459C285.879 34.2469 285.826 34.3121 285.78 34.3415C285.738 34.3668 285.662 34.3794 285.553 34.3794H285.269C285.168 34.3794 285.09 34.3647 285.035 34.3352C284.985 34.3058 284.932 34.2427 284.877 34.1459L283.653 32.0129C283.396 31.5585 283.176 31.0937 282.99 30.6183H282.953C283.083 31.4513 283.148 32.0592 283.148 32.442V35.3765C283.148 35.4985 283.127 35.5805 283.085 35.6226C283.047 35.6647 282.969 35.6857 282.852 35.6857H282.397C282.267 35.6857 282.181 35.6647 282.139 35.6226C282.096 35.5805 282.075 35.4985 282.075 35.3765Z" fill="#585A66"/>
<path d="M290.342 35.3765V29.3246C290.342 29.2068 290.363 29.1268 290.405 29.0848C290.452 29.0385 290.534 29.0153 290.652 29.0153H291.194C291.312 29.0153 291.392 29.0385 291.434 29.0848C291.48 29.1268 291.504 29.2068 291.504 29.3246V32.4799C291.504 33.0731 291.436 33.6326 291.302 34.1585H291.339C291.529 33.7504 291.76 33.3634 292.034 32.9974L294.854 29.1731C294.926 29.0679 295.025 29.0153 295.151 29.0153H295.694C295.812 29.0153 295.892 29.0385 295.934 29.0848C295.98 29.1268 296.003 29.2068 296.003 29.3246V35.3765C296.003 35.4943 295.98 35.5763 295.934 35.6226C295.892 35.6647 295.812 35.6857 295.694 35.6857H295.151C295.033 35.6857 294.951 35.6647 294.905 35.6226C294.863 35.5763 294.842 35.4943 294.842 35.3765V32.2716C294.842 31.8004 294.909 31.2283 295.044 30.5551H295.006C294.825 30.9254 294.585 31.3208 294.287 31.7415L291.504 35.5279C291.424 35.6331 291.321 35.6857 291.194 35.6857H290.652C290.538 35.6857 290.458 35.6626 290.412 35.6163C290.365 35.57 290.342 35.4901 290.342 35.3765Z" fill="#585A66"/>
<path d="M297.6 35.3639V29.3246C297.6 29.2068 297.623 29.1268 297.669 29.0848C297.715 29.0385 297.799 29.0153 297.921 29.0153H298.439C298.561 29.0153 298.645 29.0385 298.691 29.0848C298.738 29.1268 298.761 29.2068 298.761 29.3246V31.7415H299.903L301.828 29.2488C301.908 29.1395 301.981 29.0742 302.049 29.0532C302.116 29.028 302.244 29.0153 302.434 29.0153H302.926C303.241 29.0153 303.304 29.1374 303.115 29.3814L301.052 31.9624C301.274 32.0466 301.468 32.1749 301.632 32.3474C301.796 32.5199 301.948 32.7449 302.086 33.0226L303.222 35.326C303.298 35.4564 303.321 35.549 303.292 35.6037C303.262 35.6584 303.174 35.6857 303.027 35.6857H302.522C302.349 35.6857 302.232 35.6689 302.168 35.6352C302.11 35.6016 302.051 35.5237 301.992 35.4017L301.102 33.5275C300.976 33.2708 300.824 33.0878 300.648 32.9784C300.475 32.869 300.24 32.8144 299.941 32.8144H298.761V35.3639C298.761 35.4859 298.738 35.57 298.691 35.6163C298.645 35.6626 298.561 35.6857 298.439 35.6857H297.921C297.799 35.6857 297.715 35.6626 297.669 35.6163C297.623 35.57 297.6 35.4859 297.6 35.3639Z" fill="#585A66"/>
<path d="M304.339 35.3765V29.3246C304.339 29.2068 304.36 29.1268 304.402 29.0848C304.449 29.0385 304.531 29.0153 304.649 29.0153H305.191C305.309 29.0153 305.389 29.0385 305.431 29.0848C305.477 29.1268 305.501 29.2068 305.501 29.3246V32.4799C305.501 33.0731 305.433 33.6326 305.299 34.1585H305.336C305.526 33.7504 305.757 33.3634 306.031 32.9974L308.851 29.1731C308.923 29.0679 309.022 29.0153 309.148 29.0153H309.691C309.809 29.0153 309.889 29.0385 309.931 29.0848C309.977 29.1268 310 29.2068 310 29.3246V35.3765C310 35.4943 309.977 35.5763 309.931 35.6226C309.889 35.6647 309.809 35.6857 309.691 35.6857H309.148C309.03 35.6857 308.948 35.6647 308.902 35.6226C308.86 35.5763 308.839 35.4943 308.839 35.3765V32.2716C308.839 31.8004 308.906 31.2283 309.041 30.5551H309.003C308.822 30.9254 308.582 31.3208 308.284 31.7415L305.501 35.5279C305.421 35.6331 305.318 35.6857 305.191 35.6857H304.649C304.535 35.6857 304.455 35.6626 304.409 35.6163C304.362 35.57 304.339 35.4901 304.339 35.3765Z" fill="#585A66"/>
<path d="M70 51.7471V45.6952C70 45.5774 70.021 45.4975 70.0631 45.4554C70.1094 45.4091 70.1914 45.386 70.3092 45.386H70.8519C70.9697 45.386 71.0497 45.4091 71.0917 45.4554C71.138 45.4975 71.1612 45.5774 71.1612 45.6952V48.8505C71.1612 49.4437 71.0938 50.0033 70.9592 50.5292H70.9971C71.1864 50.1211 71.4178 49.734 71.6913 49.368L74.5121 45.5438C74.5836 45.4386 74.6825 45.386 74.8087 45.386H75.3514C75.4692 45.386 75.5492 45.4091 75.5912 45.4554C75.6375 45.4975 75.6606 45.5774 75.6606 45.6952V51.7471C75.6606 51.8649 75.6375 51.947 75.5912 51.9932C75.5492 52.0353 75.4692 52.0563 75.3514 52.0563H74.8087C74.6909 52.0563 74.6089 52.0353 74.5626 51.9932C74.5205 51.947 74.4995 51.8649 74.4995 51.7471V48.6423C74.4995 48.1711 74.5668 47.5989 74.7014 46.9258H74.6636C74.4827 47.296 74.2429 47.6915 73.9442 48.1122L71.1612 51.8986C71.0812 52.0038 70.9781 52.0563 70.8519 52.0563H70.3092C70.1956 52.0563 70.1157 52.0332 70.0694 51.9869C70.0231 51.9406 70 51.8607 70 51.7471Z" fill="#585A66"/>
<path d="M80.198 51.7471V45.6952C80.198 45.5774 80.219 45.4975 80.2611 45.4554C80.3074 45.4091 80.3894 45.386 80.5072 45.386H81.0499C81.1677 45.386 81.2477 45.4091 81.2897 45.4554C81.336 45.4975 81.3592 45.5774 81.3592 45.6952V48.8505C81.3592 49.4437 81.2918 50.0033 81.1572 50.5292H81.1951C81.3844 50.1211 81.6158 49.734 81.8892 49.368L84.7101 45.5438C84.7816 45.4386 84.8805 45.386 85.0067 45.386H85.5494C85.6672 45.386 85.7472 45.4091 85.7892 45.4554C85.8355 45.4975 85.8586 45.5774 85.8586 45.6952V51.7471C85.8586 51.8649 85.8355 51.947 85.7892 51.9932C85.7472 52.0353 85.6672 52.0563 85.5494 52.0563H85.0067C84.8889 52.0563 84.8069 52.0353 84.7606 51.9932C84.7185 51.947 84.6975 51.8649 84.6975 51.7471V48.6423C84.6975 48.1711 84.7648 47.5989 84.8994 46.9258H84.8616C84.6807 47.296 84.4409 47.6915 84.1421 48.1122L81.3592 51.8986C81.2792 52.0038 81.1761 52.0563 81.0499 52.0563H80.5072C80.3936 52.0563 80.3137 52.0332 80.2674 51.9869C80.2211 51.9406 80.198 51.8607 80.198 51.7471Z" fill="#585A66"/>
<path d="M87.4552 51.7471V45.6952C87.4552 45.5774 87.4763 45.4975 87.5183 45.4554C87.5646 45.4091 87.6467 45.386 87.7645 45.386H88.3072C88.425 45.386 88.5049 45.4091 88.547 45.4554C88.5933 45.4975 88.6164 45.5774 88.6164 45.6952V48.1122H91.8853V45.6952C91.8853 45.5774 91.9084 45.4975 91.9547 45.4554C92.001 45.4091 92.083 45.386 92.2008 45.386H92.7436C92.8614 45.386 92.9413 45.4091 92.9834 45.4554C93.0296 45.4975 93.0528 45.5774 93.0528 45.6952V51.7471C93.0528 51.8649 93.0296 51.947 92.9834 51.9932C92.9413 52.0353 92.8614 52.0563 92.7436 52.0563H92.2008C92.083 52.0563 92.001 52.0353 91.9547 51.9932C91.9084 51.947 91.8853 51.8649 91.8853 51.7471V49.185H88.6164V51.7471C88.6164 51.8649 88.5933 51.947 88.547 51.9932C88.5049 52.0353 88.425 52.0563 88.3072 52.0563H87.7645C87.6509 52.0563 87.5709 52.0332 87.5247 51.9869C87.4784 51.9406 87.4552 51.8607 87.4552 51.7471Z" fill="#585A66"/>
<path d="M94.4159 49.4816V47.9986C94.4159 47.0436 94.6683 46.3389 95.1731 45.8845C95.678 45.426 96.3617 45.1967 97.2241 45.1967C97.5943 45.2135 97.8741 45.2345 98.0634 45.2598V42.8049C98.0634 42.6914 98.0845 42.6135 98.1265 42.5714C98.1686 42.5294 98.2464 42.5083 98.36 42.5083H98.9027C99.0205 42.5083 99.1005 42.5315 99.1425 42.5778C99.1888 42.6198 99.212 42.6956 99.212 42.8049V45.2598C99.4013 45.2345 99.6726 45.2135 100.026 45.1967C100.447 45.1967 100.823 45.2493 101.156 45.3544C101.492 45.4554 101.787 45.6132 102.039 45.8277C102.292 46.0381 102.485 46.3242 102.62 46.686C102.759 47.0436 102.828 47.4643 102.828 47.9481V49.4816C102.828 50.4366 102.578 51.1371 102.077 51.583C101.581 52.029 100.897 52.252 100.026 52.252C99.7147 52.2394 99.4433 52.2162 99.212 52.1826V54.5869C99.212 54.7047 99.1888 54.7867 99.1425 54.833C99.1005 54.8793 99.0205 54.9024 98.9027 54.9024H98.36C98.2464 54.9024 98.1686 54.8793 98.1265 54.833C98.0845 54.7867 98.0634 54.7047 98.0634 54.5869V52.1826C97.832 52.2162 97.5523 52.2394 97.2241 52.252C96.8034 52.252 96.4269 52.1994 96.0945 52.0942C95.7621 51.9932 95.4676 51.8355 95.211 51.6209C94.9586 51.4063 94.763 51.1182 94.6241 50.7564C94.4853 50.3945 94.4159 49.9696 94.4159 49.4816ZM95.577 49.4564C95.577 49.7803 95.6233 50.0601 95.7159 50.2957C95.8126 50.5313 95.9452 50.7122 96.1134 50.8384C96.2817 50.9604 96.4626 51.0508 96.6561 51.1097C96.8497 51.1644 97.0642 51.1918 97.2998 51.1918C97.4807 51.1918 97.7437 51.175 98.0887 51.1413V46.3073C97.7016 46.2695 97.4387 46.2506 97.2998 46.2506C97.0642 46.2506 96.8497 46.28 96.6561 46.3389C96.4626 46.3978 96.2817 46.4925 96.1134 46.6229C95.9452 46.7533 95.8126 46.9384 95.7159 47.1782C95.6233 47.418 95.577 47.7041 95.577 48.0365V49.4564ZM99.1741 51.1413C99.5191 51.175 99.782 51.1918 99.9629 51.1918C100.199 51.1918 100.413 51.1644 100.607 51.1097C100.8 51.0508 100.979 50.9604 101.143 50.8384C101.311 50.7122 101.442 50.5313 101.534 50.2957C101.631 50.0601 101.679 49.7803 101.679 49.4564V47.986C101.679 47.6578 101.631 47.376 101.534 47.1404C101.442 46.9048 101.311 46.726 101.143 46.6039C100.979 46.4777 100.8 46.3873 100.607 46.3326C100.413 46.2779 100.199 46.2506 99.9629 46.2506C99.8241 46.2506 99.5611 46.2695 99.1741 46.3073V51.1413Z" fill="#585A66"/>
<path d="M104.008 49.7845V47.6768C104.008 46.9027 104.263 46.2968 104.772 45.8593C105.285 45.4175 105.996 45.1967 106.905 45.1967C107.83 45.1967 108.545 45.4175 109.05 45.8593C109.559 46.2968 109.814 46.9027 109.814 47.6768V49.7845C109.814 50.5544 109.559 51.1581 109.05 51.5957C108.541 52.0332 107.826 52.252 106.905 52.252C105.996 52.252 105.285 52.0332 104.772 51.5957C104.263 51.1539 104.008 50.5502 104.008 49.7845ZM105.157 49.7845C105.157 50.2305 105.312 50.5797 105.624 50.8321C105.935 51.0803 106.362 51.2044 106.905 51.2044C107.456 51.2044 107.885 51.0803 108.192 50.8321C108.503 50.5797 108.659 50.2305 108.659 49.7845V47.6641C108.659 47.2182 108.503 46.869 108.192 46.6166C107.881 46.3641 107.452 46.2379 106.905 46.2379C106.362 46.2379 105.935 46.3641 105.624 46.6166C105.312 46.869 105.157 47.2182 105.157 47.6641V49.7845Z" fill="#585A66"/>
<path d="M111.196 54.5869V46.3073C111.196 46.0928 111.227 45.9371 111.291 45.8404C111.358 45.7436 111.495 45.6531 111.701 45.569C112.34 45.3208 113.133 45.1967 114.08 45.1967C114.989 45.1967 115.666 45.4197 116.112 45.8656C116.558 46.3073 116.781 46.9489 116.781 47.7903V49.6141C116.781 50.4682 116.551 51.1224 116.093 51.5767C115.634 52.0269 114.944 52.252 114.023 52.252C113.922 52.252 113.821 52.2478 113.72 52.2394C113.619 52.2309 113.518 52.2162 113.417 52.1952C113.32 52.1783 113.236 52.1615 113.165 52.1447C113.093 52.1321 113.007 52.111 112.906 52.0816C112.809 52.0521 112.74 52.0311 112.698 52.0185C112.66 52.0059 112.593 51.9848 112.496 51.9554C112.403 51.9217 112.353 51.9028 112.344 51.8986V54.5869C112.344 54.7047 112.321 54.7867 112.275 54.833C112.233 54.8793 112.153 54.9024 112.035 54.9024H111.492C111.383 54.9024 111.305 54.8793 111.259 54.833C111.217 54.7867 111.196 54.7047 111.196 54.5869ZM112.344 50.8573C112.353 50.8615 112.393 50.8763 112.464 50.9015C112.54 50.9267 112.593 50.9457 112.622 50.9583C112.656 50.9667 112.713 50.9835 112.792 51.0088C112.877 51.034 112.944 51.053 112.994 51.0656C113.049 51.0782 113.119 51.095 113.203 51.1161C113.291 51.1329 113.369 51.1455 113.436 51.1539C113.508 51.1623 113.588 51.1707 113.676 51.1792C113.764 51.1876 113.851 51.1918 113.935 51.1918C114.511 51.1918 114.934 51.0593 115.203 50.7942C115.477 50.525 115.613 50.119 115.613 49.5763V47.8282C115.613 46.7764 115.045 46.2506 113.909 46.2506C113.447 46.2506 112.99 46.3158 112.54 46.4462C112.456 46.484 112.401 46.5198 112.376 46.5535C112.355 46.5829 112.344 46.6376 112.344 46.7175V50.8573Z" fill="#585A66"/>
<path d="M118.175 51.7471V45.7205C118.175 45.59 118.199 45.5017 118.245 45.4554C118.295 45.4091 118.388 45.386 118.523 45.386H118.926C119.048 45.386 119.139 45.4028 119.198 45.4365C119.257 45.4701 119.311 45.5396 119.362 45.6447L121.52 49.469L123.64 45.6447C123.691 45.5438 123.744 45.4764 123.798 45.4428C123.857 45.4049 123.948 45.386 124.07 45.386H124.505C124.64 45.386 124.73 45.4091 124.776 45.4554C124.823 45.5017 124.846 45.59 124.846 45.7205V51.7471C124.846 51.8691 124.823 51.9512 124.776 51.9932C124.734 52.0353 124.654 52.0563 124.537 52.0563H124.07C123.948 52.0563 123.866 52.0353 123.823 51.9932C123.781 51.9512 123.76 51.8691 123.76 51.7471V48.7622C123.76 48.2531 123.828 47.662 123.962 46.9889H123.912C123.739 47.4643 123.525 47.9166 123.268 48.3457L122.038 50.5165C121.979 50.6175 121.926 50.6827 121.88 50.7122C121.838 50.7374 121.762 50.75 121.653 50.75H121.369C121.268 50.75 121.19 50.7353 121.135 50.7059C121.085 50.6764 121.032 50.6133 120.977 50.5165L119.753 48.3835C119.496 47.9292 119.276 47.4643 119.09 46.9889H119.053C119.183 47.8219 119.248 48.4298 119.248 48.8127V51.7471C119.248 51.8691 119.227 51.9512 119.185 51.9932C119.147 52.0353 119.069 52.0563 118.952 52.0563H118.497C118.367 52.0563 118.281 52.0353 118.239 51.9932C118.196 51.9512 118.175 51.8691 118.175 51.7471Z" fill="#585A66"/>
<path d="M126.095 50.1947C126.095 49.4458 126.314 48.9221 126.752 48.6234C127.193 48.3204 127.934 48.169 128.973 48.169C129.444 48.169 129.936 48.1984 130.45 48.2573V47.7651C130.45 47.2645 130.336 46.8837 130.109 46.6229C129.882 46.3578 129.482 46.2253 128.91 46.2253C128.157 46.2253 127.622 46.4883 127.307 47.0141C127.231 47.1235 127.172 47.1866 127.13 47.2035C127.088 47.2203 127.006 47.2098 126.884 47.1719L126.48 46.9889C126.367 46.9426 126.295 46.8879 126.266 46.8248C126.24 46.7617 126.255 46.6713 126.31 46.5535C126.777 45.6489 127.652 45.1967 128.935 45.1967C129.343 45.1967 129.703 45.2408 130.014 45.3292C130.33 45.4175 130.586 45.5396 130.784 45.6952C130.982 45.8467 131.144 46.036 131.27 46.2632C131.396 46.4861 131.485 46.7217 131.535 46.97C131.586 47.2182 131.611 47.4959 131.611 47.803V51.1792C131.611 51.3979 131.579 51.5557 131.516 51.6525C131.453 51.745 131.329 51.8313 131.144 51.9112C130.622 52.1384 129.882 52.252 128.922 52.252C128.363 52.252 127.896 52.2078 127.521 52.1194C127.151 52.0311 126.861 51.8965 126.651 51.7156C126.444 51.5305 126.299 51.318 126.215 51.0782C126.135 50.8384 126.095 50.5439 126.095 50.1947ZM127.256 50.1947C127.256 50.3756 127.277 50.5271 127.32 50.6491C127.362 50.7711 127.437 50.8826 127.547 50.9835C127.66 51.0845 127.822 51.1602 128.033 51.2107C128.243 51.257 128.506 51.2801 128.821 51.2801C129.478 51.2801 129.955 51.2296 130.254 51.1287C130.334 51.095 130.387 51.0614 130.412 51.0277C130.437 50.9898 130.45 50.9267 130.45 50.8384V49.2102C129.76 49.1429 129.225 49.1093 128.847 49.1093C128.254 49.1093 127.839 49.1955 127.604 49.368C127.372 49.5363 127.256 49.8119 127.256 50.1947Z" fill="#585A66"/>
<path d="M133.106 51.7471V45.6952C133.106 45.5816 133.13 45.5017 133.176 45.4554C133.222 45.4091 133.302 45.386 133.416 45.386H133.958C134.076 45.386 134.156 45.4091 134.198 45.4554C134.244 45.4975 134.268 45.5774 134.268 45.6952V50.9835H137.41V45.6952C137.41 45.5774 137.431 45.4975 137.473 45.4554C137.52 45.4091 137.602 45.386 137.719 45.386H138.262C138.38 45.386 138.46 45.4091 138.502 45.4554C138.548 45.4975 138.571 45.5774 138.571 45.6952V50.9835H139.234C139.352 50.9835 139.432 51.0067 139.474 51.053C139.52 51.0992 139.543 51.1834 139.543 51.3054V53.5457C139.543 53.6635 139.52 53.7434 139.474 53.7855C139.432 53.8317 139.352 53.8549 139.234 53.8549H138.729C138.611 53.8549 138.529 53.8317 138.483 53.7855C138.441 53.7434 138.42 53.6635 138.42 53.5457V52.0563H133.416C133.298 52.0563 133.216 52.0353 133.17 51.9932C133.127 51.947 133.106 51.8649 133.106 51.7471Z" fill="#585A66"/>
<path d="M140.566 51.7471V45.6952C140.566 45.5774 140.587 45.4975 140.629 45.4554C140.675 45.4091 140.757 45.386 140.875 45.386H141.418C141.535 45.386 141.615 45.4091 141.657 45.4554C141.704 45.4975 141.727 45.5774 141.727 45.6952V48.8505C141.727 49.4437 141.659 50.0033 141.525 50.5292H141.563C141.752 50.1211 141.983 49.734 142.257 49.368L145.078 45.5438C145.149 45.4386 145.248 45.386 145.374 45.386H145.917C146.035 45.386 146.115 45.4091 146.157 45.4554C146.203 45.4975 146.226 45.5774 146.226 45.6952V51.7471C146.226 51.8649 146.203 51.947 146.157 51.9932C146.115 52.0353 146.035 52.0563 145.917 52.0563H145.374C145.257 52.0563 145.174 52.0353 145.128 51.9932C145.086 51.947 145.065 51.8649 145.065 51.7471V48.6423C145.065 48.1711 145.132 47.5989 145.267 46.9258H145.229C145.048 47.296 144.808 47.6915 144.51 48.1122L141.727 51.8986C141.647 52.0038 141.544 52.0563 141.418 52.0563H140.875C140.761 52.0563 140.681 52.0332 140.635 51.9869C140.589 51.9406 140.566 51.8607 140.566 51.7471Z" fill="#585A66"/>
<path d="M147.615 49.7845V47.6768C147.615 46.9027 147.869 46.2968 148.378 45.8593C148.891 45.4175 149.602 45.1967 150.511 45.1967C151.437 45.1967 152.152 45.4175 152.657 45.8593C153.166 46.2968 153.42 46.9027 153.42 47.6768V49.7845C153.42 50.5544 153.166 51.1581 152.657 51.5957C152.148 52.0332 151.433 52.252 150.511 52.252C149.602 52.252 148.891 52.0332 148.378 51.5957C147.869 51.1539 147.615 50.5502 147.615 49.7845ZM148.763 49.7845C148.763 50.2305 148.919 50.5797 149.23 50.8321C149.541 51.0803 149.968 51.2044 150.511 51.2044C151.062 51.2044 151.491 51.0803 151.799 50.8321C152.11 50.5797 152.266 50.2305 152.266 49.7845V47.6641C152.266 47.2182 152.11 46.869 151.799 46.6166C151.487 46.3641 151.058 46.2379 150.511 46.2379C149.968 46.2379 149.541 46.3641 149.23 46.6166C148.919 46.869 148.763 47.2182 148.763 47.6641V49.7845Z" fill="#585A66"/>
<path d="M154.815 51.7471V45.6952C154.815 45.5774 154.836 45.4975 154.878 45.4554C154.924 45.4091 155.006 45.386 155.124 45.386H155.667C155.785 45.386 155.865 45.4091 155.907 45.4554C155.953 45.4975 155.976 45.5774 155.976 45.6952V48.1122H159.245V45.6952C159.245 45.5774 159.268 45.4975 159.315 45.4554C159.361 45.4091 159.443 45.386 159.561 45.386H160.103C160.221 45.386 160.301 45.4091 160.343 45.4554C160.389 45.4975 160.413 45.5774 160.413 45.6952V51.7471C160.413 51.8649 160.389 51.947 160.343 51.9932C160.301 52.0353 160.221 52.0563 160.103 52.0563H159.561C159.443 52.0563 159.361 52.0353 159.315 51.9932C159.268 51.947 159.245 51.8649 159.245 51.7471V49.185H155.976V51.7471C155.976 51.8649 155.953 51.947 155.907 51.9932C155.865 52.0353 155.785 52.0563 155.667 52.0563H155.124C155.011 52.0563 154.931 52.0332 154.884 51.9869C154.838 51.9406 154.815 51.8607 154.815 51.7471Z" fill="#585A66"/>
<path d="M162.009 51.7471V45.6952C162.009 45.5774 162.03 45.4975 162.072 45.4554C162.119 45.4091 162.201 45.386 162.318 45.386H162.861C162.979 45.386 163.059 45.4091 163.101 45.4554C163.147 45.4975 163.17 45.5774 163.17 45.6952V48.1122H166.439V45.6952C166.439 45.5774 166.462 45.4975 166.509 45.4554C166.555 45.4091 166.637 45.386 166.755 45.386H167.297C167.415 45.386 167.495 45.4091 167.537 45.4554C167.584 45.4975 167.607 45.5774 167.607 45.6952V51.7471C167.607 51.8649 167.584 51.947 167.537 51.9932C167.495 52.0353 167.415 52.0563 167.297 52.0563H166.755C166.637 52.0563 166.555 52.0353 166.509 51.9932C166.462 51.947 166.439 51.8649 166.439 51.7471V49.185H163.17V51.7471C163.17 51.8649 163.147 51.947 163.101 51.9932C163.059 52.0353 162.979 52.0563 162.861 52.0563H162.318C162.205 52.0563 162.125 52.0332 162.079 51.9869C162.032 51.9406 162.009 51.8607 162.009 51.7471Z" fill="#585A66"/>
<path d="M169.203 51.7471V45.6952C169.203 45.5774 169.224 45.4975 169.266 45.4554C169.313 45.4091 169.395 45.386 169.513 45.386H170.055C170.173 45.386 170.253 45.4091 170.295 45.4554C170.341 45.4975 170.364 45.5774 170.364 45.6952V47.4054H172.371C173.112 47.4054 173.692 47.6094 174.113 48.0175C174.538 48.4256 174.75 48.9915 174.75 49.7151C174.75 50.4471 174.538 51.0214 174.113 51.4379C173.688 51.8502 173.107 52.0563 172.371 52.0563H169.513C169.395 52.0563 169.313 52.0353 169.266 51.9932C169.224 51.947 169.203 51.8649 169.203 51.7471ZM170.364 51.0214H172.226C172.63 51.0214 172.948 50.9057 173.179 50.6743C173.415 50.4387 173.532 50.119 173.532 49.7151C173.532 49.3154 173.417 49.0062 173.185 48.7874C172.954 48.5645 172.634 48.453 172.226 48.453H170.364V51.0214ZM175.59 51.7471V45.6952C175.59 45.5774 175.611 45.4975 175.653 45.4554C175.699 45.4091 175.781 45.386 175.899 45.386H176.442C176.559 45.386 176.639 45.4091 176.681 45.4554C176.728 45.4975 176.751 45.5774 176.751 45.6952V51.7471C176.751 51.8649 176.728 51.947 176.681 51.9932C176.639 52.0353 176.559 52.0563 176.442 52.0563H175.899C175.781 52.0563 175.699 52.0353 175.653 51.9932C175.611 51.947 175.59 51.8649 175.59 51.7471Z" fill="#585A66"/>
<path d="M178.057 52.0563C177.88 52.0563 177.777 52.0269 177.748 51.968C177.718 51.9091 177.748 51.8186 177.836 51.6966L180.058 48.6297L177.925 45.752C177.765 45.508 177.847 45.386 178.171 45.386H178.638C178.802 45.386 178.917 45.4028 178.985 45.4365C179.052 45.4659 179.126 45.5353 179.206 45.6447L180.771 47.7903L182.336 45.6447C182.407 45.5311 182.472 45.4596 182.531 45.4302C182.594 45.4007 182.706 45.386 182.866 45.386H183.358C183.518 45.386 183.613 45.4175 183.642 45.4807C183.676 45.5396 183.653 45.63 183.573 45.752L181.484 48.6297L183.705 51.6966C183.793 51.8186 183.819 51.9091 183.781 51.968C183.747 52.0269 183.648 52.0563 183.484 52.0563H182.992C182.828 52.0563 182.714 52.0416 182.651 52.0122C182.588 51.9827 182.517 51.9112 182.437 51.7976L180.745 49.4564L179.092 51.7976C179.021 51.9112 178.951 51.9827 178.884 52.0122C178.816 52.0416 178.701 52.0563 178.537 52.0563H178.057Z" fill="#585A66"/>
<path d="M187.1 46.1496V45.6952C187.1 45.5774 187.121 45.4975 187.163 45.4554C187.21 45.4091 187.292 45.386 187.409 45.386H192.332C192.45 45.386 192.53 45.4091 192.572 45.4554C192.618 45.4975 192.641 45.5774 192.641 45.6952V46.1496C192.641 46.2674 192.618 46.3494 192.572 46.3957C192.53 46.4378 192.45 46.4588 192.332 46.4588H190.445V51.7471C190.445 51.8649 190.424 51.947 190.382 51.9932C190.34 52.0353 190.262 52.0563 190.148 52.0563H189.606C189.488 52.0563 189.406 52.0353 189.359 51.9932C189.317 51.947 189.296 51.8649 189.296 51.7471V46.4588H187.409C187.292 46.4588 187.21 46.4378 187.163 46.3957C187.121 46.3494 187.1 46.2674 187.1 46.1496Z" fill="#585A66"/>
<path d="M193.316 49.5636V47.9607C193.316 47.0815 193.567 46.402 194.067 45.9224C194.568 45.4386 195.291 45.1967 196.238 45.1967C197.193 45.1967 197.919 45.4428 198.415 45.935C198.912 46.423 199.16 47.0667 199.16 47.8661V48.617C199.16 48.92 199 49.0714 198.68 49.0714H194.465V49.6899C194.465 50.1863 194.612 50.5691 194.907 50.8384C195.205 51.1076 195.636 51.2423 196.2 51.2423C197.042 51.2423 197.639 50.9457 197.992 50.3525C198.072 50.2431 198.146 50.18 198.213 50.1632C198.285 50.1463 198.379 50.1695 198.497 50.2326L198.851 50.4156C199.074 50.525 199.112 50.6932 198.964 50.9204C198.451 51.8081 197.525 52.252 196.188 52.252C195.22 52.252 194.498 52.0122 194.023 51.5326C193.552 51.0487 193.316 50.3924 193.316 49.5636ZM194.465 48.1816H198.011V47.803C198.011 47.2897 197.86 46.89 197.557 46.6039C197.254 46.3179 196.814 46.1748 196.238 46.1748C195.666 46.1748 195.226 46.3179 194.919 46.6039C194.616 46.89 194.465 47.2897 194.465 47.803V48.1816Z" fill="#585A66"/>
<path d="M199.98 52.0563C199.804 52.0563 199.701 52.0269 199.671 51.968C199.642 51.9091 199.671 51.8186 199.759 51.6966L201.981 48.6297L199.848 45.752C199.688 45.508 199.77 45.386 200.094 45.386H200.561C200.725 45.386 200.841 45.4028 200.908 45.4365C200.975 45.4659 201.049 45.5353 201.129 45.6447L202.694 47.7903L204.259 45.6447C204.33 45.5311 204.396 45.4596 204.455 45.4302C204.518 45.4007 204.629 45.386 204.789 45.386H205.281C205.441 45.386 205.536 45.4175 205.565 45.4807C205.599 45.5396 205.576 45.63 205.496 45.752L203.407 48.6297L205.628 51.6966C205.717 51.8186 205.742 51.9091 205.704 51.968C205.67 52.0269 205.572 52.0563 205.407 52.0563H204.915C204.751 52.0563 204.638 52.0416 204.574 52.0122C204.511 51.9827 204.44 51.9112 204.36 51.7976L202.669 49.4564L201.015 51.7976C200.944 51.9112 200.874 51.9827 200.807 52.0122C200.74 52.0416 200.624 52.0563 200.46 52.0563H199.98Z" fill="#585A66"/>
<path d="M206.701 51.7471V45.6952C206.701 45.5774 206.722 45.4975 206.764 45.4554C206.811 45.4091 206.893 45.386 207.01 45.386H207.553C207.671 45.386 207.751 45.4091 207.793 45.4554C207.839 45.4975 207.862 45.5774 207.862 45.6952V48.1122H211.131V45.6952C211.131 45.5774 211.154 45.4975 211.201 45.4554C211.247 45.4091 211.329 45.386 211.447 45.386H211.989C212.107 45.386 212.187 45.4091 212.229 45.4554C212.276 45.4975 212.299 45.5774 212.299 45.6952V51.7471C212.299 51.8649 212.276 51.947 212.229 51.9932C212.187 52.0353 212.107 52.0563 211.989 52.0563H211.447C211.329 52.0563 211.247 52.0353 211.201 51.9932C211.154 51.947 211.131 51.8649 211.131 51.7471V49.185H207.862V51.7471C207.862 51.8649 207.839 51.947 207.793 51.9932C207.751 52.0353 207.671 52.0563 207.553 52.0563H207.01C206.897 52.0563 206.817 52.0332 206.771 51.9869C206.724 51.9406 206.701 51.8607 206.701 51.7471Z" fill="#585A66"/>
<path d="M213.687 49.7845V47.6768C213.687 46.9027 213.942 46.2968 214.451 45.8593C214.964 45.4175 215.675 45.1967 216.584 45.1967C217.509 45.1967 218.224 45.4175 218.729 45.8593C219.238 46.2968 219.493 46.9027 219.493 47.6768V49.7845C219.493 50.5544 219.238 51.1581 218.729 51.5957C218.22 52.0332 217.505 52.252 216.584 52.252C215.675 52.252 214.964 52.0332 214.451 51.5957C213.942 51.1539 213.687 50.5502 213.687 49.7845ZM214.836 49.7845C214.836 50.2305 214.991 50.5797 215.303 50.8321C215.614 51.0803 216.041 51.2044 216.584 51.2044C217.135 51.2044 217.564 51.0803 217.871 50.8321C218.182 50.5797 218.338 50.2305 218.338 49.7845V47.6641C218.338 47.2182 218.182 46.869 217.871 46.6166C217.56 46.3641 217.131 46.2379 216.584 46.2379C216.041 46.2379 215.614 46.3641 215.303 46.6166C214.991 46.869 214.836 47.2182 214.836 47.6641V49.7845Z" fill="#585A66"/>
<path d="M220.099 51.5389C220.031 51.3832 220.071 51.2633 220.219 51.1792C220.324 51.1287 220.406 51.0866 220.465 51.053C220.524 51.0151 220.601 50.9541 220.698 50.8699C220.799 50.7858 220.879 50.6953 220.938 50.5986C220.997 50.5018 221.062 50.3651 221.134 50.1884C221.205 50.0117 221.26 49.8161 221.298 49.6015C221.34 49.3827 221.373 49.1135 221.399 48.7937C221.428 48.4698 221.443 48.1101 221.443 47.7146V45.6952C221.443 45.5774 221.464 45.4975 221.506 45.4554C221.552 45.4091 221.634 45.386 221.752 45.386H225.904C226.022 45.386 226.102 45.4091 226.144 45.4554C226.19 45.4975 226.214 45.5774 226.214 45.6952V51.7471C226.214 51.8649 226.19 51.947 226.144 51.9932C226.102 52.0353 226.022 52.0563 225.904 52.0563H225.374C225.257 52.0563 225.174 52.0353 225.128 51.9932C225.086 51.947 225.065 51.8649 225.065 51.7471V46.4588H222.566V47.7903C222.566 48.2489 222.547 48.6696 222.509 49.0525C222.471 49.4311 222.423 49.7593 222.364 50.0369C222.305 50.3104 222.227 50.5586 222.131 50.7816C222.034 51.0046 221.937 51.1876 221.84 51.3306C221.748 51.4737 221.634 51.6062 221.5 51.7282C221.369 51.846 221.247 51.9385 221.134 52.0059C221.024 52.0732 220.896 52.1426 220.749 52.2141C220.58 52.2856 220.454 52.233 220.37 52.0563L220.099 51.5389Z" fill="#585A66"/>
<path d="M227.621 49.7845V47.6768C227.621 46.9027 227.875 46.2968 228.384 45.8593C228.898 45.4175 229.609 45.1967 230.517 45.1967C231.443 45.1967 232.158 45.4175 232.663 45.8593C233.172 46.2968 233.427 46.9027 233.427 47.6768V49.7845C233.427 50.5544 233.172 51.1581 232.663 51.5957C232.154 52.0332 231.439 52.252 230.517 52.252C229.609 52.252 228.898 52.0332 228.384 51.5957C227.875 51.1539 227.621 50.5502 227.621 49.7845ZM228.769 49.7845C228.769 50.2305 228.925 50.5797 229.236 50.8321C229.548 51.0803 229.975 51.2044 230.517 51.2044C231.069 51.2044 231.498 51.0803 231.805 50.8321C232.116 50.5797 232.272 50.2305 232.272 49.7845V47.6641C232.272 47.2182 232.116 46.869 231.805 46.6166C231.494 46.3641 231.064 46.2379 230.517 46.2379C229.975 46.2379 229.548 46.3641 229.236 46.6166C228.925 46.869 228.769 47.2182 228.769 47.6641V49.7845Z" fill="#585A66"/>
<path d="M234.821 51.7471V45.6952C234.821 45.5774 234.842 45.4975 234.884 45.4554C234.931 45.4091 235.013 45.386 235.131 45.386H239.049C239.167 45.386 239.247 45.4091 239.289 45.4554C239.336 45.4975 239.359 45.5774 239.359 45.6952V46.1496C239.359 46.2674 239.336 46.3494 239.289 46.3957C239.247 46.4378 239.167 46.4588 239.049 46.4588H235.982V51.7471C235.982 51.8649 235.959 51.947 235.913 51.9932C235.871 52.0353 235.791 52.0563 235.673 52.0563H235.131C235.017 52.0563 234.937 52.0332 234.891 51.9869C234.844 51.9406 234.821 51.8607 234.821 51.7471Z" fill="#585A66"/>
<path d="M240.337 51.7471V45.6952C240.337 45.5774 240.358 45.4975 240.4 45.4554C240.446 45.4091 240.528 45.386 240.646 45.386H241.189C241.307 45.386 241.387 45.4091 241.429 45.4554C241.475 45.4975 241.498 45.5774 241.498 45.6952V48.8505C241.498 49.4437 241.431 50.0033 241.296 50.5292H241.334C241.523 50.1211 241.755 49.734 242.028 49.368L244.849 45.5438C244.92 45.4386 245.019 45.386 245.146 45.386H245.688C245.806 45.386 245.886 45.4091 245.928 45.4554C245.974 45.4975 245.997 45.5774 245.997 45.6952V51.7471C245.997 51.8649 245.974 51.947 245.928 51.9932C245.886 52.0353 245.806 52.0563 245.688 52.0563H245.146C245.028 52.0563 244.946 52.0353 244.899 51.9932C244.857 51.947 244.836 51.8649 244.836 51.7471V48.6423C244.836 48.1711 244.904 47.5989 245.038 46.9258H245C244.819 47.296 244.58 47.6915 244.281 48.1122L241.498 51.8986C241.418 52.0038 241.315 52.0563 241.189 52.0563H240.646C240.532 52.0563 240.453 52.0332 240.406 51.9869C240.36 51.9406 240.337 51.8607 240.337 51.7471Z" fill="#585A66"/>
<path d="M247.594 51.7471V45.6952C247.594 45.5774 247.615 45.4975 247.657 45.4554C247.703 45.4091 247.785 45.386 247.903 45.386H248.446C248.564 45.386 248.644 45.4091 248.686 45.4554C248.732 45.4975 248.755 45.5774 248.755 45.6952V48.8505C248.755 49.4437 248.688 50.0033 248.553 50.5292H248.591C248.78 50.1211 249.012 49.734 249.285 49.368L252.106 45.5438C252.178 45.4386 252.277 45.386 252.403 45.386H252.945C253.063 45.386 253.143 45.4091 253.185 45.4554C253.232 45.4975 253.255 45.5774 253.255 45.6952V51.7471C253.255 51.8649 253.232 51.947 253.185 51.9932C253.143 52.0353 253.063 52.0563 252.945 52.0563H252.403C252.285 52.0563 252.203 52.0353 252.157 51.9932C252.115 51.947 252.094 51.8649 252.094 51.7471V48.6423C252.094 48.1711 252.161 47.5989 252.296 46.9258H252.258C252.077 47.296 251.837 47.6915 251.538 48.1122L248.755 51.8986C248.675 52.0038 248.572 52.0563 248.446 52.0563H247.903C247.79 52.0563 247.71 52.0332 247.663 51.9869C247.617 51.9406 247.594 51.8607 247.594 51.7471ZM248.509 43.1015C248.484 43.0216 248.482 42.9606 248.503 42.9185C248.524 42.8765 248.574 42.8428 248.654 42.8176L249.052 42.6598C249.136 42.6303 249.201 42.6219 249.247 42.6346C249.298 42.6472 249.338 42.6892 249.367 42.7608C249.54 43.3329 249.91 43.619 250.478 43.619C251.054 43.619 251.429 43.3329 251.601 42.7608C251.631 42.6935 251.664 42.6535 251.702 42.6409C251.744 42.624 251.801 42.6261 251.873 42.6472L252.327 42.8176C252.407 42.8512 252.455 42.887 252.472 42.9248C252.493 42.9627 252.491 43.0216 252.466 43.1015C252.323 43.5475 252.081 43.8883 251.74 44.1239C251.404 44.3553 250.983 44.471 250.478 44.471C249.982 44.471 249.565 44.3553 249.229 44.1239C248.892 43.8883 248.652 43.5475 248.509 43.1015Z" fill="#585A66"/>
<path d="M36.9707 21.9852L22.1256 35.6266L13.8483 11.6889L36.9707 21.9852Z" fill="#3573EC"/>
<path d="M12.358 12.1804L5 35.243L20.6627 36.0956L12.358 12.1804Z" fill="#3573EC"/>
<path d="M20.6627 37.5023L21.5232 54L5 36.5645L20.6627 37.5023Z" fill="#3573EC"/>
<path d="M22.3838 38.0565L23.1583 54L45.5336 48.8844L22.3838 38.0565Z" fill="#3573EC"/>
<path d="M37.9156 23.1362L23.0723 36.9055L47.2117 47.8187L37.9156 23.1362Z" fill="#3573EC"/>
<path d="M39.8107 22.7099L48.4165 46.8809L55 25.5556L39.8107 22.7099Z" fill="#3573EC"/>
<path d="M39 20.5L55 23.5L39 6V20.5Z" fill="#3573EC"/>
<path d="M37.2077 6L14.9101 10.6161L37.2077 19.8667V6Z" fill="#C6D4ED"/>
<path d="M24.8201 36.9333C24.8201 38.897 23.2355 40.4889 21.2808 40.4889C19.3261 40.4889 17.7415 38.897 17.7415 36.9333C17.7415 34.9697 19.3261 33.3778 21.2808 33.3778C23.2355 33.3778 24.8201 34.9697 24.8201 36.9333Z" fill="white"/>
<path d="M41.1009 21.2889C41.1009 23.2526 39.5163 24.8444 37.5616 24.8444C35.6069 24.8444 34.0223 23.2526 34.0223 21.2889C34.0223 19.3252 35.6069 17.7333 37.5616 17.7333C39.5163 17.7333 41.1009 19.3252 41.1009 21.2889Z" fill="white"/>
</g>
<defs>
<clipPath id="clip0_794_5326">
<rect width="310" height="60" fill="white"/>
</clipPath>
</defs>
</svg>
