<svg width="263" height="187" viewBox="0 0 263 187" fill="none" xmlns="http://www.w3.org/2000/svg">
<g opacity="0.25">
<path d="M-85.0951 252.973C-95.462 196.198 -33.9756 142.497 20.8418 129.037C84.015 113.533 123.071 155.221 166.28 128.251C205.716 103.656 193.328 56.3428 223.09 40.66C250.442 26.2486 306.198 42.3335 427.95 161.961" stroke="#C6D4ED" stroke-miterlimit="10"/>
<path d="M425.861 168.602C305.69 50.7448 249.558 33.5765 221.386 46.8463C200.516 56.7134 199.231 81.5824 187.55 103.791C181.808 115.153 173.295 124.601 162.773 131.286C128.318 153.214 96.9747 132.592 52.3932 131.822C41.0191 131.592 29.7782 132.751 18.9019 135.276C-36.421 147.913 -98.586 196.763 -89.9822 251.832" stroke="#C6D4ED" stroke-miterlimit="10"/>
<path d="M423.761 175.23C305.175 59.1574 248.696 40.909 219.77 53.0303C198.507 61.9424 196.368 85.8633 184.362 107.182C178.308 118.27 169.757 127.546 159.36 134.304C125.521 156.288 95.0311 138.297 50.4773 138.094C39.1472 138.019 27.9455 139.164 17.0511 141.511C-38.7283 153.507 -101.624 197.313 -94.7833 250.675" stroke="#C6D4ED" stroke-miterlimit="10"/>
<path d="M421.666 181.837C304.693 67.5739 247.844 48.2623 218.119 59.2157C196.452 67.1963 193.487 90.1405 181.134 110.584C174.785 121.388 166.205 130.495 155.941 137.324C122.683 159.373 93.1243 143.983 48.5567 144.369C37.2581 144.426 26.08 145.55 15.1599 147.727C-41.1004 158.976 -104.692 197.842 -99.6157 249.495" stroke="#C6D4ED" stroke-miterlimit="10"/>
<path d="M419.579 188.492C304.184 75.9921 247.008 55.6282 216.457 65.4205C194.415 72.4721 190.581 94.4502 177.88 113.988C171.23 124.513 162.605 133.462 152.456 140.366C119.779 162.479 91.1269 149.708 46.5251 150.678C35.2878 150.886 24.1604 151.995 13.2415 153.996C-43.5082 164.499 -107.793 198.434 -104.489 248.379" stroke="#C6D4ED" stroke-miterlimit="10"/>
<path d="M417.527 195.119C303.692 84.415 245.859 62.0911 214.801 71.6246C192.623 78.4032 187.663 98.7015 174.655 117.404C167.705 127.634 159.035 136.424 149.006 143.407C116.909 165.583 89.1832 155.426 44.613 156.973C33.421 157.311 22.3264 158.4 11.398 160.233C-45.8526 169.954 -110.822 198.984 -109.279 247.226" stroke="#C6D4ED" stroke-miterlimit="10"/>
<path d="M415.392 201.77C303.192 92.8559 245.372 70.4513 213.137 77.7866C190.408 83.0869 184.743 103.021 171.423 120.838C164.183 130.768 155.467 139.403 145.558 146.464C114.042 168.703 87.2119 161.157 42.6646 163.284C31.5209 163.762 20.4597 164.837 9.52457 166.504C-48.2145 175.48 -113.888 199.541 -114.1 246.098" stroke="#C6D4ED" stroke-miterlimit="10"/>
<path d="M413.304 208.408C302.717 101.279 244.547 77.8108 211.499 84.0542C188.402 88.3834 181.781 107.261 168.188 124.254C160.662 133.874 151.896 142.352 142.1 149.483C111.177 171.791 85.2485 166.875 40.706 169.556C30.3457 170.192 19.3505 171.074 7.63787 172.727C-50.6076 180.932 -116.943 200.127 -118.925 244.952" stroke="#C6D4ED" stroke-miterlimit="10"/>
<path d="M411.214 215.053C302.202 109.738 243.758 85.292 209.849 90.2615C186.402 93.7073 178.816 111.529 164.935 127.681C157.122 136.988 148.303 145.322 138.625 152.543C108.283 174.913 83.2653 172.592 38.7346 175.877C28.3666 176.638 17.4047 177.533 5.72986 179.002C-52.938 186.424 -119.994 200.719 -123.743 243.818" stroke="#C6D4ED" stroke-miterlimit="10"/>
<path d="M409.113 221.689C301.703 118.181 242.964 92.7542 208.207 96.5191C184.422 99.0892 175.814 115.829 161.738 131.126C153.65 140.112 144.78 148.305 135.223 155.616C105.453 178.049 81.3436 178.346 36.8124 182.164C26.4813 183.039 15.5109 183.937 3.87704 185.231C-55.3618 191.86 -123.06 201.257 -128.571 242.65" stroke="#C6D4ED" stroke-miterlimit="10"/>
<path d="M407.025 228.334C301.215 126.631 242.179 100.247 206.586 102.753C182.466 104.458 172.867 120.087 158.535 134.586C150.171 143.237 141.242 151.286 131.802 158.687C102.622 181.177 79.4174 184.079 34.9076 188.529C24.575 189.549 13.6289 190.43 2.04807 191.557C-57.6985 197.376 -126.059 201.903 -133.352 241.584" stroke="#C6D4ED" stroke-miterlimit="10"/>
<path d="M404.935 234.982C300.721 135.1 241.377 107.752 204.922 109.009C180.462 109.86 169.856 124.362 155.306 138.053C146.94 145.92 138.349 153.895 128.348 161.776C99.7462 184.316 77.452 189.841 32.9547 194.863C22.6354 196.012 11.7048 196.879 0.15035 197.847C-60.1034 202.857 -129.135 202.52 -138.179 240.49" stroke="#C6D4ED" stroke-miterlimit="10"/>
<path d="M402.849 241.633C300.241 143.604 240.65 115.272 203.294 115.279C178.491 115.268 166.847 128.632 152.092 141.532C143.386 149.146 134.72 156.975 124.918 164.873C96.9072 187.499 75.5174 195.595 31.0271 201.201C20.7244 202.49 9.80044 203.346 -1.68594 204.132C-62.4432 208.313 -132.146 203.137 -142.95 239.399" stroke="#C6D4ED" stroke-miterlimit="10"/>
<path d="M400.779 248.278C299.749 152.044 239.828 122.831 201.668 121.556C176.532 120.713 163.836 132.9 148.884 145.028C139.823 152.373 131.094 160.062 121.531 167.978C94.083 190.634 73.6275 201.364 29.1089 207.562C18.8078 208.973 7.90843 209.813 -3.53043 210.445C-64.8055 213.78 -135.17 203.768 -147.734 238.322" stroke="#C6D4ED" stroke-miterlimit="10"/>
<path d="M398.659 254.933C299.256 160.527 239.076 130.411 200.031 127.845C174.551 126.163 160.811 137.164 145.682 148.524C136.262 155.591 127.459 163.163 118.069 171.102C91.2204 193.809 71.6512 207.14 27.1851 213.909C16.4272 215.426 5.55193 216.364 -5.39802 216.718C-67.1567 219.253 -138.207 204.448 -152.514 237.257" stroke="#C6D4ED" stroke-miterlimit="10"/>
<path d="M396.573 261.592C298.772 169.027 238.251 137.993 198.439 134.139C172.617 131.629 157.818 141.427 142.474 152.051C132.694 158.829 123.834 166.28 114.655 174.242C88.3799 197.005 69.7263 212.936 25.2924 220.271C14.5906 221.928 3.73509 222.86 -7.20691 223.06C-69.5141 224.68 -141.183 205.114 -157.296 236.185" stroke="#C6D4ED" stroke-miterlimit="10"/>
<path d="M394.482 268.253C298.291 177.524 237.445 145.653 196.783 140.464C170.645 137.142 154.767 145.702 139.283 155.581C129.139 162.062 120.231 169.419 111.253 177.397C85.568 200.21 67.8088 218.731 23.3663 226.652C12.7173 228.438 1.87693 229.354 -9.05777 229.394C-71.8374 230.182 -144.176 205.817 -162.039 235.207" stroke="#C6D4ED" stroke-miterlimit="10"/>
<path d="M392.391 275.007C297.889 186.373 236.81 153.657 195.296 147.209C168.803 143.085 151.884 150.382 136.248 159.537C125.702 165.703 116.775 172.947 108.002 180.936C82.8977 203.743 66.0613 224.836 21.6455 233.334C11.0527 235.241 0.230822 236.145 -10.6897 236.034C-73.9463 235.971 -146.905 206.923 -166.524 234.556" stroke="#C6D4ED" stroke-miterlimit="10"/>
</g>
</svg>
