<svg width="651" height="400" viewBox="0 0 651 400" fill="none" xmlns="http://www.w3.org/2000/svg">
<g opacity="0.2">
<mask id="path-1-inside-1_1466_6676" fill="white">
<path d="M8.35402e-09 367.6C3.74023e-09 364.838 2.23858 362.6 5 362.6L103.4 362.6C106.161 362.6 108.4 364.838 108.4 367.6L108.4 466C108.4 468.761 106.161 471 103.4 471L5 471C2.23858 471 1.77375e-07 468.761 1.72761e-07 466L8.35402e-09 367.6Z"/>
</mask>
<path d="M-1 367.6C-1 364.286 1.68629 361.6 5 361.6L102.4 361.6C105.714 361.6 108.4 364.286 108.4 367.6C108.4 365.39 106.161 363.6 103.4 363.6L5 363.6C2.79086 363.6 1 365.39 1 367.6L-1 367.6ZM108.4 466C108.4 469.313 105.714 472 102.4 472L5 472C1.68629 472 -1 469.313 -1 466L1 466C1 468.209 2.79086 470 5 470L103.4 470C106.161 470 108.4 468.209 108.4 466ZM5 472C1.68629 472 -1 469.313 -1 466L-1 367.6C-1 364.286 1.68629 361.6 5 361.6L5 363.6C2.79086 363.6 1 365.39 1 367.6L1 466C1 468.209 2.79086 470 5 470L5 472ZM108.4 362.6L108.4 471L108.4 362.6Z" fill="#C6D4ED" mask="url(#path-1-inside-1_1466_6676)"/>
<mask id="path-3-inside-2_1466_6676" fill="white">
<path d="M8.35402e-09 259.2C3.74023e-09 256.439 2.23858 254.2 5 254.2L103.4 254.2C106.161 254.2 108.4 256.439 108.4 259.2L108.4 357.6C108.4 360.362 106.161 362.6 103.4 362.6L5 362.6C2.23858 362.6 1.77375e-07 360.362 1.72761e-07 357.6L8.35402e-09 259.2Z"/>
</mask>
<path d="M-1 259.2C-1 255.886 1.68629 253.2 5 253.2L102.4 253.2C105.714 253.2 108.4 255.886 108.4 259.2C108.4 256.991 106.161 255.2 103.4 255.2L5 255.2C2.79086 255.2 1 256.991 1 259.2L-1 259.2ZM108.4 362.6L1.81115e-07 362.6L108.4 362.6ZM5 362.6C1.68629 362.6 -1 359.914 -1 356.6L-1 259.2C-1 255.886 1.68629 253.2 5 253.2L5 255.2C2.79086 255.2 1 256.991 1 259.2L1 357.6C1 360.362 2.79086 362.6 5 362.6ZM108.4 254.2L108.4 362.6L108.4 254.2Z" fill="#C6D4ED" mask="url(#path-3-inside-2_1466_6676)"/>
<mask id="path-5-inside-3_1466_6676" fill="white">
<path d="M8.35402e-09 150.8C3.74023e-09 148.038 2.23858 145.8 5 145.8L103.4 145.8C106.161 145.8 108.4 148.038 108.4 150.8L108.4 249.2C108.4 251.961 106.161 254.2 103.4 254.2L5 254.2C2.23858 254.2 1.77375e-07 251.961 1.72761e-07 249.2L8.35402e-09 150.8Z"/>
</mask>
<path d="M-1 150.8C-1 147.486 1.68629 144.8 5 144.8L102.4 144.8C105.714 144.8 108.4 147.486 108.4 150.8C108.4 148.591 106.161 146.8 103.4 146.8L5 146.8C2.79086 146.8 1 148.591 1 150.8L-1 150.8ZM108.4 254.2L1.81115e-07 254.2L108.4 254.2ZM5 254.2C1.68629 254.2 -1 251.513 -1 248.2L-1 150.8C-1 147.486 1.68629 144.8 5 144.8L5 146.8C2.79086 146.8 1 148.591 1 150.8L1 249.2C1 251.961 2.79086 254.2 5 254.2ZM108.4 145.8L108.4 254.2L108.4 145.8Z" fill="#C6D4ED" mask="url(#path-5-inside-3_1466_6676)"/>
<mask id="path-7-inside-4_1466_6676" fill="white">
<path d="M8.35402e-09 42.4004C3.74023e-09 39.639 2.23858 37.4004 5 37.4004L103.4 37.4004C106.161 37.4004 108.4 39.639 108.4 42.4004L108.4 140.8C108.4 143.562 106.161 145.8 103.4 145.8L5 145.8C2.23858 145.8 1.77375e-07 143.562 1.72761e-07 140.8L8.35402e-09 42.4004Z"/>
</mask>
<path d="M-1 42.4004C-1 39.0867 1.68629 36.4004 5 36.4004L102.4 36.4004C105.714 36.4004 108.4 39.0867 108.4 42.4004C108.4 40.1913 106.161 38.4004 103.4 38.4004L5 38.4004C2.79086 38.4004 1 40.1913 1 42.4004L-1 42.4004ZM108.4 145.8L1.81115e-07 145.8L108.4 145.8ZM5 145.8C1.68629 145.8 -1 143.114 -1 139.8L-1 42.4004C-1 39.0867 1.68629 36.4004 5 36.4004L5 38.4004C2.79086 38.4004 1 40.1913 1 42.4004L1 140.8C1 143.562 2.79086 145.8 5 145.8ZM108.4 37.4004L108.4 145.8L108.4 37.4004Z" fill="#C6D4ED" mask="url(#path-7-inside-4_1466_6676)"/>
<mask id="path-9-inside-5_1466_6676" fill="white">
<path d="M8.35402e-09 -66C3.74023e-09 -68.7614 2.23858 -71 5 -71L103.4 -71C106.161 -71 108.4 -68.7614 108.4 -66L108.4 32.3999C108.4 35.1614 106.161 37.3999 103.4 37.3999L5 37.3999C2.23858 37.3999 1.77375e-07 35.1614 1.72761e-07 32.3999L8.35402e-09 -66Z"/>
</mask>
<path d="M-1 -66C-1 -69.3137 1.68629 -72 5 -72L102.4 -72C105.714 -72 108.4 -69.3137 108.4 -66C108.4 -68.2091 106.161 -70 103.4 -70L5 -70C2.79086 -70 1 -68.2091 1 -66L-1 -66ZM108.4 37.3999L1.81115e-07 37.3999L108.4 37.3999ZM5 37.3999C1.68629 37.3999 -1 34.7136 -1 31.3999L-1 -66C-1 -69.3137 1.68629 -72 5 -72L5 -70C2.79086 -70 1 -68.2091 1 -66L1 32.3999C1 35.1614 2.79086 37.3999 5 37.3999ZM108.4 -71L108.4 37.3999L108.4 -71Z" fill="#C6D4ED" mask="url(#path-9-inside-5_1466_6676)"/>
<mask id="path-11-inside-6_1466_6676" fill="white">
<path d="M108.4 367.6C108.4 364.838 110.638 362.6 113.4 362.6L211.8 362.6C214.561 362.6 216.8 364.838 216.8 367.6L216.8 466C216.8 468.761 214.561 471 211.8 471L113.4 471C110.638 471 108.4 468.761 108.4 466L108.4 367.6Z"/>
</mask>
<path d="M107.4 367.6C107.4 364.286 110.086 361.6 113.4 361.6L210.8 361.6C214.114 361.6 216.8 364.286 216.8 367.6C216.8 365.39 214.561 363.6 211.8 363.6L113.4 363.6C111.191 363.6 109.4 365.39 109.4 367.6L107.4 367.6ZM216.8 466C216.8 469.313 214.114 472 210.8 472L113.4 472C110.086 472 107.4 469.313 107.4 466L109.4 466C109.4 468.209 111.191 470 113.4 470L211.8 470C214.561 470 216.8 468.209 216.8 466ZM113.4 472C110.086 472 107.4 469.313 107.4 466L107.4 367.6C107.4 364.286 110.086 361.6 113.4 361.6L113.4 363.6C111.191 363.6 109.4 365.39 109.4 367.6L109.4 466C109.4 468.209 111.191 470 113.4 470L113.4 472ZM216.8 362.6L216.8 471L216.8 362.6Z" fill="#C6D4ED" mask="url(#path-11-inside-6_1466_6676)"/>
<mask id="path-13-inside-7_1466_6676" fill="white">
<path d="M108.4 259.2C108.4 256.439 110.638 254.2 113.4 254.2L211.8 254.2C214.561 254.2 216.8 256.439 216.8 259.2L216.8 357.6C216.8 360.362 214.561 362.6 211.8 362.6L113.4 362.6C110.638 362.6 108.4 360.362 108.4 357.6L108.4 259.2Z"/>
</mask>
<path d="M107.4 259.2C107.4 255.886 110.086 253.2 113.4 253.2L210.8 253.2C214.114 253.2 216.8 255.886 216.8 259.2C216.8 256.991 214.561 255.2 211.8 255.2L113.4 255.2C111.191 255.2 109.4 256.991 109.4 259.2L107.4 259.2ZM216.8 362.6L108.4 362.6L216.8 362.6ZM113.4 362.6C110.086 362.6 107.4 359.914 107.4 356.6L107.4 259.2C107.4 255.886 110.086 253.2 113.4 253.2L113.4 255.2C111.191 255.2 109.4 256.991 109.4 259.2L109.4 357.6C109.4 360.362 111.191 362.6 113.4 362.6ZM216.8 254.2L216.8 362.6L216.8 254.2Z" fill="#C6D4ED" mask="url(#path-13-inside-7_1466_6676)"/>
<mask id="path-15-inside-8_1466_6676" fill="white">
<path d="M108.4 150.8C108.4 148.038 110.638 145.8 113.4 145.8L211.8 145.8C214.561 145.8 216.8 148.038 216.8 150.8L216.8 249.2C216.8 251.961 214.561 254.2 211.8 254.2L113.4 254.2C110.638 254.2 108.4 251.961 108.4 249.2L108.4 150.8Z"/>
</mask>
<path d="M107.4 150.8C107.4 147.486 110.086 144.8 113.4 144.8L210.8 144.8C214.114 144.8 216.8 147.486 216.8 150.8C216.8 148.591 214.561 146.8 211.8 146.8L113.4 146.8C111.191 146.8 109.4 148.591 109.4 150.8L107.4 150.8ZM216.8 254.2L108.4 254.2L216.8 254.2ZM113.4 254.2C110.086 254.2 107.4 251.513 107.4 248.2L107.4 150.8C107.4 147.486 110.086 144.8 113.4 144.8L113.4 146.8C111.191 146.8 109.4 148.591 109.4 150.8L109.4 249.2C109.4 251.961 111.191 254.2 113.4 254.2ZM216.8 145.8L216.8 254.2L216.8 145.8Z" fill="#C6D4ED" mask="url(#path-15-inside-8_1466_6676)"/>
<mask id="path-17-inside-9_1466_6676" fill="white">
<path d="M108.4 42.4004C108.4 39.639 110.638 37.4004 113.4 37.4004L211.8 37.4004C214.561 37.4004 216.8 39.639 216.8 42.4004L216.8 140.8C216.8 143.562 214.561 145.8 211.8 145.8L113.4 145.8C110.638 145.8 108.4 143.562 108.4 140.8L108.4 42.4004Z"/>
</mask>
<path d="M107.4 42.4004C107.4 39.0867 110.086 36.4004 113.4 36.4004L210.8 36.4004C214.114 36.4004 216.8 39.0867 216.8 42.4004C216.8 40.1913 214.561 38.4004 211.8 38.4004L113.4 38.4004C111.191 38.4004 109.4 40.1913 109.4 42.4004L107.4 42.4004ZM216.8 145.8L108.4 145.8L216.8 145.8ZM113.4 145.8C110.086 145.8 107.4 143.114 107.4 139.8L107.4 42.4004C107.4 39.0867 110.086 36.4004 113.4 36.4004L113.4 38.4004C111.191 38.4004 109.4 40.1913 109.4 42.4004L109.4 140.8C109.4 143.562 111.191 145.8 113.4 145.8ZM216.8 37.4004L216.8 145.8L216.8 37.4004Z" fill="#C6D4ED" mask="url(#path-17-inside-9_1466_6676)"/>
<mask id="path-19-inside-10_1466_6676" fill="white">
<path d="M108.4 -66C108.4 -68.7614 110.638 -71 113.4 -71L211.8 -71C214.561 -71 216.8 -68.7614 216.8 -66L216.8 32.3999C216.8 35.1614 214.561 37.3999 211.8 37.3999L113.4 37.3999C110.638 37.3999 108.4 35.1614 108.4 32.3999L108.4 -66Z"/>
</mask>
<path d="M107.4 -66C107.4 -69.3137 110.086 -72 113.4 -72L210.8 -72C214.114 -72 216.8 -69.3137 216.8 -66C216.8 -68.2091 214.561 -70 211.8 -70L113.4 -70C111.191 -70 109.4 -68.2091 109.4 -66L107.4 -66ZM216.8 37.3999L108.4 37.3999L216.8 37.3999ZM113.4 37.3999C110.086 37.3999 107.4 34.7136 107.4 31.3999L107.4 -66C107.4 -69.3137 110.086 -72 113.4 -72L113.4 -70C111.191 -70 109.4 -68.2091 109.4 -66L109.4 32.3999C109.4 35.1614 111.191 37.3999 113.4 37.3999ZM216.8 -71L216.8 37.3999L216.8 -71Z" fill="#C6D4ED" mask="url(#path-19-inside-10_1466_6676)"/>
<mask id="path-21-inside-11_1466_6676" fill="white">
<path d="M216.8 367.6C216.8 364.838 219.039 362.6 221.8 362.6L320.2 362.6C322.961 362.6 325.2 364.838 325.2 367.6L325.2 466C325.2 468.761 322.961 471 320.2 471L221.8 471C219.039 471 216.8 468.761 216.8 466L216.8 367.6Z"/>
</mask>
<path d="M215.8 367.6C215.8 364.286 218.486 361.6 221.8 361.6L319.2 361.6C322.514 361.6 325.2 364.286 325.2 367.6C325.2 365.39 322.961 363.6 320.2 363.6L221.8 363.6C219.591 363.6 217.8 365.39 217.8 367.6L215.8 367.6ZM325.2 466C325.2 469.313 322.514 472 319.2 472L221.8 472C218.486 472 215.8 469.313 215.8 466L217.8 466C217.8 468.209 219.591 470 221.8 470L320.2 470C322.961 470 325.2 468.209 325.2 466ZM221.8 472C218.486 472 215.8 469.313 215.8 466L215.8 367.6C215.8 364.286 218.486 361.6 221.8 361.6L221.8 363.6C219.591 363.6 217.8 365.39 217.8 367.6L217.8 466C217.8 468.209 219.591 470 221.8 470L221.8 472ZM325.2 362.6L325.2 471L325.2 362.6Z" fill="#C6D4ED" mask="url(#path-21-inside-11_1466_6676)"/>
<mask id="path-23-inside-12_1466_6676" fill="white">
<path d="M216.8 259.2C216.8 256.439 219.039 254.2 221.8 254.2L320.2 254.2C322.961 254.2 325.2 256.439 325.2 259.2L325.2 357.6C325.2 360.362 322.961 362.6 320.2 362.6L221.8 362.6C219.039 362.6 216.8 360.362 216.8 357.6L216.8 259.2Z"/>
</mask>
<path d="M215.8 259.2C215.8 255.886 218.486 253.2 221.8 253.2L319.2 253.2C322.514 253.2 325.2 255.886 325.2 259.2C325.2 256.991 322.961 255.2 320.2 255.2L221.8 255.2C219.591 255.2 217.8 256.991 217.8 259.2L215.8 259.2ZM325.2 362.6L216.8 362.6L325.2 362.6ZM221.8 362.6C218.486 362.6 215.8 359.914 215.8 356.6L215.8 259.2C215.8 255.886 218.486 253.2 221.8 253.2L221.8 255.2C219.591 255.2 217.8 256.991 217.8 259.2L217.8 357.6C217.8 360.362 219.591 362.6 221.8 362.6ZM325.2 254.2L325.2 362.6L325.2 254.2Z" fill="#C6D4ED" mask="url(#path-23-inside-12_1466_6676)"/>
<mask id="path-25-inside-13_1466_6676" fill="white">
<path d="M216.8 150.8C216.8 148.038 219.039 145.8 221.8 145.8L320.2 145.8C322.961 145.8 325.2 148.038 325.2 150.8L325.2 249.2C325.2 251.961 322.961 254.2 320.2 254.2L221.8 254.2C219.039 254.2 216.8 251.961 216.8 249.2L216.8 150.8Z"/>
</mask>
<path d="M215.8 150.8C215.8 147.486 218.486 144.8 221.8 144.8L319.2 144.8C322.514 144.8 325.2 147.486 325.2 150.8C325.2 148.591 322.961 146.8 320.2 146.8L221.8 146.8C219.591 146.8 217.8 148.591 217.8 150.8L215.8 150.8ZM325.2 254.2L216.8 254.2L325.2 254.2ZM221.8 254.2C218.486 254.2 215.8 251.513 215.8 248.2L215.8 150.8C215.8 147.486 218.486 144.8 221.8 144.8L221.8 146.8C219.591 146.8 217.8 148.591 217.8 150.8L217.8 249.2C217.8 251.961 219.591 254.2 221.8 254.2ZM325.2 145.8L325.2 254.2L325.2 145.8Z" fill="#C6D4ED" mask="url(#path-25-inside-13_1466_6676)"/>
<mask id="path-27-inside-14_1466_6676" fill="white">
<path d="M216.8 42.4004C216.8 39.639 219.039 37.4004 221.8 37.4004L320.2 37.4004C322.961 37.4004 325.2 39.639 325.2 42.4004L325.2 140.8C325.2 143.562 322.961 145.8 320.2 145.8L221.8 145.8C219.039 145.8 216.8 143.562 216.8 140.8L216.8 42.4004Z"/>
</mask>
<path d="M215.8 42.4004C215.8 39.0867 218.486 36.4004 221.8 36.4004L319.2 36.4004C322.514 36.4004 325.2 39.0867 325.2 42.4004C325.2 40.1913 322.961 38.4004 320.2 38.4004L221.8 38.4004C219.591 38.4004 217.8 40.1913 217.8 42.4004L215.8 42.4004ZM325.2 145.8L216.8 145.8L325.2 145.8ZM221.8 145.8C218.486 145.8 215.8 143.114 215.8 139.8L215.8 42.4004C215.8 39.0867 218.486 36.4004 221.8 36.4004L221.8 38.4004C219.591 38.4004 217.8 40.1913 217.8 42.4004L217.8 140.8C217.8 143.562 219.591 145.8 221.8 145.8ZM325.2 37.4004L325.2 145.8L325.2 37.4004Z" fill="#C6D4ED" mask="url(#path-27-inside-14_1466_6676)"/>
<mask id="path-29-inside-15_1466_6676" fill="white">
<path d="M216.8 -66C216.8 -68.7614 219.039 -71 221.8 -71L320.2 -71C322.961 -71 325.2 -68.7614 325.2 -66L325.2 32.3999C325.2 35.1614 322.961 37.3999 320.2 37.3999L221.8 37.3999C219.039 37.3999 216.8 35.1614 216.8 32.3999L216.8 -66Z"/>
</mask>
<path d="M215.8 -66C215.8 -69.3137 218.486 -72 221.8 -72L319.2 -72C322.514 -72 325.2 -69.3137 325.2 -66C325.2 -68.2091 322.961 -70 320.2 -70L221.8 -70C219.591 -70 217.8 -68.2091 217.8 -66L215.8 -66ZM325.2 37.3999L216.8 37.3999L325.2 37.3999ZM221.8 37.3999C218.486 37.3999 215.8 34.7136 215.8 31.3999L215.8 -66C215.8 -69.3137 218.486 -72 221.8 -72L221.8 -70C219.591 -70 217.8 -68.2091 217.8 -66L217.8 32.3999C217.8 35.1614 219.591 37.3999 221.8 37.3999ZM325.2 -71L325.2 37.3999L325.2 -71Z" fill="#C6D4ED" mask="url(#path-29-inside-15_1466_6676)"/>
<mask id="path-31-inside-16_1466_6676" fill="white">
<path d="M325.2 367.6C325.2 364.838 327.439 362.6 330.2 362.6L428.6 362.6C431.361 362.6 433.6 364.838 433.6 367.6L433.6 466C433.6 468.761 431.361 471 428.6 471L330.2 471C327.439 471 325.2 468.761 325.2 466L325.2 367.6Z"/>
</mask>
<path d="M324.2 367.6C324.2 364.286 326.886 361.6 330.2 361.6L427.6 361.6C430.914 361.6 433.6 364.286 433.6 367.6C433.6 365.39 431.361 363.6 428.6 363.6L330.2 363.6C327.991 363.6 326.2 365.39 326.2 367.6L324.2 367.6ZM433.6 466C433.6 469.313 430.914 472 427.6 472L330.2 472C326.886 472 324.2 469.313 324.2 466L326.2 466C326.2 468.209 327.991 470 330.2 470L428.6 470C431.361 470 433.6 468.209 433.6 466ZM330.2 472C326.886 472 324.2 469.313 324.2 466L324.2 367.6C324.2 364.286 326.886 361.6 330.2 361.6L330.2 363.6C327.991 363.6 326.2 365.39 326.2 367.6L326.2 466C326.2 468.209 327.991 470 330.2 470L330.2 472ZM433.6 362.6L433.6 471L433.6 362.6Z" fill="#C6D4ED" mask="url(#path-31-inside-16_1466_6676)"/>
<mask id="path-33-inside-17_1466_6676" fill="white">
<path d="M325.2 259.2C325.2 256.439 327.439 254.2 330.2 254.2L428.6 254.2C431.361 254.2 433.6 256.439 433.6 259.2L433.6 357.6C433.6 360.362 431.361 362.6 428.6 362.6L330.2 362.6C327.439 362.6 325.2 360.362 325.2 357.6L325.2 259.2Z"/>
</mask>
<path d="M324.2 259.2C324.2 255.886 326.886 253.2 330.2 253.2L427.6 253.2C430.914 253.2 433.6 255.886 433.6 259.2C433.6 256.991 431.361 255.2 428.6 255.2L330.2 255.2C327.991 255.2 326.2 256.991 326.2 259.2L324.2 259.2ZM433.6 362.6L325.2 362.6L433.6 362.6ZM330.2 362.6C326.886 362.6 324.2 359.914 324.2 356.6L324.2 259.2C324.2 255.886 326.886 253.2 330.2 253.2L330.2 255.2C327.991 255.2 326.2 256.991 326.2 259.2L326.2 357.6C326.2 360.362 327.991 362.6 330.2 362.6ZM433.6 254.2L433.6 362.6L433.6 254.2Z" fill="#C6D4ED" mask="url(#path-33-inside-17_1466_6676)"/>
<mask id="path-35-inside-18_1466_6676" fill="white">
<path d="M325.2 150.8C325.2 148.038 327.439 145.8 330.2 145.8L428.6 145.8C431.361 145.8 433.6 148.038 433.6 150.8L433.6 249.2C433.6 251.961 431.361 254.2 428.6 254.2L330.2 254.2C327.439 254.2 325.2 251.961 325.2 249.2L325.2 150.8Z"/>
</mask>
<path d="M324.2 150.8C324.2 147.486 326.886 144.8 330.2 144.8L427.6 144.8C430.914 144.8 433.6 147.486 433.6 150.8C433.6 148.591 431.361 146.8 428.6 146.8L330.2 146.8C327.991 146.8 326.2 148.591 326.2 150.8L324.2 150.8ZM433.6 254.2L325.2 254.2L433.6 254.2ZM330.2 254.2C326.886 254.2 324.2 251.513 324.2 248.2L324.2 150.8C324.2 147.486 326.886 144.8 330.2 144.8L330.2 146.8C327.991 146.8 326.2 148.591 326.2 150.8L326.2 249.2C326.2 251.961 327.991 254.2 330.2 254.2ZM433.6 145.8L433.6 254.2L433.6 145.8Z" fill="#C6D4ED" mask="url(#path-35-inside-18_1466_6676)"/>
<mask id="path-37-inside-19_1466_6676" fill="white">
<path d="M325.2 42.4004C325.2 39.639 327.439 37.4004 330.2 37.4004L428.6 37.4004C431.361 37.4004 433.6 39.639 433.6 42.4004L433.6 140.8C433.6 143.562 431.361 145.8 428.6 145.8L330.2 145.8C327.439 145.8 325.2 143.562 325.2 140.8L325.2 42.4004Z"/>
</mask>
<path d="M324.2 42.4004C324.2 39.0867 326.886 36.4004 330.2 36.4004L427.6 36.4004C430.914 36.4004 433.6 39.0867 433.6 42.4004C433.6 40.1913 431.361 38.4004 428.6 38.4004L330.2 38.4004C327.991 38.4004 326.2 40.1913 326.2 42.4004L324.2 42.4004ZM433.6 145.8L325.2 145.8L433.6 145.8ZM330.2 145.8C326.886 145.8 324.2 143.114 324.2 139.8L324.2 42.4004C324.2 39.0867 326.886 36.4004 330.2 36.4004L330.2 38.4004C327.991 38.4004 326.2 40.1913 326.2 42.4004L326.2 140.8C326.2 143.562 327.991 145.8 330.2 145.8ZM433.6 37.4004L433.6 145.8L433.6 37.4004Z" fill="#C6D4ED" mask="url(#path-37-inside-19_1466_6676)"/>
<mask id="path-39-inside-20_1466_6676" fill="white">
<path d="M325.2 -66C325.2 -68.7614 327.439 -71 330.2 -71L428.6 -71C431.361 -71 433.6 -68.7614 433.6 -66L433.6 32.3999C433.6 35.1614 431.361 37.3999 428.6 37.3999L330.2 37.3999C327.439 37.3999 325.2 35.1614 325.2 32.3999L325.2 -66Z"/>
</mask>
<path d="M324.2 -66C324.2 -69.3137 326.886 -72 330.2 -72L427.6 -72C430.914 -72 433.6 -69.3137 433.6 -66C433.6 -68.2091 431.361 -70 428.6 -70L330.2 -70C327.991 -70 326.2 -68.2091 326.2 -66L324.2 -66ZM433.6 37.3999L325.2 37.3999L433.6 37.3999ZM330.2 37.3999C326.886 37.3999 324.2 34.7136 324.2 31.3999L324.2 -66C324.2 -69.3137 326.886 -72 330.2 -72L330.2 -70C327.991 -70 326.2 -68.2091 326.2 -66L326.2 32.3999C326.2 35.1614 327.991 37.3999 330.2 37.3999ZM433.6 -71L433.6 37.3999L433.6 -71Z" fill="#C6D4ED" mask="url(#path-39-inside-20_1466_6676)"/>
<mask id="path-41-inside-21_1466_6676" fill="white">
<path d="M433.599 367.6C433.599 364.838 435.838 362.6 438.599 362.6L536.999 362.6C539.76 362.6 541.999 364.838 541.999 367.6L541.999 466C541.999 468.761 539.76 471 536.999 471L438.599 471C435.838 471 433.599 468.761 433.599 466L433.599 367.6Z"/>
</mask>
<path d="M432.599 367.6C432.599 364.286 435.285 361.6 438.599 361.6L535.999 361.6C539.313 361.6 541.999 364.286 541.999 367.6C541.999 365.39 539.76 363.6 536.999 363.6L438.599 363.6C436.39 363.6 434.599 365.39 434.599 367.6L432.599 367.6ZM541.999 466C541.999 469.313 539.313 472 535.999 472L438.599 472C435.285 472 432.599 469.313 432.599 466L434.599 466C434.599 468.209 436.39 470 438.599 470L536.999 470C539.76 470 541.999 468.209 541.999 466ZM438.599 472C435.285 472 432.599 469.313 432.599 466L432.599 367.6C432.599 364.286 435.285 361.6 438.599 361.6L438.599 363.6C436.39 363.6 434.599 365.39 434.599 367.6L434.599 466C434.599 468.209 436.39 470 438.599 470L438.599 472ZM541.999 362.6L541.999 471L541.999 362.6Z" fill="#C6D4ED" mask="url(#path-41-inside-21_1466_6676)"/>
<mask id="path-43-inside-22_1466_6676" fill="white">
<path d="M542 367.6C542 364.838 544.239 362.6 547 362.6L645.4 362.6C648.161 362.6 650.4 364.838 650.4 367.6L650.4 466C650.4 468.761 648.161 471 645.4 471L547 471C544.239 471 542 468.761 542 466L542 367.6Z"/>
</mask>
<path d="M547 363.6L645.4 363.6L645.4 361.6L547 361.6L547 363.6ZM649.4 367.6L649.4 466L651.4 466L651.4 367.6L649.4 367.6ZM645.4 470L547 470L547 472L645.4 472L645.4 470ZM543 466L543 367.6L541 367.6L541 466L543 466ZM547 470C544.791 470 543 468.209 543 466L541 466C541 469.313 543.686 472 547 472L547 470ZM649.4 466C649.4 468.209 647.609 470 645.4 470L645.4 472C648.714 472 651.4 469.313 651.4 466L649.4 466ZM645.4 363.6C647.609 363.6 649.4 365.39 649.4 367.6L651.4 367.6C651.4 364.286 648.714 361.6 645.4 361.6L645.4 363.6ZM547 361.6C543.686 361.6 541 364.286 541 367.6L543 367.6C543 365.39 544.791 363.6 547 363.6L547 361.6Z" fill="#C6D4ED" mask="url(#path-43-inside-22_1466_6676)"/>
<mask id="path-45-inside-23_1466_6676" fill="white">
<path d="M433.599 259.2C433.599 256.439 435.838 254.2 438.599 254.2L536.999 254.2C539.76 254.2 541.999 256.439 541.999 259.2L541.999 357.6C541.999 360.362 539.76 362.6 536.999 362.6L438.599 362.6C435.838 362.6 433.599 360.362 433.599 357.6L433.599 259.2Z"/>
</mask>
<path d="M432.599 259.2C432.599 255.886 435.285 253.2 438.599 253.2L535.999 253.2C539.313 253.2 541.999 255.886 541.999 259.2C541.999 256.991 539.76 255.2 536.999 255.2L438.599 255.2C436.39 255.2 434.599 256.991 434.599 259.2L432.599 259.2ZM541.999 362.6L433.599 362.6L541.999 362.6ZM438.599 362.6C435.285 362.6 432.599 359.914 432.599 356.6L432.599 259.2C432.599 255.886 435.285 253.2 438.599 253.2L438.599 255.2C436.39 255.2 434.599 256.991 434.599 259.2L434.599 357.6C434.599 360.362 436.39 362.6 438.599 362.6ZM541.999 254.2L541.999 362.6L541.999 254.2Z" fill="#C6D4ED" mask="url(#path-45-inside-23_1466_6676)"/>
<mask id="path-47-inside-24_1466_6676" fill="white">
<path d="M542 259.2C542 256.439 544.239 254.2 547 254.2L645.4 254.2C648.161 254.2 650.4 256.439 650.4 259.2L650.4 357.6C650.4 360.362 648.161 362.6 645.4 362.6L547 362.6C544.239 362.6 542 360.362 542 357.6L542 259.2Z"/>
</mask>
<path d="M541 259.2C541 255.886 543.686 253.2 547 253.2L645.4 253.2C648.714 253.2 651.4 255.886 651.4 259.2L649.4 259.2C649.4 256.991 647.609 255.2 645.4 255.2L547 255.2C544.791 255.2 543 256.991 543 259.2L541 259.2ZM650.4 362.6L542 362.6L650.4 362.6ZM547 362.6C543.686 362.6 541 359.914 541 356.6L541 259.2C541 255.886 543.686 253.2 547 253.2L547 255.2C544.791 255.2 543 256.991 543 259.2L543 357.6C543 360.362 544.791 362.6 547 362.6ZM645.4 253.2C648.714 253.2 651.4 255.886 651.4 259.2L651.4 356.6C651.4 359.914 648.714 362.6 645.4 362.6C647.609 362.6 649.4 360.362 649.4 357.6L649.4 259.2C649.4 256.991 647.609 255.2 645.4 255.2L645.4 253.2Z" fill="#C6D4ED" mask="url(#path-47-inside-24_1466_6676)"/>
<mask id="path-49-inside-25_1466_6676" fill="white">
<path d="M433.599 150.8C433.599 148.038 435.838 145.8 438.599 145.8L536.999 145.8C539.76 145.8 541.999 148.038 541.999 150.8L541.999 249.2C541.999 251.961 539.76 254.2 536.999 254.2L438.599 254.2C435.838 254.2 433.599 251.961 433.599 249.2L433.599 150.8Z"/>
</mask>
<path d="M432.599 150.8C432.599 147.486 435.285 144.8 438.599 144.8L535.999 144.8C539.313 144.8 541.999 147.486 541.999 150.8C541.999 148.591 539.76 146.8 536.999 146.8L438.599 146.8C436.39 146.8 434.599 148.591 434.599 150.8L432.599 150.8ZM541.999 254.2L433.599 254.2L541.999 254.2ZM438.599 254.2C435.285 254.2 432.599 251.513 432.599 248.2L432.599 150.8C432.599 147.486 435.285 144.8 438.599 144.8L438.599 146.8C436.39 146.8 434.599 148.591 434.599 150.8L434.599 249.2C434.599 251.961 436.39 254.2 438.599 254.2ZM541.999 145.8L541.999 254.2L541.999 145.8Z" fill="#C6D4ED" mask="url(#path-49-inside-25_1466_6676)"/>
<mask id="path-51-inside-26_1466_6676" fill="white">
<path d="M542 150.8C542 148.038 544.239 145.8 547 145.8L645.4 145.8C648.161 145.8 650.4 148.038 650.4 150.8L650.4 249.2C650.4 251.961 648.161 254.2 645.4 254.2L547 254.2C544.239 254.2 542 251.961 542 249.2L542 150.8Z"/>
</mask>
<path d="M541 150.8C541 147.486 543.686 144.8 547 144.8L645.4 144.8C648.714 144.8 651.4 147.486 651.4 150.8L649.4 150.8C649.4 148.591 647.609 146.8 645.4 146.8L547 146.8C544.791 146.8 543 148.591 543 150.8L541 150.8ZM650.4 254.2L542 254.2L650.4 254.2ZM547 254.2C543.686 254.2 541 251.513 541 248.2L541 150.8C541 147.486 543.686 144.8 547 144.8L547 146.8C544.791 146.8 543 148.591 543 150.8L543 249.2C543 251.961 544.791 254.2 547 254.2ZM645.4 144.8C648.714 144.8 651.4 147.486 651.4 150.8L651.4 248.2C651.4 251.513 648.714 254.2 645.4 254.2C647.609 254.2 649.4 251.961 649.4 249.2L649.4 150.8C649.4 148.591 647.609 146.8 645.4 146.8L645.4 144.8Z" fill="#C6D4ED" mask="url(#path-51-inside-26_1466_6676)"/>
<mask id="path-53-inside-27_1466_6676" fill="white">
<path d="M433.599 42.4004C433.599 39.639 435.838 37.4004 438.599 37.4004L536.999 37.4004C539.76 37.4004 541.999 39.639 541.999 42.4004L541.999 140.8C541.999 143.562 539.76 145.8 536.999 145.8L438.599 145.8C435.838 145.8 433.599 143.562 433.599 140.8L433.599 42.4004Z"/>
</mask>
<path d="M432.599 42.4004C432.599 39.0867 435.285 36.4004 438.599 36.4004L535.999 36.4004C539.313 36.4004 541.999 39.0867 541.999 42.4004C541.999 40.1913 539.76 38.4004 536.999 38.4004L438.599 38.4004C436.39 38.4004 434.599 40.1913 434.599 42.4004L432.599 42.4004ZM541.999 145.8L433.599 145.8L541.999 145.8ZM438.599 145.8C435.285 145.8 432.599 143.114 432.599 139.8L432.599 42.4004C432.599 39.0867 435.285 36.4004 438.599 36.4004L438.599 38.4004C436.39 38.4004 434.599 40.1913 434.599 42.4004L434.599 140.8C434.599 143.562 436.39 145.8 438.599 145.8ZM541.999 37.4004L541.999 145.8L541.999 37.4004Z" fill="#C6D4ED" mask="url(#path-53-inside-27_1466_6676)"/>
<mask id="path-55-inside-28_1466_6676" fill="white">
<path d="M542 42.4004C542 39.639 544.239 37.4004 547 37.4004L645.4 37.4004C648.161 37.4004 650.4 39.639 650.4 42.4004L650.4 140.8C650.4 143.562 648.161 145.8 645.4 145.8L547 145.8C544.239 145.8 542 143.562 542 140.8L542 42.4004Z"/>
</mask>
<path d="M541 42.4004C541 39.0867 543.686 36.4004 547 36.4004L645.4 36.4004C648.714 36.4004 651.4 39.0867 651.4 42.4004L649.4 42.4004C649.4 40.1913 647.609 38.4004 645.4 38.4004L547 38.4004C544.791 38.4004 543 40.1913 543 42.4004L541 42.4004ZM650.4 145.8L542 145.8L650.4 145.8ZM547 145.8C543.686 145.8 541 143.114 541 139.8L541 42.4004C541 39.0867 543.686 36.4004 547 36.4004L547 38.4004C544.791 38.4004 543 40.1913 543 42.4004L543 140.8C543 143.562 544.791 145.8 547 145.8ZM645.4 36.4004C648.714 36.4004 651.4 39.0867 651.4 42.4004L651.4 139.8C651.4 143.114 648.714 145.8 645.4 145.8C647.609 145.8 649.4 143.562 649.4 140.8L649.4 42.4004C649.4 40.1913 647.609 38.4004 645.4 38.4004L645.4 36.4004Z" fill="#C6D4ED" mask="url(#path-55-inside-28_1466_6676)"/>
<mask id="path-57-inside-29_1466_6676" fill="white">
<path d="M433.599 -66C433.599 -68.7614 435.838 -71 438.599 -71L536.999 -71C539.76 -71 541.999 -68.7614 541.999 -66L541.999 32.3999C541.999 35.1614 539.76 37.3999 536.999 37.3999L438.599 37.3999C435.838 37.3999 433.599 35.1614 433.599 32.3999L433.599 -66Z"/>
</mask>
<path d="M432.599 -66C432.599 -69.3137 435.285 -72 438.599 -72L535.999 -72C539.313 -72 541.999 -69.3137 541.999 -66C541.999 -68.2091 539.76 -70 536.999 -70L438.599 -70C436.39 -70 434.599 -68.2091 434.599 -66L432.599 -66ZM541.999 37.3999L433.599 37.3999L541.999 37.3999ZM438.599 37.3999C435.285 37.3999 432.599 34.7136 432.599 31.3999L432.599 -66C432.599 -69.3137 435.285 -72 438.599 -72L438.599 -70C436.39 -70 434.599 -68.2091 434.599 -66L434.599 32.3999C434.599 35.1614 436.39 37.3999 438.599 37.3999ZM541.999 -71L541.999 37.3999L541.999 -71Z" fill="#C6D4ED" mask="url(#path-57-inside-29_1466_6676)"/>
<mask id="path-59-inside-30_1466_6676" fill="white">
<path d="M542 -66C542 -68.7614 544.239 -71 547 -71L645.4 -71C648.161 -71 650.4 -68.7614 650.4 -66L650.4 32.3999C650.4 35.1614 648.161 37.3999 645.4 37.3999L547 37.3999C544.239 37.3999 542 35.1614 542 32.3999L542 -66Z"/>
</mask>
<path d="M541 -66C541 -69.3137 543.686 -72 547 -72L645.4 -72C648.714 -72 651.4 -69.3137 651.4 -66L649.4 -66C649.4 -68.2091 647.609 -70 645.4 -70L547 -70C544.791 -70 543 -68.2091 543 -66L541 -66ZM650.4 37.3999L542 37.3999L650.4 37.3999ZM547 37.3999C543.686 37.3999 541 34.7136 541 31.3999L541 -66C541 -69.3137 543.686 -72 547 -72L547 -70C544.791 -70 543 -68.2091 543 -66L543 32.3999C543 35.1614 544.791 37.3999 547 37.3999ZM645.4 -72C648.714 -72 651.4 -69.3137 651.4 -66L651.4 31.3999C651.4 34.7136 648.714 37.3999 645.4 37.3999C647.609 37.3999 649.4 35.1614 649.4 32.3999L649.4 -66C649.4 -68.2091 647.609 -70 645.4 -70L645.4 -72Z" fill="#C6D4ED" mask="url(#path-59-inside-30_1466_6676)"/>
<rect x="101.896" y="37.7939" width="9.75599" height="9.756" rx="1" transform="rotate(-45 101.896 37.7939)" fill="#C6D4ED"/>
<rect x="210.296" y="37.7939" width="9.75599" height="9.756" rx="1" transform="rotate(-45 210.296 37.7939)" fill="#C6D4ED"/>
<rect x="318.696" y="37.7939" width="9.75599" height="9.756" rx="1" transform="rotate(-45 318.696 37.7939)" fill="#C6D4ED"/>
<rect x="427.096" y="37.7939" width="9.75599" height="9.756" rx="1" transform="rotate(-45 427.096 37.7939)" fill="#C6D4ED"/>
<rect x="535.496" y="37.7939" width="9.75599" height="9.756" rx="1" transform="rotate(-45 535.496 37.7939)" fill="#C6D4ED"/>
<rect x="535.496" y="146.193" width="9.75599" height="9.756" rx="1" transform="rotate(-45 535.496 146.193)" fill="#C6D4ED"/>
<rect x="427.096" y="146.193" width="9.75599" height="9.756" rx="1" transform="rotate(-45 427.096 146.193)" fill="#C6D4ED"/>
<rect x="318.696" y="146.193" width="9.75599" height="9.756" rx="1" transform="rotate(-45 318.696 146.193)" fill="#C6D4ED"/>
<rect x="210.296" y="146.193" width="9.75599" height="9.756" rx="1" transform="rotate(-45 210.296 146.193)" fill="#C6D4ED"/>
<rect x="101.896" y="146.193" width="9.75599" height="9.756" rx="1" transform="rotate(-45 101.896 146.193)" fill="#C6D4ED"/>
<rect x="535.496" y="254.594" width="9.75599" height="9.756" rx="1" transform="rotate(-45 535.496 254.594)" fill="#C6D4ED"/>
<rect x="427.096" y="254.594" width="9.75599" height="9.756" rx="1" transform="rotate(-45 427.096 254.594)" fill="#C6D4ED"/>
<rect x="318.696" y="254.594" width="9.75599" height="9.756" rx="1" transform="rotate(-45 318.696 254.594)" fill="#C6D4ED"/>
<rect x="210.296" y="254.594" width="9.75599" height="9.756" rx="1" transform="rotate(-45 210.296 254.594)" fill="#C6D4ED"/>
<rect x="101.896" y="254.594" width="9.75599" height="9.756" rx="1" transform="rotate(-45 101.896 254.594)" fill="#C6D4ED"/>
<rect x="535.496" y="362.993" width="9.75599" height="9.756" rx="1" transform="rotate(-45 535.496 362.993)" fill="#C6D4ED"/>
<rect x="427.096" y="362.993" width="9.75599" height="9.756" rx="1" transform="rotate(-45 427.096 362.993)" fill="#C6D4ED"/>
<rect x="318.696" y="362.993" width="9.75599" height="9.756" rx="1" transform="rotate(-45 318.696 362.993)" fill="#C6D4ED"/>
<rect x="210.296" y="362.993" width="9.75599" height="9.756" rx="1" transform="rotate(-45 210.296 362.993)" fill="#C6D4ED"/>
<rect x="101.896" y="362.993" width="9.75599" height="9.756" rx="1" transform="rotate(-45 101.896 362.993)" fill="#C6D4ED"/>
</g>
</svg>
