<svg width="350" height="225" viewBox="0 0 350 225" fill="none" xmlns="http://www.w3.org/2000/svg">
<g opacity="0.2">
<path opacity="0.8" d="M349.5 43.0769C349.5 48.7348 344.828 54.2721 335.996 59.4122C327.2 64.5315 314.438 69.1588 298.624 73.0513C267.005 80.8346 223.297 85.6538 175 85.6538C126.703 85.6538 82.9952 80.8346 51.3758 73.0513C35.5622 69.1588 22.8003 64.5315 14.0039 59.4122C5.1717 54.2721 0.5 48.7348 0.5 43.0769C0.5 37.4189 5.1717 31.8816 14.0039 26.7416C22.8003 21.6223 35.5622 16.995 51.3758 13.1024C82.9952 5.31921 126.703 0.5 175 0.5C223.297 0.5 267.005 5.31921 298.624 13.1024C314.438 16.995 327.2 21.6223 335.996 26.7416C344.828 31.8816 349.5 37.4189 349.5 43.0769Z" stroke="#C6D4ED"/>
<path opacity="0.8" d="M349.5 92.0438C349.5 94.6751 348.347 97.2839 346.071 99.8509C343.792 102.421 340.407 104.924 336.008 107.324C327.21 112.125 314.446 116.463 298.631 120.113C267.009 127.41 223.299 131.928 175 131.928C126.701 131.928 82.9909 127.41 51.3687 120.113C35.5537 116.463 22.7898 112.125 13.9918 107.324C9.59262 104.924 6.20849 102.421 3.92948 99.8509C1.65324 97.2839 0.5 94.6751 0.5 92.0438C0.5 89.4125 1.65324 86.8036 3.92948 84.2366C6.20849 81.6665 9.59262 79.1634 13.9918 76.7632C22.7898 71.963 35.5537 67.6244 51.3687 63.9747C82.9909 56.6773 126.701 52.1592 175 52.1592C223.299 52.1592 267.009 56.6773 298.631 63.9747C314.446 67.6244 327.21 71.963 336.008 76.7632C340.407 79.1634 343.792 81.6665 346.071 84.2366C348.347 86.8036 349.5 89.4125 349.5 92.0438Z" stroke="#C6D4ED"/>
<path opacity="0.8" d="M349.5 138.316C349.5 140.948 348.347 143.556 346.071 146.123C343.792 148.694 340.407 151.197 336.008 153.597C327.21 158.397 314.446 162.736 298.631 166.385C267.009 173.683 223.299 178.201 175 178.201C126.701 178.201 82.9909 173.683 51.3687 166.385C35.5537 162.736 22.7898 158.397 13.9918 153.597C9.59262 151.197 6.20849 148.694 3.92948 146.123C1.65324 143.556 0.5 140.948 0.5 138.316C0.5 135.685 1.65324 133.076 3.92948 130.509C6.20849 127.939 9.59262 125.436 13.9918 123.036C22.7898 118.235 35.5537 113.897 51.3687 110.247C82.9909 102.95 126.701 98.4316 175 98.4316C223.299 98.4316 267.009 102.95 298.631 110.247C314.446 113.897 327.21 118.235 336.008 123.036C340.407 125.436 343.792 127.939 346.071 130.509C348.347 133.076 349.5 135.685 349.5 138.316Z" stroke="#C6D4ED"/>
<path opacity="0.8" d="M349.5 184.589C349.5 187.22 348.347 189.829 346.071 192.396C343.792 194.966 340.407 197.469 336.008 199.869C327.21 204.669 314.446 209.008 298.631 212.658C267.009 219.955 223.299 224.473 175 224.473C126.701 224.473 82.9909 219.955 51.3687 212.658C35.5537 209.008 22.7898 204.669 13.9918 199.869C9.59262 197.469 6.20849 194.966 3.92948 192.396C1.65324 189.829 0.5 187.22 0.5 184.589C0.5 181.957 1.65324 179.349 3.92948 176.782C6.20849 174.211 9.59262 171.708 13.9918 169.308C22.7898 164.508 35.5537 160.169 51.3687 156.52C82.9909 149.222 126.701 144.704 175 144.704C223.299 144.704 267.009 149.222 298.631 156.52C314.446 160.169 327.21 164.508 336.008 169.308C340.407 171.708 343.792 174.211 346.071 176.782C348.347 179.349 349.5 181.957 349.5 184.589Z" stroke="#C6D4ED"/>
</g>
<rect x="108.5" y="71.8379" width="167" height="99" rx="8.5" fill="#F7F8FB" stroke="#C6D4ED" stroke-width="3"/>
<path d="M172 172.338H212V172.338C212 178.965 206.627 184.338 200 184.338H184C177.373 184.338 172 178.965 172 172.338V172.338Z" fill="#C6D4ED"/>
<rect x="169" y="112.338" width="46" height="10" rx="5" fill="#3573EC"/>
<path d="M184.776 116.834L184.916 116.461C184.974 116.3 185.069 116.258 185.201 116.336L186.534 116.922L186.402 115.465C186.358 115.318 186.417 115.245 186.578 115.245H187.003C187.159 115.245 187.223 115.318 187.193 115.465L187.062 116.922L188.395 116.336C188.478 116.297 188.541 116.288 188.585 116.307C188.629 116.327 188.666 116.378 188.695 116.461L188.812 116.849C188.861 117.005 188.807 117.096 188.651 117.12L187.223 117.42L188.182 118.526C188.299 118.629 188.294 118.729 188.167 118.827L187.838 119.068C187.691 119.171 187.586 119.146 187.523 118.995L186.791 117.75L186.058 118.995C185.985 119.142 185.88 119.171 185.743 119.083L185.414 118.827C185.282 118.724 185.274 118.619 185.392 118.512L186.373 117.42L184.959 117.12C184.793 117.096 184.732 117 184.776 116.834ZM190.357 116.834L190.497 116.461C190.555 116.3 190.65 116.258 190.782 116.336L192.115 116.922L191.983 115.465C191.939 115.318 191.998 115.245 192.159 115.245H192.584C192.74 115.245 192.804 115.318 192.774 115.465L192.643 116.922L193.976 116.336C194.059 116.297 194.122 116.288 194.166 116.307C194.21 116.327 194.247 116.378 194.276 116.461L194.393 116.849C194.442 117.005 194.388 117.096 194.232 117.12L192.804 117.42L193.763 118.526C193.88 118.629 193.875 118.729 193.749 118.827L193.419 119.068C193.272 119.171 193.167 119.146 193.104 118.995L192.372 117.75L191.639 118.995C191.566 119.142 191.461 119.171 191.324 119.083L190.995 118.827C190.863 118.724 190.855 118.619 190.973 118.512L191.954 117.42L190.541 117.12C190.375 117.096 190.313 117 190.357 116.834ZM195.938 116.834L196.078 116.461C196.136 116.3 196.231 116.258 196.363 116.336L197.696 116.922L197.564 115.465C197.521 115.318 197.579 115.245 197.74 115.245H198.165C198.321 115.245 198.385 115.318 198.355 115.465L198.224 116.922L199.557 116.336C199.64 116.297 199.703 116.288 199.747 116.307C199.791 116.327 199.828 116.378 199.857 116.461L199.974 116.849C200.023 117.005 199.969 117.096 199.813 117.12L198.385 117.42L199.344 118.526C199.461 118.629 199.457 118.729 199.33 118.827L199 119.068C198.854 119.171 198.749 119.146 198.685 118.995L197.953 117.75L197.22 118.995C197.147 119.142 197.042 119.171 196.905 119.083L196.576 118.827C196.444 118.724 196.437 118.619 196.554 118.512L197.535 117.42L196.122 117.12C195.956 117.096 195.895 117 195.938 116.834Z" fill="white"/>
<rect x="75.5" y="126.84" width="42" height="67" rx="8.5" fill="#F7F8FB" stroke="#C6D4ED" stroke-width="3"/>
<rect x="82" y="156.34" width="29" height="10" rx="5" fill="#3573EC"/>
<path d="M88.7764 160.836L88.9155 160.463C88.9741 160.302 89.0693 160.26 89.2012 160.338L90.5342 160.924L90.4023 159.467C90.3584 159.32 90.417 159.247 90.5781 159.247H91.0029C91.1592 159.247 91.2227 159.32 91.1934 159.467L91.0615 160.924L92.3945 160.338C92.4775 160.299 92.541 160.29 92.585 160.309C92.6289 160.329 92.6655 160.38 92.6948 160.463L92.812 160.851C92.8608 161.007 92.8071 161.098 92.6509 161.122L91.2227 161.422L92.1821 162.528C92.2993 162.631 92.2944 162.731 92.1675 162.829L91.8379 163.07C91.6914 163.173 91.5864 163.148 91.5229 162.997L90.7905 161.752L90.0581 162.997C89.9849 163.144 89.8799 163.173 89.7432 163.085L89.4136 162.829C89.2817 162.726 89.2744 162.621 89.3916 162.514L90.373 161.422L88.9595 161.122C88.7935 161.098 88.7324 161.002 88.7764 160.836ZM94.3574 160.836L94.4966 160.463C94.5552 160.302 94.6504 160.26 94.7822 160.338L96.1152 160.924L95.9834 159.467C95.9395 159.32 95.998 159.247 96.1592 159.247H96.584C96.7402 159.247 96.8037 159.32 96.7744 159.467L96.6426 160.924L97.9756 160.338C98.0586 160.299 98.1221 160.29 98.166 160.309C98.21 160.329 98.2466 160.38 98.2759 160.463L98.3931 160.851C98.4419 161.007 98.3882 161.098 98.2319 161.122L96.8037 161.422L97.7632 162.528C97.8804 162.631 97.8755 162.731 97.7485 162.829L97.4189 163.07C97.2725 163.173 97.1675 163.148 97.104 162.997L96.3716 161.752L95.6392 162.997C95.5659 163.144 95.4609 163.173 95.3242 163.085L94.9946 162.829C94.8628 162.726 94.8555 162.621 94.9727 162.514L95.9541 161.422L94.5405 161.122C94.3745 161.098 94.3135 161.002 94.3574 160.836ZM99.9385 160.836L100.078 160.463C100.136 160.302 100.231 160.26 100.363 160.338L101.696 160.924L101.564 159.467C101.521 159.32 101.579 159.247 101.74 159.247H102.165C102.321 159.247 102.385 159.32 102.355 159.467L102.224 160.924L103.557 160.338C103.64 160.299 103.703 160.29 103.747 160.309C103.791 160.329 103.828 160.38 103.857 160.463L103.974 160.851C104.023 161.007 103.969 161.098 103.813 161.122L102.385 161.422L103.344 162.528C103.461 162.631 103.457 162.731 103.33 162.829L103 163.07C102.854 163.173 102.749 163.148 102.685 162.997L101.953 161.752L101.22 162.997C101.147 163.144 101.042 163.173 100.905 163.085L100.576 162.829C100.444 162.726 100.437 162.621 100.554 162.514L101.535 161.422L100.122 161.122C99.9556 161.098 99.8945 161.002 99.9385 160.836Z" fill="white"/>
<circle cx="110.5" cy="124.838" r="12.5" fill="#009168"/>
<path d="M110.5 118.338L105 120.317V124.316C105 128.208 106.932 129.305 110.178 131.177L110.513 131.338L110.849 131.177C114.082 129.305 116 128.208 116 124.316V120.317L110.5 118.338Z" fill="white"/>
</svg>
