<svg width="254" height="107" viewBox="0 0 254 107" fill="none" xmlns="http://www.w3.org/2000/svg">
<path opacity="0.2" d="M1 36L1 71M29 36V71M155 36V71M57 36V71M239 36V71M183 36V71M113 36V71M71 36V71M253 36V71M197 36V71M127 36V71M43 18.5V88.5M169 18.5V88.5M85 18.5V88.5M211 18.5V88.5M99 18.5V88.5M225 18.5V88.5M15 1L15 106M141 1V106" stroke="#C6D4ED" stroke-linecap="round"/>
<path d="M129 43.5C128.724 43.5 128.5 43.7239 128.5 44C128.5 44.2761 128.724 44.5 129 44.5V43.5ZM159 44L154 41.1132V46.8868L159 44ZM129 44.5H154.5V43.5H129V44.5Z" fill="#C6D4ED"/>
<rect x="60.5" y="28.5" width="58" height="30" rx="15" fill="white"/>
<rect x="60.5" y="28.5" width="58" height="30" rx="15" stroke="#EAEEF3"/>
<circle cx="75.5" cy="43.5" r="12.5" fill="#3573EC"/>
<path d="M75.5 45.375C77.052 45.375 78.3099 44.1161 78.3099 42.5625V38.8125C78.3099 37.2589 77.052 36 75.5 36C73.9479 36 72.69 37.2589 72.69 38.8125V42.5625C72.69 44.1161 73.9479 45.375 75.5 45.375ZM80.9545 42.529C80.9545 42.4554 80.895 42.3951 80.8223 42.3951H79.8305C79.7578 42.3951 79.6983 42.4554 79.6983 42.529C79.6983 44.8778 77.819 46.7813 75.5 46.7813C73.1809 46.7813 71.3016 44.8778 71.3016 42.529C71.3016 42.4554 71.2421 42.3951 71.1694 42.3951H70.1776C70.1049 42.3951 70.0454 42.4554 70.0454 42.529C70.0454 45.3532 72.138 47.6836 74.8388 48.0134V49.7277H72.4371C72.2107 49.7277 72.0289 49.9671 72.0289 50.2634V50.8661C72.0289 50.9397 72.0752 51 72.1314 51H78.8685C78.9247 51 78.971 50.9397 78.971 50.8661V50.2634C78.971 49.9671 78.7892 49.7277 78.5628 49.7277H76.095V48.0218C78.8272 47.7204 80.9545 45.3767 80.9545 42.529Z" fill="white"/>
<circle cx="103.5" cy="43.5" r="12.5" fill="#3573EC"/>
<path fill-rule="evenodd" clip-rule="evenodd" d="M99.4999 39C99.0453 39 98.6092 39.1806 98.2877 39.5021C97.9663 39.8236 97.7856 40.2596 97.7856 40.7143V45.2857C97.7856 45.7404 97.9663 46.1764 98.2877 46.4979C98.6092 46.8194 99.0453 47 99.4999 47H105.214C105.669 47 106.105 46.8194 106.426 46.4979C106.748 46.1764 106.929 45.7404 106.929 45.2857V44.3794L108.239 45.6897C108.319 45.7696 108.421 45.824 108.531 45.846C108.642 45.8681 108.757 45.8568 108.861 45.8135C108.966 45.7703 109.055 45.6971 109.118 45.6031C109.181 45.5092 109.214 45.3987 109.214 45.2857V40.7143C109.214 40.6013 109.181 40.4908 109.118 40.3969C109.055 40.3029 108.966 40.2297 108.861 40.1865C108.757 40.1432 108.642 40.1319 108.531 40.154C108.421 40.176 108.319 40.2304 108.239 40.3103L106.929 41.6206V40.7143C106.929 40.2596 106.748 39.8236 106.426 39.5021C106.105 39.1806 105.669 39 105.214 39H99.4999Z" fill="white"/>
<circle cx="181.5" cy="43.5" r="12.5" fill="#7069DD"/>
<path d="M178.292 38C177.684 38 177.101 38.2414 176.671 38.6712C176.241 39.101 176 39.6839 176 40.2917V46.7083C176 47.3161 176.241 47.899 176.671 48.3288C177.101 48.7586 177.684 49 178.292 49H184.708C185.316 49 185.899 48.7586 186.329 48.3288C186.759 47.899 187 47.3161 187 46.7083V40.2917C187 39.6839 186.759 39.101 186.329 38.6712C185.899 38.2414 185.316 38 184.708 38H178.292ZM179.208 40.75H183.792C183.913 40.75 184.03 40.7983 184.116 40.8842C184.202 40.9702 184.25 41.0868 184.25 41.2083C184.25 41.3299 184.202 41.4465 184.116 41.5324C184.03 41.6184 183.913 41.6667 183.792 41.6667H179.208C179.087 41.6667 178.97 41.6184 178.884 41.5324C178.798 41.4465 178.75 41.3299 178.75 41.2083C178.75 41.0868 178.798 40.9702 178.884 40.8842C178.97 40.7983 179.087 40.75 179.208 40.75ZM179.208 43.0417H181.958C182.08 43.0417 182.196 43.09 182.282 43.1759C182.368 43.2619 182.417 43.3784 182.417 43.5C182.417 43.6216 182.368 43.7381 182.282 43.8241C182.196 43.91 182.08 43.9583 181.958 43.9583H179.208C179.087 43.9583 178.97 43.91 178.884 43.8241C178.798 43.7381 178.75 43.6216 178.75 43.5C178.75 43.3784 178.798 43.2619 178.884 43.1759C178.97 43.09 179.087 43.0417 179.208 43.0417ZM179.208 45.3333H183.792C183.913 45.3333 184.03 45.3816 184.116 45.4676C184.202 45.5535 184.25 45.6701 184.25 45.7917C184.25 45.9132 184.202 46.0298 184.116 46.1158C184.03 46.2017 183.913 46.25 183.792 46.25H179.208C179.087 46.25 178.97 46.2017 178.884 46.1158C178.798 46.0298 178.75 45.9132 178.75 45.7917C178.75 45.6701 178.798 45.5535 178.884 45.4676C178.97 45.3816 179.087 45.3333 179.208 45.3333Z" fill="white"/>
<rect opacity="0.5" x="176" y="38" width="11" height="11" rx="2" fill="white"/>
</svg>
